{
.appVersion = "3095";
.formatVersion = 3;
DisplayStrings = (

glyphs = (
{
glyphname = A;
lastChange = "2021-08-05 13:41:57 +0000";
layers = (
{
anchors = (
{
name = bottom;
pos = (314,0);
},
{
name = ogonek;
pos = (529,0);
},
{
name = top;
pos = (314,700);
}
);
background = {
shapes = (
{
attr = {
strokeWidth = 2;
};
closed = 0;
nodes = (
(58,0,l),
(314,700,l),
(566,0,l)
);
},
{
attr = {
strokeWidth = 2;
};
closed = 0;
nodes = (
(152,238,l),
(480,238,l)
);
}
);
};
layerId = "65988B1E-DCE2-4AC3-A6FF-994A1050067D";
shapes = (
{
closed = 1;
nodes = (
(488,207,l),
(488,283,l),
(134,283,l),
(134,207,l)
);
},
{
closed = 1;
nodes = (
(88,-10,o),
(104,1,o),
(109,16,cs),
(325,620,l),
(304,620,l),
(519,16,ls),
(524,1,o),
(540,-10,o),
(557,-10,cs),
(590,-10,o),
(604,24,o),
(595,47,cs),
(363,664,ls),
(351,695,o),
(333,710,o),
(314,710,cs),
(295,710,o),
(277,695,o),
(265,664,cs),
(33,47,ls),
(24,24,o),
(38,-10,o),
(71,-10,cs)
);
}
);
width = 628;
},
{
anchors = (
{
name = bottom;
pos = (343,0);
},
{
name = ogonek;
pos = (613,10);
},
{
name = top;
pos = (343,700);
}
);
background = {
shapes = (
{
attr = {
strokeWidth = 2;
};
closed = 0;
nodes = (
(82,0,l),
(333,700,l),
(595,0,l)
);
},
{
attr = {
strokeWidth = 2;
};
closed = 0;
nodes = (
(171,238,l),
(499,238,l)
);
},
{
closed = 1;
nodes = (
(107,-5,o),
(123,6,o),
(128,21,cs),
(344,620,l),
(323,620,l),
(538,21,ls),
(543,6,o),
(559,-5,o),
(576,-5,cs),
(598,-5,o),
(617,14,o),
(617,36,cs),
(617,42,o),
(616,47,o),
(614,52,cs),
(382,664,ls),
(370,695,o),
(352,710,o),
(333,710,cs),
(314,710,o),
(296,695,o),
(284,664,cs),
(52,52,ls),
(50,47,o),
(49,42,o),
(49,36,cs),
(49,14,o),
(68,-5,o),
(90,-5,cs)
);
},
{
closed = 1;
nodes = (
(507,202,l),
(507,276,l),
(153,276,l),
(153,202,l)
);
},
{
closed = 1;
nodes = (
(150,-10,o),
(182,12,o),
(193,43,cs),
(225,138,l),
(460,138,l),
(492,43,ls),
(502,12,o),
(535,-10,o),
(572,-10,cs),
(644,-10,o),
(669,67,o),
(651,108,cs),
(415,657,ls),
(401,690,o),
(370,710,o),
(337,710,cs),
(303,710,o),
(273,690,o),
(259,657,cs),
(35,106,ls),
(17,61,o),
(46,-10,o),
(114,-10,cs)
);
},
{
closed = 1;
nodes = (
(343,485,l),
(410,286,l),
(275,285,l)
);
}
);
};
layerId = "6242D68C-0A25-4F05-8F2A-2075F7C4A210";
shapes = (
{
closed = 1;
nodes = (
(499,143,l),
(499,293,l),
(171,293,l),
(171,143,l)
);
},
{
closed = 1;
nodes = (
(142,-8,o),
(174,10,o),
(184,40,cs),
(360,550,l),
(323,550,l),
(501,40,ls),
(512,10,o),
(543,-8,o),
(576,-8,cs),
(636,-5,o),
(669,52,o),
(649,100,cs),
(421,657,ls),
(405,695,o),
(378,709,o),
(343,709,cs),
(311,709,o),
(281,699,o),
(264,657,cs),
(35,100,ls),
(17,57,o),
(45,-5,o),
(109,-8,cs)
);
}
);
width = 685;
},
{
associatedMasterId = "65988B1E-DCE2-4AC3-A6FF-994A1050067D";
background = {
shapes = (
{
attr = {
strokeWidth = 2;
};
closed = 0;
nodes = (
(53,0,l),
(304,700,l),
(566,0,l)
);
},
{
attr = {
strokeWidth = 2;
};
closed = 0;
nodes = (
(142,238,l),
(470,238,l)
);
},
{
closed = 1;
nodes = (
(78,-5,o),
(94,6,o),
(99,21,cs),
(315,620,l),
(294,620,l),
(509,21,ls),
(514,6,o),
(530,-5,o),
(547,-5,cs),
(569,-5,o),
(588,14,o),
(588,36,cs),
(588,42,o),
(587,47,o),
(585,52,cs),
(353,664,ls),
(341,695,o),
(323,710,o),
(304,710,cs),
(285,710,o),
(267,695,o),
(255,664,cs),
(23,52,ls),
(21,47,o),
(20,42,o),
(20,36,cs),
(20,14,o),
(39,-5,o),
(61,-5,cs)
);
},
{
closed = 1;
nodes = (
(478,202,l),
(478,276,l),
(124,276,l),
(124,202,l)
);
}
);
};
layerId = "108E55AC-D5A3-4E4A-9ABE-828C3EE6594E";
name = "Original Skeleton";
shapes = (
{
attr = {
strokeWidth = 2;
};
closed = 0;
nodes = (
(41,0,l),
(302,700,l),
(574,0,l)
);
},
{
attr = {
strokeWidth = 2;
};
closed = 0;
nodes = (
(126,222,l),
(483,222,l)
);
}
);
width = 608;
},
{
anchors = (
{
name = bottom;
pos = (283,0);
},
{
name = ogonek;
pos = (508,0);
},
{
name = top;
pos = (283,700);
}
);
background = {
shapes = (
{
attr = {
strokeWidth = 2;
};
closed = 0;
nodes = (
(46,0,l),
(290,698,l)
);
},
{
attr = {
strokeWidth = 2;
};
closed = 0;
nodes = (
(120,251,l),
(448,251,l)
);
},
{
attr = {
strokeWidth = 2;
};
closed = 0;
nodes = (
(526,0,l),
(282,698,l)
);
},
{
closed = 1;
nodes = (
(133,281,l),
(133,223,l),
(435,223,l),
(435,281,l)
);
},
{
closed = 1;
nodes = (
(64,-10,o),
(74,-2,o),
(78,9,cs),
(299,639,l),
(272,639,l),
(493,9,ls),
(497,-2,o),
(507,-10,o),
(520,-10,cs),
(542,-10,o),
(554,10,o),
(547,29,cs),
(319,681,ls),
(312,701,o),
(299,710,o),
(286,710,cs),
(273,710,o),
(260,701,o),
(253,681,cs),
(25,29,ls),
(18,10,o),
(30,-10,o),
(52,-10,cs)
);
}
);
};
layerId = "3D52442A-254C-4C79-B742-A98FD72DF947";
shapes = (
{
closed = 1;
nodes = (
(434,236,l),
(434,281,l),
(135,281,l),
(135,236,l)
);
},
{
closed = 1;
nodes = (
(63,-10,o),
(72,-4,o),
(75,5,cs),
(288,640,l),
(278,640,l),
(491,5,ls),
(494,-4,o),
(503,-10,o),
(513,-10,cs),
(531,-10,o),
(540,7,o),
(535,21,cs),
(305,695,ls),
(302,703,o),
(293,710,o),
(283,710,cs),
(273,710,o),
(264,703,o),
(261,695,cs),
(31,21,ls),
(26,7,o),
(35,-10,o),
(53,-10,cs)
);
}
);
width = 566;
},
{
anchors = (
{
name = bottom;
pos = (304,0);
},
{
name = ogonek;
pos = (519,0);
},
{
name = top;
pos = (304,700);
}
);
associatedMasterId = "65988B1E-DCE2-4AC3-A6FF-994A1050067D";
background = {
shapes = (
{
attr = {
strokeWidth = 2;
};
closed = 0;
nodes = (
(48,0,l),
(304,700,l),
(556,0,l)
);
},
{
attr = {
strokeWidth = 2;
};
closed = 0;
nodes = (
(142,238,l),
(470,238,l)
);
}
);
};
layerId = "66031ED0-0312-484C-961A-FF787F6FA0DA";
name = "Jul 26, 21, 15:08";
shapes = (
{
closed = 1;
nodes = (
(478,207,l),
(478,283,l),
(124,283,l),
(124,207,l)
);
},
{
closed = 1;
nodes = (
(78,-10,o),
(94,1,o),
(99,16,cs),
(315,620,l),
(294,620,l),
(509,16,ls),
(514,1,o),
(530,-10,o),
(547,-10,cs),
(580,-10,o),
(594,24,o),
(585,47,cs),
(353,664,ls),
(341,695,o),
(323,710,o),
(304,710,cs),
(285,710,o),
(267,695,o),
(255,664,cs),
(23,47,ls),
(14,24,o),
(28,-10,o),
(61,-10,cs)
);
}
);
width = 608;
}
);
unicode = 65;
},
{
glyphname = A.ss02;
lastChange = "2021-08-09 22:22:58 +0000";
layers = (
{
anchors = (
{
name = bottom;
pos = (324,0);
},
{
name = ogonek;
pos = (583,10);
},
{
name = top;
pos = (324,700);
}
);
layerId = "65988B1E-DCE2-4AC3-A6FF-994A1050067D";
shapes = (
{
closed = 1;
nodes = (
(498,193,l),
(498,267,l),
(144,267,l),
(144,193,l)
);
},
{
closed = 1;
nodes = (
(88,-15,o),
(103,-4,o),
(109,11,cs),
(335,620,l),
(314,620,l),
(539,11,ls),
(544,-4,o),
(560,-15,o),
(577,-15,cs),
(610,-15,o),
(624,19,o),
(615,42,cs),
(373,664,ls),
(361,695,o),
(343,710,o),
(324,710,cs),
(305,710,o),
(287,695,o),
(275,664,cs),
(33,42,ls),
(24,19,o),
(38,-15,o),
(71,-15,cs)
);
}
);
width = 648;
},
{
anchors = (
{
name = bottom;
pos = (353,0);
},
{
name = ogonek;
pos = (635,10);
},
{
name = top;
pos = (353,700);
}
);
layerId = "6242D68C-0A25-4F05-8F2A-2075F7C4A210";
shapes = (
{
closed = 1;
nodes = (
(509,143,l),
(509,293,l),
(181,293,l),
(181,143,l)
);
},
{
closed = 1;
nodes = (
(142,-15,o),
(173,3,o),
(184,33,cs),
(370,550,l),
(333,550,l),
(521,33,ls),
(532,3,o),
(563,-15,o),
(596,-15,cs),
(656,-15,o),
(689,45,o),
(669,93,cs),
(431,657,ls),
(415,695,o),
(388,709,o),
(353,709,cs),
(321,709,o),
(292,699,o),
(274,657,cs),
(35,93,ls),
(17,50,o),
(45,-15,o),
(109,-15,cs)
);
}
);
width = 705;
},
{
anchors = (
{
name = bottom;
pos = (298,0);
},
{
name = ogonek;
pos = (536,10);
},
{
name = top;
pos = (298,700);
}
);
layerId = "3D52442A-254C-4C79-B742-A98FD72DF947";
shapes = (
{
closed = 1;
nodes = (
(464,236,l),
(464,281,l),
(135,281,l),
(135,236,l)
);
},
{
closed = 1;
nodes = (
(63,-10,o),
(72,-4,o),
(75,5,cs),
(298,640,l),
(288,640,l),
(521,5,ls),
(524,-4,o),
(533,-10,o),
(543,-10,cs),
(561,-10,o),
(570,7,o),
(565,21,cs),
(315,695,ls),
(312,703,o),
(303,710,o),
(293,710,cs),
(283,710,o),
(274,703,o),
(271,695,cs),
(31,21,ls),
(26,7,o),
(35,-10,o),
(53,-10,cs)
);
}
);
width = 596;
}
);
},
{
glyphname = Aogonek;
lastChange = "2021-08-09 23:51:09 +0000";
layers = (
{
layerId = "65988B1E-DCE2-4AC3-A6FF-994A1050067D";
shapes = (
{
ref = A;
},
{
closed = 1;
nodes = (
(534,-113,o),
(525,-121,o),
(509,-121,cs),
(489,-121,o),
(485,-108,o),
(485,-101,cs),
(485,-59,o),
(618,-16,o),
(595,46,cs),
(592,54,l),
(506,54,l),
(517,21,ls),
(526,-7,o),
(415,-31,o),
(415,-109,cs),
(415,-160,o),
(460,-184,o),
(507,-185,cs),
(533,-186,o),
(567,-180,o),
(599,-146,cs),
(605,-139,o),
(609,-131,o),
(609,-121,cs),
(609,-101,o),
(595,-87,o),
(575,-87,cs),
(564,-87,o),
(555,-91,o),
(548,-98,cs)
);
}
);
width = 639;
},
{
layerId = "6242D68C-0A25-4F05-8F2A-2075F7C4A210";
width = 600;
},
{
layerId = "3D52442A-254C-4C79-B742-A98FD72DF947";
width = 600;
}
);
metricLeft = "=A";
metricRight = "=A";
unicode = 260;
},
{
glyphname = AE;
lastChange = "2021-08-09 03:08:10 +0000";
layers = (
{
anchors = (
{
name = bottom;
pos = (434,0);
},
{
name = top;
pos = (434,700);
}
);
background = {
shapes = (
{
closed = 1;
nodes = (
(68,-5,o),
(84,6,o),
(89,21,cs),
(305,620,l),
(284,620,l),
(499,21,ls),
(504,6,o),
(520,-5,o),
(537,-5,cs),
(559,-5,o),
(578,14,o),
(578,36,cs),
(578,44,o),
(577,46,o),
(575,52,cs),
(343,664,ls),
(331,695,o),
(313,710,o),
(294,710,cs),
(275,710,o),
(257,695,o),
(245,664,cs),
(13,52,ls),
(11,47,o),
(10,42,o),
(10,36,cs),
(10,14,o),
(29,-5,o),
(51,-5,cs)
);
},
{
closed = 1;
nodes = (
(468,249,l),
(468,323,l),
(114,323,l),
(114,249,l)
);
},
{
closed = 1;
nodes = (
(436,700,l),
(436,624,l),
(753,624,ls),
(774,624,o),
(791,641,o),
(791,662,cs),
(791,683,o),
(774,700,o),
(753,700,cs)
);
},
{
closed = 1;
nodes = (
(436,402,l),
(436,326,l),
(732,326,ls),
(753,326,o),
(770,343,o),
(770,364,cs),
(770,385,o),
(753,402,o),
(732,402,cs)
);
},
{
closed = 1;
nodes = (
(436,76,l),
(436,0,l),
(780,0,ls),
(801,0,o),
(818,17,o),
(818,38,cs),
(818,59,o),
(801,76,o),
(780,76,cs)
);
},
{
closed = 1;
nodes = (
(476,700,l),
(435,700,l),
(412,700,o),
(394,682,o),
(394,659,cs),
(394,41,ls),
(394,18,o),
(412,0,o),
(435,0,c),
(476,0,l)
);
},
{
closed = 1;
nodes = (
(1331,695,o),
(1313,710,o),
(1294,710,cs),
(1275,710,o),
(1257,695,o),
(1245,664,cs),
(1013,52,ls),
(1011,47,o),
(1010,42,o),
(1010,36,cs),
(1010,14,o),
(1029,-5,o),
(1051,-5,cs),
(1068,-5,o),
(1084,6,o),
(1089,21,cs),
(1305,620,l),
(1343,664,l)
);
},
{
closed = 1;
nodes = (
(1468,249,l),
(1468,323,l),
(1114,323,l),
(1114,249,l)
);
},
{
closed = 1;
nodes = (
(1436,700,l),
(1436,624,l),
(1753,624,ls),
(1774,624,o),
(1791,641,o),
(1791,662,cs),
(1791,683,o),
(1774,700,o),
(1753,700,cs)
);
},
{
closed = 1;
nodes = (
(1436,402,l),
(1436,326,l),
(1732,326,ls),
(1753,326,o),
(1770,343,o),
(1770,364,cs),
(1770,385,o),
(1753,402,o),
(1732,402,cs)
);
},
{
closed = 1;
nodes = (
(1436,76,l),
(1436,0,l),
(1780,0,ls),
(1801,0,o),
(1818,17,o),
(1818,38,cs),
(1818,59,o),
(1801,76,o),
(1780,76,cs)
);
},
{
closed = 1;
nodes = (
(1476,700,l),
(1435,700,l),
(1412,700,o),
(1394,682,o),
(1394,659,cs),
(1394,41,ls),
(1394,18,o),
(1412,0,o),
(1435,0,c),
(1476,0,l)
);
}
);
};
layerId = "65988B1E-DCE2-4AC3-A6FF-994A1050067D";
shapes = (
{
closed = 1;
nodes = (
(351,700,ls),
(332,700,o),
(316,686,o),
(302,654,cs),
(33,52,ls),
(31,47,o),
(30,42,o),
(30,36,cs),
(30,14,o),
(49,-5,o),
(71,-5,cs),
(88,-5,o),
(103,6,o),
(109,21,cs),
(368,616,ls),
(371,622,o),
(374,624,o),
(379,624,cs),
(733,624,ls),
(754,624,o),
(771,641,o),
(771,662,cs),
(771,683,o),
(754,700,o),
(733,700,cs)
);
},
{
closed = 1;
nodes = (
(468,209,l),
(468,283,l),
(174,283,l),
(174,209,l)
);
},
{
closed = 1;
nodes = (
(436,402,l),
(436,326,l),
(712,326,ls),
(733,326,o),
(750,343,o),
(750,364,cs),
(750,385,o),
(733,402,o),
(712,402,cs)
);
},
{
closed = 1;
nodes = (
(476,76,l),
(476,638,l),
(394,638,l),
(394,41,ls),
(394,18,o),
(412,0,o),
(435,0,cs),
(760,0,ls),
(781,0,o),
(798,17,o),
(798,38,cs),
(798,59,o),
(781,76,o),
(760,76,cs)
);
}
);
width = 858;
},
{
anchors = (
{
name = bottom;
pos = (300,0);
},
{
name = top;
pos = (300,700);
}
);
layerId = "6242D68C-0A25-4F05-8F2A-2075F7C4A210";
width = 600;
},
{
anchors = (
{
name = bottom;
pos = (300,0);
},
{
name = top;
pos = (300,700);
}
);
layerId = "3D52442A-254C-4C79-B742-A98FD72DF947";
width = 600;
}
);
metricLeft = "=A";
metricRight = "=E";
unicode = 198;
},
{
glyphname = B;
lastChange = "2021-08-08 22:11:55 +0000";
layers = (
{
anchors = (
{
name = bottom;
pos = (292,0);
},
{
name = center;
pos = (292,350);
},
{
name = top;
pos = (292,700);
}
);
background = {
shapes = (
{
attr = {
strokeWidth = 2;
};
closed = 0;
nodes = (
(122,665,l),
(122,42,l)
);
},
{
attr = {
strokeWidth = 2;
};
closed = 0;
nodes = (
(124,382,l),
(316,382,l)
);
},
{
attr = {
strokeWidth = 2;
};
closed = 0;
nodes = (
(112,42,l),
(351,42,ls),
(443,42,o),
(510,109,o),
(510,202,cs),
(510,315,o),
(440,381,o),
(319,382,c)
);
},
{
attr = {
strokeWidth = 2;
};
closed = 0;
nodes = (
(323,382,l),
(422,389,o),
(480,441,o),
(480,525,cs),
(480,612,o),
(427,663,o),
(332,663,cs),
(112,663,l)
);
}
);
};
layerId = "65988B1E-DCE2-4AC3-A6FF-994A1050067D";
shapes = (
{
closed = 1;
nodes = (
(358,0,ls),
(457,0,o),
(549,82,o),
(549,204,cs),
(549,295,o),
(498,368,o),
(415,393,c),
(414,370,l),
(483,405,o),
(519,461,o),
(519,529,cs),
(519,629,o),
(445,700,o),
(331,700,cs),
(121,700,ls),
(98,700,o),
(80,682,o),
(80,659,cs),
(80,41,ls),
(80,18,o),
(98,0,o),
(121,0,cs)
);
},
{
closed = 1;
nodes = (
(162,342,l),
(338,342,ls),
(415,342,o),
(467,289,o),
(467,212,cs),
(467,132,o),
(411,77,o),
(334,77,cs),
(162,77,l)
);
},
{
closed = 1;
nodes = (
(162,624,l),
(334,624,ls),
(397,624,o),
(438,583,o),
(438,519,cs),
(438,456,o),
(401,418,o),
(331,418,cs),
(162,418,l)
);
}
);
width = 609;
},
{
anchors = (
{
name = bottom;
pos = (344,0);
},
{
name = center;
pos = (344,350);
},
{
name = top;
pos = (344,700);
}
);
background = {
shapes = (
{
closed = 1;
nodes = (
(444,0,ls),
(571,0,o),
(682,90,o),
(682,216,cs),
(682,275,o),
(651,326,o),
(600,363,c),
(626,396,o),
(640,437,o),
(640,483,cs),
(640,623,o),
(540,700,o),
(403,700,cs),
(155,700,ls),
(108,700,o),
(70,661,o),
(70,615,cs),
(70,84,ls),
(70,38,o),
(108,0,o),
(155,0,cs)
);
},
{
closed = 1;
nodes = (
(240,529,l),
(402,529,ls),
(444,529,o),
(470,512,o),
(470,483,cs),
(470,449,o),
(446,428,o),
(406,428,cs),
(240,427,l)
);
},
{
closed = 1;
nodes = (
(240,278,l),
(448,278,ls),
(488,278,o),
(512,258,o),
(512,224,cs),
(512,190,o),
(488,170,o),
(449,170,cs),
(240,170,l)
);
},
{
attr = {
strokeWidth = 2;
};
closed = 0;
nodes = (
(155,696,l),
(155,0,l)
);
},
{
attr = {
strokeWidth = 2;
};
closed = 0;
nodes = (
(158,376,l),
(435,376,l)
);
},
{
attr = {
strokeWidth = 2;
};
closed = 0;
nodes = (
(155,0,l),
(428,0,ls),
(532,0,o),
(616,85,o),
(616,188,cs),
(616,291,o),
(534,374,o),
(432,376,c),
(516,378,o),
(584,447,o),
(584,532,cs),
(584,618,o),
(514,688,o),
(428,688,cs),
(155,688,l)
);
}
);
};
layerId = "6242D68C-0A25-4F05-8F2A-2075F7C4A210";
shapes = (
{
closed = 1;
nodes = (
(420,0,ls),
(558,0,o),
(648,85,o),
(648,216,cs),
(648,290,o),
(599,352,o),
(523,389,c),
(534,331,l),
(581,368,o),
(606,421,o),
(606,483,cs),
(606,614,o),
(516,700,o),
(379,700,cs),
(165,700,ls),
(118,700,o),
(80,661,o),
(80,615,cs),
(80,84,ls),
(80,38,o),
(118,0,o),
(165,0,cs)
);
},
{
closed = 1;
nodes = (
(236,298,l),
(414,298,ls),
(457,298,o),
(488,268,o),
(488,226,cs),
(488,182,o),
(457,150,o),
(415,150,cs),
(236,150,l)
);
},
{
closed = 1;
nodes = (
(236,560,l),
(368,560,ls),
(412,560,o),
(446,529,o),
(446,490,cs),
(446,440,o),
(414,418,o),
(372,418,cs),
(236,417,l)
);
}
);
width = 708;
},
{
associatedMasterId = "65988B1E-DCE2-4AC3-A6FF-994A1050067D";
background = {
shapes = (
{
attr = {
strokeWidth = 2;
};
closed = 0;
nodes = (
(121,696,l),
(121,0,l)
);
},
{
attr = {
strokeWidth = 2;
};
closed = 0;
nodes = (
(124,376,l),
(401,376,l)
);
},
{
attr = {
strokeWidth = 2;
};
closed = 0;
nodes = (
(121,0,l),
(394,0,ls),
(498,0,o),
(582,85,o),
(582,188,cs),
(582,291,o),
(500,374,o),
(398,376,c),
(482,378,o),
(550,447,o),
(550,532,cs),
(550,618,o),
(480,688,o),
(394,688,cs),
(121,688,l)
);
},
{
closed = 1;
nodes = (
(144,-10,o),
(162,8,o),
(162,31,cs),
(162,332,l),
(514,332,l),
(514,31,ls),
(514,8,o),
(532,-10,o),
(555,-10,cs),
(578,-10,o),
(596,8,o),
(596,31,cs),
(596,669,ls),
(596,692,o),
(578,710,o),
(555,710,cs),
(532,710,o),
(514,692,o),
(514,669,cs),
(514,408,l),
(162,408,l),
(162,669,ls),
(162,692,o),
(144,710,o),
(121,710,cs),
(98,710,o),
(80,692,o),
(80,669,cs),
(80,31,ls),
(80,8,o),
(98,-10,o),
(121,-10,cs)
);
}
);
};
layerId = "0051793E-74D6-4E6E-96B3-3FC0F2D83CCC";
name = "Original Skeleton";
shapes = (
{
attr = {
strokeWidth = 2;
};
closed = 0;
nodes = (
(101,696,l),
(101,0,l)
);
},
{
attr = {
strokeWidth = 2;
};
closed = 0;
nodes = (
(104,376,l),
(381,376,l)
);
},
{
attr = {
strokeWidth = 2;
};
closed = 0;
nodes = (
(101,0,l),
(374,0,ls),
(478,0,o),
(562,85,o),
(562,188,cs),
(562,291,o),
(480,374,o),
(378,376,c),
(462,378,o),
(530,447,o),
(530,532,cs),
(530,618,o),
(460,688,o),
(374,688,cs),
(101,688,l)
);
}
);
width = 583;
},
{
anchors = (
{
name = bottom;
pos = (272,0);
},
{
name = center;
pos = (285,350);
},
{
name = top;
pos = (264,700);
}
);
background = {
shapes = (
{
attr = {
strokeWidth = 2;
};
closed = 0;
nodes = (
(106,679,l),
(106,23,l)
);
},
{
attr = {
strokeWidth = 2;
};
closed = 0;
nodes = (
(108,382,l),
(309,382,l)
);
},
{
attr = {
strokeWidth = 2;
};
closed = 0;
nodes = (
(95,23,l),
(347,23,ls),
(445,23,o),
(515,94,o),
(515,193,cs),
(515,312,o),
(441,381,o),
(312,382,c)
);
},
{
attr = {
strokeWidth = 2;
};
closed = 0;
nodes = (
(317,382,l),
(421,389,o),
(482,443,o),
(482,532,cs),
(482,623,o),
(426,677,o),
(327,677,cs),
(95,677,l)
);
}
);
};
layerId = "3D52442A-254C-4C79-B742-A98FD72DF947";
shapes = (
{
closed = 1;
nodes = (
(344,0,ls),
(458,0,o),
(535,77,o),
(535,193,cs),
(535,282,o),
(487,350,o),
(403,379,c),
(403,368,l),
(465,396,o),
(502,448,o),
(502,526,cs),
(502,627,o),
(427,700,o),
(324,700,cs),
(103,700,ls),
(90,700,o),
(80,690,o),
(80,677,cs),
(80,23,ls),
(80,10,o),
(90,0,o),
(103,0,cs)
);
},
{
closed = 1;
nodes = (
(126,349,l),
(310,349,ls),
(430,349,o),
(489,286,o),
(489,193,cs),
(489,103,o),
(432,45,o),
(344,45,cs),
(126,45,l)
);
},
{
closed = 1;
nodes = (
(126,655,l),
(324,655,ls),
(406,655,o),
(456,600,o),
(456,526,cs),
(456,448,o),
(411,394,o),
(328,394,cs),
(126,394,l)
);
}
);
width = 595;
}
);
unicode = 66;
},
{
glyphname = B.ss02;
lastChange = "2021-08-10 20:42:57 +0000";
layers = (
{
background = {
shapes = (
{
closed = 0;
nodes = (
(162,0,l),
(162,698,l)
);
},
{
closed = 1;
nodes = (
(364,624,ls),
(427,624,o),
(468,584,o),
(468,522,cs),
(468,459,o),
(423,418,o),
(354,418,cs),
(133,418,l),
(133,342,l),
(368,342,ls),
(445,342,o),
(497,288,o),
(497,209,cs),
(497,128,o),
(446,76,o),
(364,76,cs),
(131,76,l),
(131,0,l),
(383,0,ls),
(499,0,o),
(578,95,o),
(578,209,cs),
(578,282,o),
(536,354,o),
(468,384,c),
(515,415,o),
(549,466,o),
(549,522,cs),
(549,622,o),
(470,700,o),
(369,700,cs),
(131,700,l),
(131,624,l)
);
},
{
closed = 1;
nodes = (
(121,700,ls),
(98,701,o),
(80,682,o),
(80,659,cs),
(80,41,ls),
(80,18,o),
(98,0,o),
(121,0,cs),
(162,0,l),
(162,698,l)
);
}
);
};
layerId = "65988B1E-DCE2-4AC3-A6FF-994A1050067D";
shapes = (
{
closed = 1;
nodes = (
(383,0,ls),
(499,0,o),
(578,95,o),
(578,209,cs),
(578,290,o),
(526,370,o),
(445,392,c),
(447,372,l),
(504,400,o),
(549,458,o),
(549,522,cs),
(549,622,o),
(470,700,o),
(369,700,cs),
(121,700,ls),
(98,701,o),
(80,682,o),
(80,659,cs),
(80,41,ls),
(80,18,o),
(98,0,o),
(121,0,cs)
);
},
{
closed = 1;
nodes = (
(162,342,l),
(368,342,ls),
(445,342,o),
(497,288,o),
(497,209,cs),
(497,128,o),
(446,76,o),
(364,76,cs),
(162,76,l)
);
},
{
closed = 1;
nodes = (
(162,624,l),
(364,624,ls),
(427,624,o),
(468,584,o),
(468,522,cs),
(468,459,o),
(423,418,o),
(354,418,cs),
(162,418,l)
);
}
);
width = 608;
},
{
background = {
shapes = (
{
closed = 1;
nodes = (
(344,0,ls),
(458,0,o),
(535,77,o),
(535,193,cs),
(535,282,o),
(487,350,o),
(403,379,c),
(403,368,l),
(465,396,o),
(502,448,o),
(502,526,cs),
(502,627,o),
(427,700,o),
(324,700,cs),
(103,700,ls),
(90,700,o),
(80,690,o),
(80,677,cs),
(80,23,ls),
(80,10,o),
(90,0,o),
(103,0,cs)
);
},
{
closed = 1;
nodes = (
(126,349,l),
(310,349,ls),
(430,349,o),
(489,286,o),
(489,193,cs),
(489,103,o),
(432,45,o),
(344,45,cs),
(126,45,l)
);
},
{
closed = 1;
nodes = (
(126,655,l),
(324,655,ls),
(406,655,o),
(456,600,o),
(456,526,cs),
(456,448,o),
(411,394,o),
(328,394,cs),
(126,394,l)
);
}
);
};
layerId = "6242D68C-0A25-4F05-8F2A-2075F7C4A210";
shapes = (
{
closed = 1;
nodes = (
(380,0,ls),
(518,0,o),
(608,85,o),
(608,216,cs),
(608,290,o),
(559,352,o),
(483,389,c),
(494,331,l),
(541,368,o),
(566,421,o),
(566,483,cs),
(566,614,o),
(476,700,o),
(339,700,cs),
(165,700,ls),
(118,700,o),
(80,661,o),
(80,615,cs),
(80,84,ls),
(80,38,o),
(118,0,o),
(165,0,cs)
);
},
{
closed = 1;
nodes = (
(236,298,l),
(374,298,ls),
(417,298,o),
(448,268,o),
(448,226,cs),
(448,182,o),
(417,150,o),
(375,150,cs),
(236,150,l)
);
},
{
closed = 1;
nodes = (
(236,560,l),
(328,560,ls),
(372,560,o),
(406,529,o),
(406,490,cs),
(406,440,o),
(374,418,o),
(332,418,cs),
(236,417,l)
);
}
);
width = 638;
},
{
layerId = "3D52442A-254C-4C79-B742-A98FD72DF947";
shapes = (
{
closed = 1;
nodes = (
(344,0,ls),
(458,0,o),
(535,77,o),
(535,193,cs),
(535,282,o),
(487,350,o),
(403,379,c),
(403,368,l),
(465,396,o),
(502,448,o),
(502,526,cs),
(502,627,o),
(427,700,o),
(324,700,cs),
(103,700,ls),
(90,700,o),
(80,690,o),
(80,677,cs),
(80,23,ls),
(80,10,o),
(90,0,o),
(103,0,cs)
);
},
{
closed = 1;
nodes = (
(126,349,l),
(310,349,ls),
(430,349,o),
(489,286,o),
(489,193,cs),
(489,103,o),
(432,45,o),
(344,45,cs),
(126,45,l)
);
},
{
closed = 1;
nodes = (
(126,655,l),
(324,655,ls),
(406,655,o),
(456,600,o),
(456,526,cs),
(456,448,o),
(411,394,o),
(328,394,cs),
(126,394,l)
);
}
);
width = 600;
}
);
},
{
glyphname = C;
lastChange = "2021-08-10 20:03:55 +0000";
layers = (
{
anchors = (
{
name = bottom;
pos = (333,0);
},
{
name = top;
pos = (331,700);
}
);
background = {
shapes = (
{
attr = {
strokeWidth = 2;
};
closed = 0;
nodes = (
(528,513,l),
(528,513,o),
(506,680,o),
(338,680,cs),
(206,680,o),
(100,547,o),
(100,368,cs),
(100,153,o),
(198,28,o),
(340,28,cs),
(524,28,o),
(537,233,o),
(537,233,c)
);
},
{
closed = 1;
nodes = (
(448,-15,o),
(539,63,o),
(566,180,cs),
(573,213,o),
(557,237,o),
(532,237,cs),
(512,237,o),
(498,229,o),
(492,201,cs),
(473,115,o),
(418,60,o),
(340,60,cs),
(221,60,o),
(142,176,o),
(142,350,cs),
(142,523,o),
(222,640,o),
(336,640,cs),
(412,640,o),
(458,591,o),
(470,543,cs),
(476,521,o),
(490,510,o),
(510,510,cs),
(535,510,o),
(551,528,o),
(551,549,cs),
(551,633,o),
(430,715,o),
(331,715,cs),
(168,715,o),
(60,574,o),
(60,348,cs),
(60,131,o),
(167,-15,o),
(333,-15,cs)
);
}
);
};
layerId = "65988B1E-DCE2-4AC3-A6FF-994A1050067D";
shapes = (
{
closed = 1;
nodes = (
(454,-15,o),
(533,50,o),
(563,183,cs),
(570,213,o),
(554,238,o),
(526,238,cs),
(509,238,o),
(493,229,o),
(488,201,cs),
(472,115,o),
(414,60,o),
(333,60,cs),
(217,60,o),
(142,176,o),
(142,350,cs),
(142,523,o),
(224,640,o),
(337,640,cs),
(411,640,o),
(458,587,o),
(475,544,cs),
(484,521,o),
(498,510,o),
(517,510,cs),
(542,510,o),
(559,528,o),
(553,563,cs),
(543,621,o),
(470,715,o),
(337,715,cs),
(170,715,o),
(60,574,o),
(60,348,cs),
(60,131,o),
(163,-15,o),
(333,-15,cs)
);
}
);
width = 613;
},
{
anchors = (
{
name = bottom;
pos = (373,0);
},
{
name = top;
pos = (370,700);
}
);
background = {
shapes = (
{
attr = {
lineCapEnd = "2";
lineCapStart = "2";
strokeWidth = 2;
};
closed = 0;
nodes = (
(562,243,l),
(562,117,o),
(459,62,o),
(373,62,cs),
(220,62,o),
(145,191,o),
(145,347,cs),
(145,503,o),
(206,634,o),
(370,634,cs),
(479,634,o),
(543,565,o),
(543,491,c)
);
},
{
closed = 1;
nodes = (
(562,-14,o),
(701,136,o),
(701,351,cs),
(701,566,o),
(567,715,o),
(375,715,cs),
(183,715,o),
(39,566,o),
(39,351,cs),
(39,136,o),
(178,-14,o),
(370,-14,cs)
);
},
{
closed = 1;
nodes = (
(264,126,o),
(202,220,o),
(202,351,cs),
(202,482,o),
(264,575,o),
(370,575,cs),
(476,575,o),
(538,482,o),
(538,351,cs),
(538,220,o),
(476,126,o),
(370,126,cs)
);
},
{
closed = 1;
nodes = (
(495,-14,o),
(580,42,o),
(630,122,c),
(630,325,ls),
(630,370,o),
(606,395,o),
(561,396,cs),
(464,398,ls),
(420,399,o),
(376,369,o),
(376,326,cs),
(376,287,o),
(413,258,o),
(459,254,cs),
(471,253,l),
(471,164,l),
(447,142,o),
(414,127,o),
(372,127,cs),
(270,127,o),
(197,216,o),
(197,356,cs),
(197,507,o),
(268,577,o),
(366,577,cs),
(425,577,o),
(448,548,o),
(459,524,cs),
(471,499,o),
(496,482,o),
(526,482,cs),
(566,482,o),
(599,514,o),
(599,555,cs),
(599,648,o),
(493,716,o),
(357,716,cs),
(171,716,o),
(40,580,o),
(40,361,cs),
(40,131,o),
(177,-14,o),
(371,-14,cs)
);
}
);
};
layerId = "6242D68C-0A25-4F05-8F2A-2075F7C4A210";
shapes = (
{
closed = 1;
nodes = (
(524,-15,o),
(628,102,o),
(628,178,cs),
(628,219,o),
(595,252,o),
(554,252,cs),
(521,252,o),
(493,230,o),
(483,200,cs),
(469,153,o),
(434,125,o),
(376,125,cs),
(276,125,o),
(220,207,o),
(220,362,cs),
(220,486,o),
(268,577,o),
(364,575,cs),
(427,574,o),
(451,547,o),
(462,523,cs),
(474,498,o),
(499,481,o),
(529,481,cs),
(569,481,o),
(602,513,o),
(602,554,cs),
(602,647,o),
(505,715,o),
(377,715,cs),
(188,715,o),
(60,560,o),
(60,347,cs),
(60,137,o),
(182,-15,o),
(373,-15,cs)
);
}
);
width = 673;
},
{
anchors = (
{
name = bottom;
pos = (341,0);
},
{
name = top;
pos = (331,700);
}
);
associatedMasterId = "65988B1E-DCE2-4AC3-A6FF-994A1050067D";
background = {
shapes = (
{
closed = 1;
nodes = (
(554,179,o),
(478,58,o),
(346,58,cs),
(215,58,o),
(139,179,o),
(139,350,cs),
(139,521,o),
(215,643,o),
(346,643,cs),
(478,643,o),
(554,521,o),
(554,350,cs)
);
},
{
closed = 1;
nodes = (
(631,571,o),
(528,715,o),
(346,715,cs),
(175,715,o),
(57,571,o),
(57,350,cs),
(57,130,o),
(165,-14,o),
(346,-14,cs),
(528,-14,o),
(631,130,o),
(631,350,cs)
);
},
{
closed = 1;
nodes = (
(573,216,o),
(554,237,o),
(529,237,cs),
(509,237,o),
(495,222,o),
(491,203,cs),
(473,121,o),
(409,62,o),
(340,62,cs),
(214,62,o),
(141,168,o),
(141,350,cs),
(141,534,o),
(214,640,o),
(338,640,cs),
(407,640,o),
(462,593,o),
(476,541,cs),
(480,523,o),
(496,510,o),
(515,510,cs),
(537,510,o),
(556,529,o),
(556,551,cs),
(556,555,o),
(555,559,o),
(554,563,cs),
(528,648,o),
(437,715,o),
(338,715,cs),
(162,715,o),
(59,581,o),
(59,350,cs),
(59,120,o),
(162,-13,o),
(332,-13,cs),
(445,-13,o),
(540,75,o),
(565,180,c)
);
},
{
closed = 1;
nodes = (
(573,216,o),
(554,237,o),
(529,237,cs),
(509,237,o),
(495,222,o),
(491,203,cs),
(473,121,o),
(409,62,o),
(340,62,cs),
(214,62,o),
(141,168,o),
(141,350,cs),
(141,534,o),
(214,640,o),
(338,640,cs),
(407,640,o),
(462,593,o),
(476,541,cs),
(480,523,o),
(496,510,o),
(515,510,cs),
(537,510,o),
(556,529,o),
(556,551,cs),
(556,555,o),
(555,559,o),
(554,563,cs),
(528,648,o),
(437,715,o),
(338,715,cs),
(162,715,o),
(59,581,o),
(59,350,cs),
(59,120,o),
(162,-13,o),
(332,-13,cs),
(445,-13,o),
(540,75,o),
(565,180,c)
);
},
{
closed = 1;
nodes = (
(573,216,o),
(554,237,o),
(529,237,cs),
(509,237,o),
(495,222,o),
(491,203,cs),
(473,121,o),
(409,62,o),
(340,62,cs),
(214,62,o),
(141,168,o),
(141,350,cs),
(141,534,o),
(214,640,o),
(338,640,cs),
(407,640,o),
(462,593,o),
(476,541,cs),
(480,523,o),
(496,510,o),
(515,510,cs),
(537,510,o),
(556,529,o),
(556,551,cs),
(556,555,o),
(555,559,o),
(554,563,cs),
(528,648,o),
(437,715,o),
(338,715,cs),
(162,715,o),
(59,581,o),
(59,350,cs),
(59,120,o),
(162,-13,o),
(332,-13,cs),
(445,-13,o),
(540,75,o),
(565,180,c)
);
}
);
};
layerId = "E50927C1-70C4-4F90-A1B6-5BCAC655974E";
name = "Original Skeleton";
shapes = (
{
attr = {
strokeWidth = 2;
};
closed = 0;
nodes = (
(535,218,l),
(512,61,o),
(411,-7,o),
(315,-7,cs),
(144,-7,o),
(61,153,o),
(61,346,cs),
(61,539,o),
(129,701,o),
(312,701,cs),
(420,701,o),
(514,616,o),
(514,525,c)
);
}
);
width = 622;
},
{
anchors = (
{
name = bottom;
pos = (327,0);
},
{
name = top;
pos = (328,700);
}
);
background = {
shapes = (
{
attr = {
strokeWidth = 2;
};
closed = 0;
nodes = (
(514,516,l),
(514,516,o),
(483,691,o),
(320,691,cs),
(195,691,o),
(83,552,o),
(83,364,cs),
(83,138,o),
(185,8,o),
(328,8,cs),
(519,8,o),
(532,222,o),
(532,222,c)
);
}
);
};
layerId = "3D52442A-254C-4C79-B742-A98FD72DF947";
shapes = (
{
closed = 1;
nodes = (
(447,-15,o),
(529,63,o),
(552,198,cs),
(554,211,o),
(544,224,o),
(529,224,cs),
(518,224,o),
(508,216,o),
(507,205,cs),
(489,94,o),
(423,29,o),
(328,29,cs),
(199,29,o),
(106,162,o),
(106,344,cs),
(106,533,o),
(199,672,o),
(328,672,cs),
(402,672,o),
(461,619,o),
(487,530,cs),
(490,520,o),
(498,513,o),
(509,513,cs),
(524,513,o),
(535,528,o),
(531,543,cs),
(498,651,o),
(423,716,o),
(328,716,cs),
(173,716,o),
(60,557,o),
(60,340,cs),
(60,134,o),
(173,-15,o),
(328,-15,cs)
);
}
);
width = 607;
}
);
unicode = 67;
},
{
glyphname = C.ss02;
lastChange = "2021-08-10 20:07:59 +0000";
layers = (
{
layerId = "65988B1E-DCE2-4AC3-A6FF-994A1050067D";
shapes = (
{
closed = 1;
nodes = (
(574,622,o),
(487,716,o),
(346,716,cs),
(173,716,o),
(60,557,o),
(60,350,cs),
(60,138,o),
(176,-14,o),
(346,-14,cs),
(475,-14,o),
(586,80,o),
(599,224,cs),
(601,247,o),
(584,270,o),
(559,270,cs),
(539,270,o),
(523,255,o),
(521,236,cs),
(511,146,o),
(442,63,o),
(356,63,cs),
(234,63,o),
(143,170,o),
(143,350,cs),
(143,518,o),
(228,640,o),
(346,640,cs),
(432,640,o),
(492,584,o),
(507,512,cs),
(512,490,o),
(526,472,o),
(548,472,cs),
(570,472,o),
(591,490,o),
(587,519,cs)
);
}
);
width = 654;
},
{
layerId = "6242D68C-0A25-4F05-8F2A-2075F7C4A210";
width = 600;
},
{
layerId = "3D52442A-254C-4C79-B742-A98FD72DF947";
width = 600;
}
);
},
{
glyphname = D;
lastChange = "2021-08-05 13:40:32 +0000";
layers = (
{
anchors = (
{
name = bottom;
pos = (304,0);
},
{
name = center;
pos = (324,350);
},
{
name = top;
pos = (304,700);
}
);
background = {
shapes = (
{
closed = 1;
nodes = (
(162,664,ls),
(162,687,o),
(144,705,o),
(121,705,cs),
(98,705,o),
(80,687,o),
(80,664,cs),
(80,36,ls),
(80,13,o),
(98,-5,o),
(121,-5,cs),
(144,-5,o),
(162,13,o),
(162,36,cs)
);
},
{
closed = 1;
nodes = (
(586,664,ls),
(586,687,o),
(568,705,o),
(545,705,cs),
(522,705,o),
(504,687,o),
(504,664,cs),
(504,36,ls),
(504,13,o),
(522,-5,o),
(545,-5,cs),
(568,-5,o),
(586,13,o),
(586,36,cs)
);
},
{
closed = 1;
nodes = (
(121,408,l),
(121,332,l),
(545,332,l),
(545,408,l)
);
},
{
attr = {
strokeWidth = 2;
};
closed = 0;
nodes = (
(121,665,l),
(121,31,l)
);
},
{
attr = {
strokeWidth = 2;
};
closed = 0;
nodes = (
(131,659,l),
(313,659,ls),
(468,659,o),
(545,516,o),
(545,345,cs),
(545,173,o),
(467,31,o),
(293,31,cs),
(131,31,l)
);
}
);
};
layerId = "65988B1E-DCE2-4AC3-A6FF-994A1050067D";
shapes = (
{
closed = 1;
nodes = (
(296,0,ls),
(482,0,o),
(587,124,o),
(587,354,cs),
(587,540,o),
(497,700,o),
(313,700,cs),
(151,700,l),
(151,624,l),
(313,624,ls),
(444,624,o),
(505,507,o),
(505,354,cs),
(505,166,o),
(438,76,o),
(293,76,cs),
(151,76,l),
(151,0,l)
);
},
{
closed = 1;
nodes = (
(162,0,l),
(162,700,l),
(121,700,ls),
(98,700,o),
(80,682,o),
(80,659,cs),
(80,41,ls),
(80,18,o),
(98,0,o),
(121,0,cs)
);
}
);
width = 647;
},
{
anchors = (
{
name = bottom;
pos = (290,0);
},
{
name = center;
pos = (309,350);
},
{
name = top;
pos = (309,700);
}
);
background = {
shapes = (
{
attr = {
strokeWidth = 2;
};
closed = 0;
nodes = (
(158,624,l),
(158,72,l)
);
},
{
attr = {
strokeWidth = 2;
};
closed = 0;
nodes = (
(166,619,l),
(325,619,ls),
(459,619,o),
(526,494,o),
(526,345,cs),
(526,196,o),
(459,72,o),
(307,72,cs),
(166,72,l)
);
},
{
closed = 1;
nodes = (
(484,-14,o),
(620,136,o),
(620,351,cs),
(620,566,o),
(489,715,o),
(297,715,cs),
(105,715,o),
(-36,566,o),
(-36,351,cs),
(-36,136,o),
(100,-14,o),
(292,-14,cs)
);
},
{
closed = 1;
nodes = (
(186,126,o),
(124,220,o),
(124,351,cs),
(124,482,o),
(186,575,o),
(292,575,cs),
(398,575,o),
(460,482,o),
(460,351,cs),
(460,220,o),
(398,126,o),
(292,126,cs)
);
}
);
};
layerId = "6242D68C-0A25-4F05-8F2A-2075F7C4A210";
shapes = (
{
closed = 1;
nodes = (
(323,0,ls),
(506,0,o),
(622,145,o),
(622,345,cs),
(622,551,o),
(514,700,o),
(342,700,cs),
(210,700,l),
(210,550,l),
(334,550,ls),
(415,550,o),
(462,475,o),
(462,345,cs),
(462,232,o),
(413,150,o),
(323,150,cs),
(210,150,l),
(210,0,l)
);
},
{
closed = 1;
nodes = (
(236,0,l),
(236,700,l),
(158,700,ls),
(115,700,o),
(80,665,o),
(80,622,cs),
(80,78,ls),
(80,35,o),
(115,0,o),
(158,0,cs)
);
}
);
width = 682;
},
{
anchors = (
{
name = bottom;
pos = (284,0);
},
{
name = center;
pos = (284,350);
},
{
name = top;
pos = (284,700);
}
);
associatedMasterId = "65988B1E-DCE2-4AC3-A6FF-994A1050067D";
background = {
shapes = (
{
closed = 1;
nodes = (
(162,664,ls),
(162,687,o),
(144,705,o),
(121,705,cs),
(98,705,o),
(80,687,o),
(80,664,cs),
(80,36,ls),
(80,13,o),
(98,-5,o),
(121,-5,cs),
(144,-5,o),
(162,13,o),
(162,36,cs)
);
},
{
closed = 1;
nodes = (
(586,664,ls),
(586,687,o),
(568,705,o),
(545,705,cs),
(522,705,o),
(504,687,o),
(504,664,cs),
(504,36,ls),
(504,13,o),
(522,-5,o),
(545,-5,cs),
(568,-5,o),
(586,13,o),
(586,36,cs)
);
},
{
closed = 1;
nodes = (
(121,408,l),
(121,332,l),
(545,332,l),
(545,408,l)
);
}
);
};
layerId = "1996806A-A5F2-424C-A042-ACA4E2FCE14A";
name = "Original Skeleton";
shapes = (
{
attr = {
strokeWidth = 2;
};
closed = 0;
nodes = (
(101,696,l),
(101,0,l)
);
},
{
attr = {
strokeWidth = 2;
};
closed = 0;
nodes = (
(101,690,l),
(300,690,ls),
(471,690,o),
(555,533,o),
(555,345,cs),
(555,156,o),
(470,0,o),
(278,0,cs),
(101,0,l)
);
}
);
width = 647;
},
{
anchors = (
{
name = bottom;
pos = (287,0);
},
{
name = center;
pos = (305,362);
},
{
name = top;
pos = (287,700);
}
);
background = {
shapes = (
{
attr = {
strokeWidth = 2;
};
closed = 0;
nodes = (
(103,683,l),
(103,23,l),
(291,23,ls),
(472,23,o),
(553,170,o),
(553,350,cs),
(553,527,o),
(473,677,o),
(313,677,cs),
(123,677,l)
);
}
);
};
layerId = "3D52442A-254C-4C79-B742-A98FD72DF947";
shapes = (
{
closed = 1;
nodes = (
(291,0,ls),
(472,0,o),
(577,129,o),
(577,350,cs),
(577,553,o),
(468,700,o),
(301,700,cs),
(114,700,l),
(114,655,l),
(301,655,ls),
(441,655,o),
(531,526,o),
(531,350,cs),
(531,175,o),
(460,46,o),
(291,46,cs),
(115,46,l),
(115,0,l)
);
},
{
closed = 1;
nodes = (
(126,0,l),
(126,700,l),
(103,700,ls),
(90,700,o),
(80,690,o),
(80,677,cs),
(80,23,ls),
(80,10,o),
(90,0,o),
(103,0,cs)
);
}
);
width = 627;
}
);
unicode = 68;
},
{
glyphname = Eth;
lastChange = "2021-08-09 07:49:07 +0000";
layers = (
{
layerId = "65988B1E-DCE2-4AC3-A6FF-994A1050067D";
shapes = (
{
attr = {
lineCapEnd = 2;
lineCapStart = 2;
strokeHeight = 78;
strokeWidth = 78;
};
closed = 0;
nodes = (
(34,370,l),
(369,370,l)
);
},
{
pos = (51,0);
ref = D;
}
);
width = 698;
},
{
layerId = "6242D68C-0A25-4F05-8F2A-2075F7C4A210";
width = 600;
},
{
layerId = "3D52442A-254C-4C79-B742-A98FD72DF947";
shapes = (
{
ref = D;
},
{
ref = strokeshortcomb;
}
);
width = 627;
}
);
unicode = 208;
},
{
glyphname = E;
lastChange = "2021-08-07 20:13:55 +0000";
layers = (
{
anchors = (
{
name = bottom;
pos = (282,0);
},
{
name = ogonek;
pos = (424,0);
},
{
name = top;
pos = (282,700);
},
{
name = topleft;
pos = (20,700);
}
);
background = {
shapes = (
{
attr = {
strokeWidth = 2;
};
closed = 0;
nodes = (
(502,40,l),
(120,40,l),
(123,663,l),
(476,663,l)
);
},
{
attr = {
strokeWidth = 2;
};
closed = 0;
nodes = (
(123,366,l),
(453,366,l)
);
}
);
};
guides = (
{
pos = (439,0);
}
);
layerId = "65988B1E-DCE2-4AC3-A6FF-994A1050067D";
shapes = (
{
closed = 1;
nodes = (
(162,0,l),
(162,700,l),
(121,700,ls),
(98,700,o),
(80,682,o),
(80,659,cs),
(80,41,ls),
(80,18,o),
(98,0,o),
(121,0,cs)
);
},
{
closed = 1;
nodes = (
(439,624,ls),
(460,624,o),
(477,641,o),
(477,662,cs),
(477,683,o),
(460,700,o),
(439,700,cs),
(122,700,l),
(122,624,l)
);
},
{
closed = 1;
nodes = (
(418,326,ls),
(439,326,o),
(456,343,o),
(456,364,cs),
(456,385,o),
(439,402,o),
(418,402,cs),
(122,402,l),
(122,326,l)
);
},
{
closed = 1;
nodes = (
(473,0,ls),
(494,0,o),
(504,17,o),
(504,38,cs),
(504,59,o),
(487,76,o),
(466,76,cs),
(129,76,l),
(129,0,l)
);
}
);
width = 564;
},
{
anchors = (
{
name = bottom;
pos = (314,0);
},
{
name = ogonek;
pos = (392,0);
},
{
name = top;
pos = (300,700);
},
{
name = topleft;
pos = (20,700);
}
);
background = {
shapes = (
{
attr = {
strokeWidth = 2;
};
closed = 0;
nodes = (
(522,80,l),
(140,80,l)
);
},
{
attr = {
strokeWidth = 2;
};
closed = 0;
nodes = (
(123,366,l),
(453,366,l)
);
},
{
attr = {
strokeWidth = 2;
};
closed = 0;
nodes = (
(128,623,l),
(481,623,l)
);
},
{
closed = 0;
nodes = (
(160,40,l),
(163,663,l)
);
},
{
closed = 1;
nodes = (
(204,-8,o),
(240,28,o),
(240,72,cs),
(240,628,ls),
(240,672,o),
(204,708,o),
(160,708,cs),
(116,708,o),
(80,672,o),
(80,628,cs),
(80,72,ls),
(80,28,o),
(116,-8,o),
(160,-8,cs)
);
},
{
closed = 1;
nodes = (
(674,628,ls),
(674,672,o),
(638,708,o),
(594,708,cs),
(550,708,o),
(514,672,o),
(514,628,cs),
(514,72,ls),
(514,28,o),
(550,-8,o),
(594,-8,cs),
(638,-8,o),
(674,28,o),
(674,72,cs)
);
},
{
closed = 1;
nodes = (
(188,431,l),
(188,281,l),
(605,281,l),
(605,431,l)
);
}
);
};
layerId = "6242D68C-0A25-4F05-8F2A-2075F7C4A210";
shapes = (
{
closed = 1;
nodes = (
(236,0,l),
(236,700,l),
(158,700,ls),
(115,700,o),
(80,665,o),
(80,622,cs),
(80,77,ls),
(80,34,o),
(115,-2,o),
(158,-1,cs)
);
},
{
closed = 1;
nodes = (
(481,560,ls),
(520,560,o),
(551,591,o),
(551,630,cs),
(551,669,o),
(520,700,o),
(481,700,cs),
(183,700,l),
(183,560,l)
);
},
{
closed = 1;
nodes = (
(463,286,ls),
(502,286,o),
(533,317,o),
(533,356,cs),
(533,395,o),
(502,426,o),
(463,426,cs),
(188,426,l),
(188,286,l)
);
},
{
closed = 1;
nodes = (
(512,0,ls),
(551,0,o),
(582,31,o),
(582,70,cs),
(582,109,o),
(551,140,o),
(512,140,cs),
(195,140,l),
(195,0,l)
);
}
);
width = 627;
},
{
anchors = (
{
name = bottom;
pos = (282,0);
},
{
name = ogonek;
pos = (505,56);
},
{
name = top;
pos = (282,700);
},
{
name = topleft;
pos = (20,700);
}
);
associatedMasterId = "65988B1E-DCE2-4AC3-A6FF-994A1050067D";
layerId = "809ED9A0-A97A-4F6B-ABDD-1F4CA130B89A";
name = "Original Skeleton";
shapes = (
{
attr = {
strokeWidth = 2;
};
closed = 0;
nodes = (
(101,696,l),
(101,0,l),
(561,0,l)
);
},
{
attr = {
strokeWidth = 2;
};
closed = 0;
nodes = (
(104,690,l),
(521,690,l)
);
},
{
attr = {
strokeWidth = 2;
};
closed = 0;
nodes = (
(104,366,l),
(411,366,l)
);
}
);
width = 564;
},
{
anchors = (
{
name = bottom;
pos = (273,0);
},
{
name = ogonek;
pos = (427,0);
},
{
name = top;
pos = (273,700);
},
{
name = topleft;
pos = (18,700);
}
);
background = {
shapes = (
{
attr = {
strokeWidth = 2;
};
closed = 0;
nodes = (
(481,24,l),
(125,24,l),
(128,675,l),
(453,675,l)
);
},
{
attr = {
strokeWidth = 2;
};
closed = 0;
nodes = (
(128,367,l),
(443,367,l)
);
},
{
closed = 1;
nodes = (
(127,700,l),
(127,624,l),
(444,624,ls),
(465,624,o),
(482,641,o),
(482,662,cs),
(482,683,o),
(465,700,o),
(444,700,cs)
);
},
{
closed = 1;
nodes = (
(127,402,l),
(127,326,l),
(423,326,ls),
(444,326,o),
(461,343,o),
(461,364,cs),
(461,385,o),
(444,402,o),
(423,402,cs)
);
},
{
closed = 1;
nodes = (
(127,76,l),
(127,0,l),
(471,0,ls),
(492,0,o),
(509,17,o),
(509,38,cs),
(509,59,o),
(492,76,o),
(471,76,cs)
);
},
{
closed = 1;
nodes = (
(167,700,l),
(126,700,l),
(103,700,o),
(85,682,o),
(85,659,cs),
(85,41,ls),
(85,18,o),
(103,0,o),
(126,0,c),
(167,0,l)
);
}
);
};
layerId = "3D52442A-254C-4C79-B742-A98FD72DF947";
shapes = (
{
closed = 1;
nodes = (
(126,0,l),
(126,700,l),
(103,700,ls),
(90,700,o),
(80,690,o),
(80,677,cs),
(80,23,ls),
(80,10,o),
(90,0,o),
(103,0,cs)
);
},
{
closed = 1;
nodes = (
(430,654,ls),
(443,654,o),
(453,664,o),
(453,677,cs),
(453,690,o),
(443,700,o),
(430,700,cs),
(106,700,l),
(106,654,l)
);
},
{
closed = 1;
nodes = (
(420,344,ls),
(433,344,o),
(443,354,o),
(443,367,cs),
(443,380,o),
(433,390,o),
(420,390,cs),
(105,390,l),
(105,344,l)
);
},
{
closed = 1;
nodes = (
(458,0,ls),
(471,0,o),
(481,10,o),
(481,23,cs),
(481,36,o),
(471,46,o),
(458,46,cs),
(111,46,l),
(111,0,l)
);
}
);
width = 541;
}
);
metricLeft = "=H";
unicode = 69;
},
{
glyphname = E.ss02;
lastChange = "2021-08-09 05:08:14 +0000";
layers = (
{
background = {
shapes = (
{
closed = 1;
nodes = (
(162,664,ls),
(162,687,o),
(144,705,o),
(121,705,cs),
(98,705,o),
(80,687,o),
(80,664,cs),
(80,36,ls),
(80,13,o),
(98,-5,o),
(121,-5,cs),
(144,-5,o),
(162,13,o),
(162,36,cs)
);
},
{
closed = 1;
nodes = (
(586,664,ls),
(586,687,o),
(568,705,o),
(545,705,cs),
(522,705,o),
(504,687,o),
(504,664,cs),
(504,36,ls),
(504,13,o),
(522,-5,o),
(545,-5,cs),
(568,-5,o),
(586,13,o),
(586,36,cs)
);
},
{
closed = 1;
nodes = (
(121,408,l),
(121,332,l),
(545,332,l),
(545,408,l)
);
}
);
};
layerId = "65988B1E-DCE2-4AC3-A6FF-994A1050067D";
shapes = (
{
closed = 1;
nodes = (
(122,700,l),
(122,624,l),
(502,624,ls),
(523,624,o),
(540,641,o),
(540,662,cs),
(540,683,o),
(523,700,o),
(502,700,cs)
);
},
{
closed = 1;
nodes = (
(122,402,l),
(122,326,l),
(402,326,ls),
(423,326,o),
(440,343,o),
(440,364,cs),
(440,385,o),
(423,402,o),
(402,402,cs)
);
},
{
closed = 1;
nodes = (
(120,76,l),
(120,0,l),
(502,0,ls),
(523,0,o),
(540,17,o),
(540,38,cs),
(540,59,o),
(523,76,o),
(502,76,cs)
);
},
{
closed = 1;
nodes = (
(162,700,l),
(121,700,l),
(98,700,o),
(80,682,o),
(80,659,cs),
(80,41,ls),
(80,18,o),
(98,0,o),
(121,0,c),
(162,0,l)
);
}
);
width = 585;
},
{
layerId = "6242D68C-0A25-4F05-8F2A-2075F7C4A210";
width = 600;
},
{
layerId = "3D52442A-254C-4C79-B742-A98FD72DF947";
width = 600;
}
);
},
{
glyphname = Eogonek;
lastChange = "2021-08-10 22:47:02 +0000";
layers = (
{
layerId = "65988B1E-DCE2-4AC3-A6FF-994A1050067D";
shapes = (
{
ref = E;
},
{
closed = 1;
nodes = (
(433,-113,o),
(424,-121,o),
(408,-121,cs),
(388,-121,o),
(384,-109,o),
(384,-101,cs),
(384,-60,o),
(504,-34,o),
(504,35,cs),
(504,36,l),
(430,45,l),
(428,23,ls),
(425,-7,o),
(314,-31,o),
(314,-109,cs),
(314,-160,o),
(359,-184,o),
(406,-185,cs),
(432,-186,o),
(466,-180,o),
(498,-146,cs),
(504,-139,o),
(508,-131,o),
(508,-121,cs),
(508,-101,o),
(494,-87,o),
(474,-87,cs),
(463,-87,o),
(454,-91,o),
(447,-98,cs)
);
}
);
width = 564;
},
{
layerId = "6242D68C-0A25-4F05-8F2A-2075F7C4A210";
width = 600;
},
{
layerId = "3D52442A-254C-4C79-B742-A98FD72DF947";
shapes = (
{
ref = E;
}
);
width = 541;
}
);
unicode = 280;
},
{
glyphname = F;
lastChange = "2021-08-07 20:14:30 +0000";
layers = (
{
layerId = "65988B1E-DCE2-4AC3-A6FF-994A1050067D";
shapes = (
{
closed = 1;
nodes = (
(439,624,ls),
(460,624,o),
(477,641,o),
(477,662,cs),
(477,683,o),
(460,700,o),
(439,700,cs),
(122,700,l),
(122,624,l)
);
},
{
closed = 1;
nodes = (
(418,321,ls),
(439,321,o),
(456,338,o),
(456,359,cs),
(456,380,o),
(439,397,o),
(418,397,cs),
(122,397,l),
(122,321,l)
);
},
{
closed = 1;
nodes = (
(144,-5,o),
(162,13,o),
(162,36,cs),
(162,700,l),
(121,700,l),
(98,700,o),
(80,682,o),
(80,659,cs),
(80,36,ls),
(80,13,o),
(98,-5,o),
(121,-5,cs)
);
}
);
width = 517;
},
{
layerId = "6242D68C-0A25-4F05-8F2A-2075F7C4A210";
shapes = (
{
closed = 1;
nodes = (
(481,560,ls),
(520,560,o),
(551,591,o),
(551,630,cs),
(551,669,o),
(520,700,o),
(481,700,cs),
(183,700,l),
(183,560,l)
);
},
{
closed = 1;
nodes = (
(463,286,ls),
(502,286,o),
(533,317,o),
(533,356,cs),
(533,395,o),
(502,426,o),
(463,426,cs),
(188,426,l),
(188,286,l)
);
},
{
closed = 1;
nodes = (
(201,-10,o),
(236,25,o),
(236,68,cs),
(236,700,l),
(158,700,l),
(115,700,o),
(80,665,o),
(80,622,cs),
(80,68,ls),
(80,25,o),
(115,-10,o),
(158,-10,cs)
);
}
);
width = 596;
},
{
associatedMasterId = "65988B1E-DCE2-4AC3-A6FF-994A1050067D";
layerId = "AF8F5731-F07F-4E71-B0D5-E02C60E10B50";
name = "Original Skeleton";
shapes = (
{
attr = {
strokeWidth = 2;
};
closed = 0;
nodes = (
(101,696,l),
(101,-2,l)
);
},
{
attr = {
strokeWidth = 2;
};
closed = 0;
nodes = (
(107,690,l),
(530,690,l)
);
},
{
attr = {
strokeWidth = 2;
};
closed = 0;
nodes = (
(105,366,l),
(420,366,l)
);
}
);
width = 517;
},
{
layerId = "3D52442A-254C-4C79-B742-A98FD72DF947";
shapes = (
{
closed = 1;
nodes = (
(430,654,ls),
(443,654,o),
(453,664,o),
(453,677,cs),
(453,690,o),
(443,700,o),
(430,700,cs),
(106,700,l),
(106,654,l)
);
},
{
closed = 1;
nodes = (
(420,344,ls),
(433,344,o),
(443,354,o),
(443,367,cs),
(443,380,o),
(433,390,o),
(420,390,cs),
(105,390,l),
(105,344,l)
);
},
{
closed = 1;
nodes = (
(116,-10,o),
(126,0,o),
(126,13,cs),
(126,700,l),
(103,700,l),
(90,700,o),
(80,690,o),
(80,677,cs),
(80,13,ls),
(80,0,o),
(90,-10,o),
(103,-10,cs)
);
}
);
width = 498;
}
);
unicode = 70;
},
{
glyphname = G;
lastChange = "2021-08-10 19:43:03 +0000";
layers = (
{
anchors = (
{
name = bottom;
pos = (366,0);
},
{
name = top;
pos = (337,700);
}
);
background = {
shapes = (
{
attr = {
strokeWidth = 2;
};
closed = 0;
nodes = (
(523,542,l),
(512,621,o),
(444,677,o),
(351,677,cs),
(197,677,o),
(101,551,o),
(101,351,cs),
(101,160,o),
(207,25,o),
(358,25,cs),
(433,25,o),
(493,58,o),
(525,116,c),
(525,312,l),
(370,317,l)
);
},
{
closed = 1;
nodes = (
(506,-20,o),
(599,77,o),
(599,124,c),
(599,306,ls),
(599,336,o),
(578,357,o),
(548,358,cs),
(424,361,ls),
(396,362,o),
(371,339,o),
(371,311,cs),
(371,284,o),
(393,266,o),
(422,265,cs),
(495,263,l),
(495,158,l),
(495,124,o),
(438,83,o),
(359,83,cs),
(222,83,o),
(149,196,o),
(146,350,cs),
(143,524,o),
(230,618,o),
(355,618,cs),
(425,618,o),
(458,593,o),
(477,555,cs),
(485,538,o),
(502,526,o),
(523,526,cs),
(551,526,o),
(574,549,o),
(574,577,cs),
(574,586,o),
(572,594,o),
(568,601,cs),
(534,665,o),
(469,720,o),
(333,720,cs),
(114,720,o),
(39,514,o),
(39,358,cs),
(39,131,o),
(150,-18,o),
(348,-19,cs)
);
}
);
};
layerId = "65988B1E-DCE2-4AC3-A6FF-994A1050067D";
shapes = (
{
closed = 1;
nodes = (
(436,-14,o),
(504,11,o),
(565,96,c),
(565,315,ls),
(565,339,o),
(552,356,o),
(533,356,cs),
(377,358,ls),
(355,358,o),
(337,341,o),
(337,319,cs),
(337,298,o),
(354,280,o),
(375,280,cs),
(484,280,l),
(484,120,l),
(447,81,o),
(415,60,o),
(361,60,cs),
(214,60,o),
(142,171,o),
(142,356,cs),
(142,473,o),
(188,640,o),
(346,640,cs),
(418,640,o),
(461,601,o),
(481,553,cs),
(487,539,o),
(501,529,o),
(517,529,cs),
(538,529,o),
(558,547,o),
(555,578,cs),
(550,625,o),
(494,715,o),
(345,715,cs),
(124,715,o),
(60,499,o),
(60,360,cs),
(60,119,o),
(167,-18,o),
(354,-15,cs)
);
}
);
width = 620;
},
{
anchors = (
{
name = bottom;
pos = (388,0);
},
{
name = top;
pos = (385,700);
}
);
background = {
shapes = (
{
closed = 1;
nodes = (
(577,-14,o),
(710,136,o),
(710,351,cs),
(710,566,o),
(582,715,o),
(390,715,cs),
(198,715,o),
(60,566,o),
(60,351,cs),
(60,136,o),
(193,-14,o),
(385,-14,cs)
);
},
{
closed = 1;
nodes = (
(279,126,o),
(217,220,o),
(217,351,cs),
(217,482,o),
(279,575,o),
(385,575,cs),
(491,575,o),
(553,482,o),
(553,351,cs),
(553,220,o),
(491,126,o),
(385,126,cs)
);
}
);
};
layerId = "6242D68C-0A25-4F05-8F2A-2075F7C4A210";
shapes = (
{
closed = 1;
nodes = (
(525,-15,o),
(610,41,o),
(660,121,c),
(660,324,ls),
(660,369,o),
(636,394,o),
(591,395,cs),
(494,397,ls),
(450,398,o),
(406,368,o),
(406,325,cs),
(406,286,o),
(443,257,o),
(489,253,cs),
(501,252,l),
(501,163,l),
(477,141,o),
(444,126,o),
(402,126,cs),
(300,126,o),
(227,215,o),
(227,355,cs),
(227,506,o),
(298,576,o),
(396,576,cs),
(455,576,o),
(478,547,o),
(489,523,cs),
(501,498,o),
(526,481,o),
(556,481,cs),
(596,481,o),
(629,513,o),
(629,554,cs),
(629,647,o),
(523,715,o),
(387,715,cs),
(201,715,o),
(70,579,o),
(70,360,cs),
(70,130,o),
(207,-15,o),
(401,-15,cs)
);
}
);
width = 715;
},
{
anchors = (
{
name = bottom;
pos = (310,0);
},
{
name = top;
pos = (340,700);
}
);
associatedMasterId = "65988B1E-DCE2-4AC3-A6FF-994A1050067D";
layerId = "6A5D1632-9C88-4F41-ADAD-839021B4194E";
name = "Original Skeleton";
shapes = (
{
attr = {
strokeWidth = 2;
};
closed = 0;
nodes = (
(521,543,l),
(521,543,o),
(489,698,o),
(329,698,cs),
(128,698,o),
(61,483,o),
(61,347,cs),
(61,265,o),
(104,-4,o),
(337,-4,cs),
(460,-4,o),
(521,96,o),
(521,96,c),
(521,312,l),
(350,317,l)
);
}
);
width = 620;
},
{
anchors = (
{
name = bottom;
pos = (342,0);
},
{
name = top;
pos = (337,700);
}
);
layerId = "3D52442A-254C-4C79-B742-A98FD72DF947";
shapes = (
{
closed = 1;
nodes = (
(446,-15,o),
(517,44,o),
(550,97,c),
(550,314,ls),
(550,327,o),
(540,337,o),
(527,337,cs),
(383,337,ls),
(370,337,o),
(360,327,o),
(360,314,cs),
(360,302,o),
(370,291,o),
(382,291,cs),
(504,291,l),
(504,111,l),
(468,60,o),
(411,31,o),
(349,31,cs),
(144,31,o),
(106,270,o),
(106,365,cs),
(106,480,o),
(164,667,o),
(342,667,cs),
(431,667,o),
(478,615,o),
(499,553,cs),
(502,544,o),
(511,538,o),
(521,538,cs),
(536,538,o),
(544,550,o),
(544,561,cs),
(544,630,o),
(423,713,o),
(342,713,cs),
(129,713,o),
(60,489,o),
(60,365,cs),
(60,265,o),
(103,-15,o),
(342,-15,cs)
);
}
);
width = 605;
}
);
unicode = 71;
},
{
glyphname = G.ss02;
lastChange = "2021-08-10 20:43:01 +0000";
layers = (
{
anchors = (
{
name = bottom;
pos = (366,0);
},
{
name = top;
pos = (337,700);
}
);
background = {
shapes = (
{
attr = {
strokeWidth = 2;
};
closed = 0;
nodes = (
(523,542,l),
(512,621,o),
(444,677,o),
(351,677,cs),
(197,677,o),
(101,551,o),
(101,351,cs),
(101,160,o),
(207,25,o),
(358,25,cs),
(433,25,o),
(493,58,o),
(525,116,c),
(525,312,l),
(370,317,l)
);
}
);
};
layerId = "65988B1E-DCE2-4AC3-A6FF-994A1050067D";
shapes = (
{
closed = 1;
nodes = (
(436,-15,o),
(504,11,o),
(565,96,c),
(565,315,ls),
(565,339,o),
(552,356,o),
(533,356,cs),
(377,358,ls),
(355,358,o),
(337,341,o),
(337,319,cs),
(337,298,o),
(354,280,o),
(375,280,cs),
(484,280,l),
(484,120,l),
(447,81,o),
(415,60,o),
(361,60,cs),
(214,60,o),
(142,171,o),
(142,335,cs),
(142,460,o),
(188,640,o),
(346,640,cs),
(424,640,o),
(461,601,o),
(481,553,cs),
(487,539,o),
(501,529,o),
(517,529,cs),
(538,529,o),
(556,547,o),
(556,568,cs),
(556,573,o),
(554,579,o),
(552,583,cs),
(523,652,o),
(459,715,o),
(345,715,cs),
(124,715,o),
(60,495,o),
(60,339,cs),
(60,119,o),
(172,-15,o),
(354,-15,cs)
);
}
);
width = 620;
},
{
anchors = (
{
name = bottom;
pos = (373,0);
},
{
name = top;
pos = (360,700);
}
);
layerId = "6242D68C-0A25-4F05-8F2A-2075F7C4A210";
shapes = (
{
closed = 1;
nodes = (
(490,-11,o),
(569,40,o),
(614,130,c),
(614,300,ls),
(614,341,o),
(587,364,o),
(550,364,cs),
(458,364,ls),
(421,364,o),
(394,341,o),
(394,300,cs),
(394,260,o),
(421,237,o),
(458,237,cs),
(464,237,l),
(464,169,l),
(448,147,o),
(425,139,o),
(388,139,cs),
(273,139,o),
(216,217,o),
(216,346,cs),
(216,481,o),
(279,575,o),
(372,575,cs),
(422,575,o),
(448,547,o),
(459,523,cs),
(471,498,o),
(496,481,o),
(526,481,cs),
(566,481,o),
(599,513,o),
(599,554,cs),
(599,564,o),
(598,574,o),
(596,583,cs),
(578,661,o),
(488,715,o),
(372,715,cs),
(181,715,o),
(60,564,o),
(60,351,cs),
(60,146,o),
(183,-11,o),
(378,-11,cs)
);
}
);
width = 669;
},
{
anchors = (
{
name = bottom;
pos = (310,0);
},
{
name = top;
pos = (340,700);
}
);
associatedMasterId = "65988B1E-DCE2-4AC3-A6FF-994A1050067D";
layerId = "6A5D1632-9C88-4F41-ADAD-839021B4194E";
name = "Original Skeleton";
shapes = (
{
attr = {
strokeWidth = 2;
};
closed = 0;
nodes = (
(521,543,l),
(521,543,o),
(489,698,o),
(329,698,cs),
(128,698,o),
(61,483,o),
(61,347,cs),
(61,265,o),
(104,-4,o),
(337,-4,cs),
(460,-4,o),
(521,96,o),
(521,96,c),
(521,312,l),
(350,317,l)
);
}
);
width = 620;
},
{
anchors = (
{
name = bottom;
pos = (328,0);
},
{
name = top;
pos = (323,700);
}
);
layerId = "3D52442A-254C-4C79-B742-A98FD72DF947";
shapes = (
{
closed = 1;
nodes = (
(432,-15,o),
(503,44,o),
(536,97,c),
(536,314,ls),
(536,327,o),
(526,337,o),
(513,337,cs),
(369,337,ls),
(356,337,o),
(346,327,o),
(346,314,cs),
(346,302,o),
(356,291,o),
(368,291,cs),
(490,291,l),
(490,111,l),
(454,60,o),
(397,31,o),
(335,31,cs),
(130,31,o),
(92,270,o),
(92,365,cs),
(92,480,o),
(150,667,o),
(328,667,cs),
(417,667,o),
(464,615,o),
(485,553,cs),
(488,544,o),
(497,538,o),
(507,538,cs),
(522,538,o),
(530,550,o),
(530,561,cs),
(530,564,o),
(530,566,o),
(529,568,cs),
(503,641,o),
(440,713,o),
(328,713,cs),
(115,713,o),
(46,489,o),
(46,365,cs),
(46,265,o),
(89,-15,o),
(328,-15,cs)
);
}
);
width = 600;
}
);
},
{
glyphname = H;
lastChange = "2021-08-07 20:06:37 +0000";
layers = (
{
anchors = (
{
name = bottom;
pos = (338,0);
},
{
name = center;
pos = (338,350);
},
{
name = top;
pos = (338,700);
},
{
name = topleft;
pos = (20,700);
}
);
background = {
shapes = (
{
attr = {
strokeWidth = 2;
};
closed = 0;
nodes = (
(122,700,l),
(122,0,l)
);
},
{
attr = {
strokeWidth = 2;
};
closed = 0;
nodes = (
(555,700,l),
(555,0,l)
);
},
{
attr = {
strokeWidth = 2;
};
closed = 0;
nodes = (
(122,368,l),
(550,368,l)
);
}
);
};
layerId = "65988B1E-DCE2-4AC3-A6FF-994A1050067D";
shapes = (
{
closed = 1;
nodes = (
(144,-10,o),
(162,8,o),
(162,31,cs),
(162,669,ls),
(162,692,o),
(144,710,o),
(121,710,cs),
(98,710,o),
(80,692,o),
(80,669,cs),
(80,31,ls),
(80,8,o),
(98,-10,o),
(121,-10,cs)
);
},
{
closed = 1;
nodes = (
(578,-10,o),
(596,8,o),
(596,31,cs),
(596,669,ls),
(596,692,o),
(578,710,o),
(555,710,cs),
(532,710,o),
(514,692,o),
(514,669,cs),
(514,31,ls),
(514,8,o),
(532,-10,o),
(555,-10,cs)
);
},
{
closed = 1;
nodes = (
(555,332,l),
(555,408,l),
(121,408,l),
(121,332,l)
);
}
);
width = 676;
},
{
anchors = (
{
name = bottom;
pos = (377,0);
},
{
name = center;
pos = (377,350);
},
{
name = top;
pos = (377,700);
},
{
name = topleft;
pos = (20,700);
}
);
background = {
shapes = (
{
attr = {
strokeWidth = 2;
};
closed = 0;
nodes = (
(598,700,l),
(598,0,l)
);
},
{
attr = {
strokeWidth = 2;
};
closed = 0;
nodes = (
(581,358,l),
(158,357,l)
);
},
{
attr = {
strokeWidth = 2;
};
closed = 0;
nodes = (
(159,700,l),
(159,0,l)
);
}
);
};
layerId = "6242D68C-0A25-4F05-8F2A-2075F7C4A210";
shapes = (
{
closed = 1;
nodes = (
(201,-10,o),
(236,25,o),
(236,68,cs),
(236,632,ls),
(236,675,o),
(201,710,o),
(158,710,cs),
(115,710,o),
(80,675,o),
(80,632,cs),
(80,68,ls),
(80,25,o),
(115,-10,o),
(158,-10,cs)
);
},
{
closed = 1;
nodes = (
(641,-10,o),
(676,25,o),
(676,68,cs),
(676,632,ls),
(676,675,o),
(641,710,o),
(598,710,cs),
(555,710,o),
(520,675,o),
(520,632,cs),
(520,68,ls),
(520,25,o),
(555,-10,o),
(598,-10,cs)
);
},
{
closed = 1;
nodes = (
(605,281,l),
(605,431,l),
(188,431,l),
(188,281,l)
);
}
);
width = 756;
},
{
associatedMasterId = "65988B1E-DCE2-4AC3-A6FF-994A1050067D";
background = {
shapes = (
{
attr = {
strokeWidth = 2;
};
closed = 0;
nodes = (
(122,700,l),
(122,0,l)
);
},
{
attr = {
strokeWidth = 2;
};
closed = 0;
nodes = (
(546,700,l),
(546,0,l)
);
},
{
attr = {
strokeWidth = 2;
};
closed = 0;
nodes = (
(122,368,l),
(546,368,l)
);
}
);
};
layerId = "501F85B2-6C6F-4D2D-83D6-00BE89D5E89B";
name = "Original Skeleton";
shapes = (
{
attr = {
strokeWidth = 2;
};
closed = 0;
nodes = (
(101,700,l),
(101,0,l)
);
},
{
attr = {
strokeWidth = 2;
};
closed = 0;
nodes = (
(567,700,l),
(567,0,l)
);
},
{
attr = {
strokeWidth = 2;
};
closed = 0;
nodes = (
(101,368,l),
(567,368,l)
);
}
);
width = 676;
},
{
anchors = (
{
name = bottom;
pos = (318,0);
},
{
name = center;
pos = (318,350);
},
{
name = top;
pos = (318,700);
},
{
name = topleft;
pos = (25,700);
}
);
background = {
shapes = (
{
attr = {
strokeWidth = 2;
};
closed = 0;
nodes = (
(106,700,l),
(106,0,l)
);
},
{
attr = {
strokeWidth = 2;
};
closed = 0;
nodes = (
(534,700,l),
(534,0,l)
);
},
{
attr = {
strokeWidth = 2;
};
closed = 0;
nodes = (
(110,368,l),
(534,368,l)
);
},
{
closed = 1;
nodes = (
(124,-10,o),
(137,3,o),
(137,20,cs),
(137,680,ls),
(137,697,o),
(124,710,o),
(107,710,cs),
(90,710,o),
(77,697,o),
(77,680,cs),
(77,20,ls),
(77,3,o),
(90,-10,o),
(107,-10,cs)
);
},
{
closed = 1;
nodes = (
(537,-10,o),
(550,3,o),
(550,20,cs),
(550,680,ls),
(550,697,o),
(537,710,o),
(520,710,cs),
(503,710,o),
(490,697,o),
(490,680,cs),
(490,20,ls),
(490,3,o),
(503,-10,o),
(520,-10,cs)
);
},
{
closed = 1;
nodes = (
(521,341,l),
(521,399,l),
(103,398,l),
(103,340,l)
);
},
{
closed = 1;
nodes = (
(446,41,o),
(534,164,o),
(534,351,cs),
(534,538,o),
(446,661,o),
(319,661,cs),
(192,661,o),
(104,538,o),
(104,351,cs),
(104,164,o),
(192,41,o),
(319,41,cs)
);
},
{
closed = 1;
nodes = (
(160,-12,o),
(47,130,o),
(47,351,cs),
(47,572,o),
(160,714,o),
(319,714,cs),
(478,714,o),
(591,572,o),
(591,351,cs),
(591,127,o),
(463,-12,o),
(319,-12,cs)
);
}
);
};
layerId = "3D52442A-254C-4C79-B742-A98FD72DF947";
shapes = (
{
closed = 1;
nodes = (
(116,-10,o),
(126,0,o),
(126,13,cs),
(126,687,ls),
(126,700,o),
(116,710,o),
(103,710,cs),
(90,710,o),
(80,700,o),
(80,687,cs),
(80,13,ls),
(80,0,o),
(90,-10,o),
(103,-10,cs)
);
},
{
closed = 1;
nodes = (
(541,-10,o),
(551,0,o),
(551,13,cs),
(551,687,ls),
(551,700,o),
(541,710,o),
(528,710,cs),
(515,710,o),
(505,700,o),
(505,687,cs),
(505,13,ls),
(505,0,o),
(515,-10,o),
(528,-10,cs)
);
},
{
closed = 1;
nodes = (
(513,344,l),
(513,389,l),
(116,389,l),
(116,344,l)
);
}
);
width = 631;
}
);
unicode = 72;
},
{
glyphname = H.ss02;
lastChange = "2021-08-10 20:43:04 +0000";
layers = (
{
anchors = (
{
name = bottom;
pos = (338,0);
},
{
name = center;
pos = (338,350);
},
{
name = top;
pos = (338,700);
},
{
name = topleft;
pos = (20,700);
}
);
background = {
shapes = (
{
attr = {
strokeWidth = 2;
};
closed = 0;
nodes = (
(122,700,l),
(122,0,l)
);
},
{
attr = {
strokeWidth = 2;
};
closed = 0;
nodes = (
(555,700,l),
(555,0,l)
);
},
{
attr = {
strokeWidth = 2;
};
closed = 0;
nodes = (
(122,368,l),
(550,368,l)
);
}
);
};
layerId = "65988B1E-DCE2-4AC3-A6FF-994A1050067D";
shapes = (
{
closed = 1;
nodes = (
(144,-10,o),
(162,8,o),
(162,31,cs),
(162,669,ls),
(162,692,o),
(144,710,o),
(121,710,cs),
(98,710,o),
(80,692,o),
(80,669,cs),
(80,31,ls),
(80,8,o),
(98,-10,o),
(121,-10,cs)
);
},
{
closed = 1;
nodes = (
(578,-10,o),
(596,8,o),
(596,31,cs),
(596,669,ls),
(596,692,o),
(578,710,o),
(555,710,cs),
(532,710,o),
(514,692,o),
(514,669,cs),
(514,31,ls),
(514,8,o),
(532,-10,o),
(555,-10,cs)
);
},
{
closed = 1;
nodes = (
(555,332,l),
(555,408,l),
(121,408,l),
(121,332,l)
);
}
);
width = 676;
},
{
anchors = (
{
name = bottom;
pos = (377,0);
},
{
name = center;
pos = (377,350);
},
{
name = top;
pos = (377,700);
},
{
name = topleft;
pos = (20,700);
}
);
background = {
shapes = (
{
attr = {
strokeWidth = 2;
};
closed = 0;
nodes = (
(598,700,l),
(598,0,l)
);
},
{
attr = {
strokeWidth = 2;
};
closed = 0;
nodes = (
(581,358,l),
(158,357,l)
);
},
{
attr = {
strokeWidth = 2;
};
closed = 0;
nodes = (
(159,700,l),
(159,0,l)
);
}
);
};
layerId = "6242D68C-0A25-4F05-8F2A-2075F7C4A210";
shapes = (
{
closed = 1;
nodes = (
(204,-8,o),
(240,28,o),
(240,72,cs),
(240,628,ls),
(240,672,o),
(204,708,o),
(160,708,cs),
(116,708,o),
(80,672,o),
(80,628,cs),
(80,72,ls),
(80,28,o),
(116,-8,o),
(160,-8,cs)
);
},
{
closed = 1;
nodes = (
(668,-8,o),
(704,28,o),
(704,72,cs),
(704,628,ls),
(704,672,o),
(668,708,o),
(624,708,cs),
(580,708,o),
(544,672,o),
(544,628,cs),
(544,72,ls),
(544,28,o),
(580,-8,o),
(624,-8,cs)
);
},
{
closed = 1;
nodes = (
(635,281,l),
(635,431,l),
(188,431,l),
(188,281,l)
);
}
);
width = 784;
},
{
associatedMasterId = "65988B1E-DCE2-4AC3-A6FF-994A1050067D";
background = {
shapes = (
{
attr = {
strokeWidth = 2;
};
closed = 0;
nodes = (
(122,700,l),
(122,0,l)
);
},
{
attr = {
strokeWidth = 2;
};
closed = 0;
nodes = (
(546,700,l),
(546,0,l)
);
},
{
attr = {
strokeWidth = 2;
};
closed = 0;
nodes = (
(122,368,l),
(546,368,l)
);
}
);
};
layerId = "501F85B2-6C6F-4D2D-83D6-00BE89D5E89B";
name = "Original Skeleton";
shapes = (
{
attr = {
strokeWidth = 2;
};
closed = 0;
nodes = (
(101,700,l),
(101,0,l)
);
},
{
attr = {
strokeWidth = 2;
};
closed = 0;
nodes = (
(567,700,l),
(567,0,l)
);
},
{
attr = {
strokeWidth = 2;
};
closed = 0;
nodes = (
(101,368,l),
(567,368,l)
);
}
);
width = 676;
},
{
anchors = (
{
name = bottom;
pos = (313,0);
},
{
name = center;
pos = (313,350);
},
{
name = top;
pos = (313,700);
},
{
name = topleft;
pos = (20,700);
}
);
background = {
shapes = (
{
attr = {
strokeWidth = 2;
};
closed = 0;
nodes = (
(101,700,l),
(101,0,l)
);
},
{
attr = {
strokeWidth = 2;
};
closed = 0;
nodes = (
(529,700,l),
(529,0,l)
);
},
{
attr = {
strokeWidth = 2;
};
closed = 0;
nodes = (
(105,368,l),
(529,368,l)
);
},
{
closed = 1;
nodes = (
(119,-10,o),
(132,3,o),
(132,20,cs),
(132,680,ls),
(132,697,o),
(119,710,o),
(102,710,cs),
(85,710,o),
(72,697,o),
(72,680,cs),
(72,20,ls),
(72,3,o),
(85,-10,o),
(102,-10,cs)
);
},
{
closed = 1;
nodes = (
(532,-10,o),
(545,3,o),
(545,20,cs),
(545,680,ls),
(545,697,o),
(532,710,o),
(515,710,cs),
(498,710,o),
(485,697,o),
(485,680,cs),
(485,20,ls),
(485,3,o),
(498,-10,o),
(515,-10,cs)
);
},
{
closed = 1;
nodes = (
(516,341,l),
(516,399,l),
(98,398,l),
(98,340,l)
);
},
{
closed = 1;
nodes = (
(441,41,o),
(529,164,o),
(529,351,cs),
(529,538,o),
(441,661,o),
(314,661,cs),
(187,661,o),
(99,538,o),
(99,351,cs),
(99,164,o),
(187,41,o),
(314,41,cs)
);
},
{
closed = 1;
nodes = (
(155,-12,o),
(42,130,o),
(42,351,cs),
(42,572,o),
(155,714,o),
(314,714,cs),
(473,714,o),
(586,572,o),
(586,351,cs),
(586,127,o),
(458,-12,o),
(314,-12,cs)
);
}
);
};
layerId = "3D52442A-254C-4C79-B742-A98FD72DF947";
shapes = (
{
closed = 1;
nodes = (
(111,-10,o),
(121,0,o),
(121,13,cs),
(121,687,ls),
(121,700,o),
(111,710,o),
(98,710,cs),
(85,710,o),
(75,700,o),
(75,687,cs),
(75,13,ls),
(75,0,o),
(85,-10,o),
(98,-10,cs)
);
},
{
closed = 1;
nodes = (
(536,-10,o),
(546,0,o),
(546,13,cs),
(546,687,ls),
(546,700,o),
(536,710,o),
(523,710,cs),
(510,710,o),
(500,700,o),
(500,687,cs),
(500,13,ls),
(500,0,o),
(510,-10,o),
(523,-10,cs)
);
},
{
closed = 1;
nodes = (
(508,344,l),
(508,389,l),
(111,389,l),
(111,344,l)
);
}
);
width = 621;
}
);
},
{
glyphname = Hbar;
lastChange = "2021-08-04 13:00:20 +0000";
layers = (
{
layerId = "65988B1E-DCE2-4AC3-A6FF-994A1050067D";
shapes = (
{
pos = (60,0);
ref = H;
},
{
attr = {
lineCapEnd = "2";
lineCapStart = "2";
strokeHeight = 76;
strokeWidth = 76;
};
closed = 0;
nodes = (
(64,510,l),
(722,510,l)
);
}
);
width = 786;
},
{
layerId = "6242D68C-0A25-4F05-8F2A-2075F7C4A210";
width = 600;
},
{
layerId = "3D52442A-254C-4C79-B742-A98FD72DF947";
width = 600;
}
);
metricLeft = "=H-20";
metricRight = "=H-20";
unicode = 294;
},
{
glyphname = I;
lastChange = "2021-08-05 17:40:19 +0000";
layers = (
{
anchors = (
{
name = bottom;
pos = (121,0);
},
{
name = ogonek;
pos = (81,0);
},
{
name = top;
pos = (121,700);
},
{
name = topleft;
pos = (20,700);
}
);
layerId = "65988B1E-DCE2-4AC3-A6FF-994A1050067D";
shapes = (
{
closed = 1;
nodes = (
(144,-10,o),
(162,8,o),
(162,31,cs),
(162,664,ls),
(162,687,o),
(144,705,o),
(121,705,cs),
(98,705,o),
(80,687,o),
(80,664,cs),
(80,31,ls),
(80,8,o),
(98,-10,o),
(121,-10,cs)
);
}
);
width = 242;
},
{
anchors = (
{
name = bottom;
pos = (162,0);
},
{
name = ogonek;
pos = (97,0);
},
{
name = top;
pos = (159,700);
},
{
name = topleft;
pos = (20,700);
}
);
layerId = "6242D68C-0A25-4F05-8F2A-2075F7C4A210";
shapes = (
{
closed = 1;
nodes = (
(201,-10,o),
(236,25,o),
(236,68,cs),
(236,632,ls),
(236,675,o),
(201,710,o),
(158,710,cs),
(115,710,o),
(80,675,o),
(80,632,cs),
(80,68,ls),
(80,25,o),
(115,-10,o),
(158,-10,cs)
);
}
);
width = 316;
},
{
anchors = (
{
name = bottom;
pos = (121,0);
},
{
name = ogonek;
pos = (168,56);
},
{
name = top;
pos = (121,700);
},
{
name = topleft;
pos = (20,700);
}
);
associatedMasterId = "65988B1E-DCE2-4AC3-A6FF-994A1050067D";
layerId = "FE7FF8FD-0C8B-4278-A729-EB876815C24C";
name = "Original Skeleton";
shapes = (
{
attr = {
strokeWidth = 2;
};
closed = 0;
nodes = (
(101,700,l),
(101,0,l)
);
}
);
width = 242;
},
{
anchors = (
{
name = bottom;
pos = (103,0);
},
{
name = ogonek;
pos = (62,0);
},
{
name = top;
pos = (103,700);
},
{
name = topleft;
pos = (25,700);
}
);
layerId = "3D52442A-254C-4C79-B742-A98FD72DF947";
shapes = (
{
closed = 1;
nodes = (
(116,-10,o),
(126,0,o),
(126,13,cs),
(126,687,ls),
(126,700,o),
(116,710,o),
(103,710,cs),
(90,710,o),
(80,700,o),
(80,687,cs),
(80,13,ls),
(80,0,o),
(90,-10,o),
(103,-10,cs)
);
}
);
width = 206;
}
);
metricLeft = "=H";
metricRight = "=H";
unicode = 73;
},
{
glyphname = IJ;
lastChange = "2021-08-09 07:49:52 +0000";
layers = (
{
layerId = "65988B1E-DCE2-4AC3-A6FF-994A1050067D";
shapes = (
{
closed = 1;
nodes = (
(162,664,ls),
(162,687,o),
(144,705,o),
(121,705,cs),
(98,705,o),
(80,687,o),
(80,664,cs),
(80,36,ls),
(80,13,o),
(98,-5,o),
(121,-5,cs),
(144,-5,o),
(162,13,o),
(162,36,cs)
);
},
{
closed = 1;
nodes = (
(227,170,ls),
(227,54,o),
(301,-30,o),
(404,-30,cs),
(523,-30,o),
(592,46,o),
(592,176,cs),
(592,664,ls),
(592,687,o),
(574,705,o),
(551,705,cs),
(528,705,o),
(510,687,o),
(510,664,cs),
(510,176,ls),
(510,96,o),
(471,49,o),
(404,49,cs),
(344,49,o),
(309,93,o),
(309,170,cs),
(309,187,ls),
(309,210,o),
(291,228,o),
(268,228,cs),
(245,228,o),
(227,210,o),
(227,187,cs)
);
}
);
width = 672;
},
{
layerId = "6242D68C-0A25-4F05-8F2A-2075F7C4A210";
width = 600;
},
{
layerId = "3D52442A-254C-4C79-B742-A98FD72DF947";
shapes = (
{
ref = I;
},
{
pos = (206,0);
ref = J;
}
);
width = 695;
}
);
unicode = 306;
},
{
glyphname = IJ.001;
lastChange = "2021-08-04 13:00:20 +0000";
layers = (
{
background = {
shapes = (
{
closed = 0;
nodes = (
(70,80,l),
(97,13,o),
(156,-30,o),
(230,-30,cs),
(349,-30,o),
(418,46,o),
(418,176,cs),
(418,664,ls),
(418,687,o),
(400,705,o),
(377,705,cs),
(354,705,o),
(336,687,o),
(336,664,cs),
(336,176,ls),
(336,96,o),
(297,49,o),
(230,49,cs),
(200,49,o),
(176,60,o),
(160,80,c)
);
}
);
};
layerId = "65988B1E-DCE2-4AC3-A6FF-994A1050067D";
shapes = (
{
closed = 1;
nodes = (
(153,664,ls),
(153,687,o),
(135,705,o),
(112,705,cs),
(89,705,o),
(71,687,o),
(71,664,cs),
(71,272,ls),
(71,249,o),
(89,231,o),
(112,231,cs),
(135,231,o),
(153,249,o),
(153,272,cs)
);
},
{
closed = 1;
nodes = (
(156,107,cs),
(156,129,o),
(138,140,o),
(115,140,cs),
(88,140,o),
(70,122,o),
(70,102,cs),
(70,21,o),
(156,-30,o),
(240,-30,cs),
(359,-30,o),
(428,46,o),
(428,176,cs),
(428,664,ls),
(428,687,o),
(410,705,o),
(387,705,cs),
(364,705,o),
(346,687,o),
(346,664,cs),
(346,176,ls),
(346,96,o),
(307,49,o),
(240,49,cs),
(186,49,o),
(156,72,o)
);
}
);
width = 498;
},
{
layerId = "6242D68C-0A25-4F05-8F2A-2075F7C4A210";
width = 600;
},
{
layerId = "3D52442A-254C-4C79-B742-A98FD72DF947";
width = 600;
}
);
},
{
glyphname = Iogonek;
lastChange = "2021-08-09 23:48:38 +0000";
layers = (
{
layerId = "65988B1E-DCE2-4AC3-A6FF-994A1050067D";
shapes = (
{
ref = I;
},
{
closed = 1;
nodes = (
(129,-113,o),
(120,-121,o),
(104,-121,cs),
(84,-121,o),
(80,-109,o),
(80,-101,cs),
(80,-60,o),
(162,-32,o),
(162,28,cs),
(162,104,l),
(80,104,l),
(80,21,ls),
(80,-8,o),
(10,-31,o),
(10,-109,cs),
(10,-160,o),
(55,-184,o),
(102,-185,cs),
(128,-186,o),
(162,-180,o),
(194,-146,cs),
(200,-139,o),
(204,-131,o),
(204,-121,cs),
(204,-101,o),
(190,-87,o),
(170,-87,cs),
(159,-87,o),
(150,-91,o),
(143,-98,cs)
);
}
);
width = 242;
},
{
layerId = "6242D68C-0A25-4F05-8F2A-2075F7C4A210";
width = 600;
},
{
layerId = "3D52442A-254C-4C79-B742-A98FD72DF947";
width = 600;
}
);
unicode = 302;
},
{
glyphname = J;
lastChange = "2021-08-04 13:00:20 +0000";
layers = (
{
anchors = (
{
name = bottom;
pos = (250,0);
},
{
name = top;
pos = (380,700);
}
);
background = {
shapes = (
{
attr = {
strokeWidth = 2;
};
closed = 0;
nodes = (
(379,668,l),
(379,193,l),
(376,78,o),
(332,28,o),
(232,28,cs),
(136,28,o),
(76,89,o),
(76,187,cs),
(76,241,l)
);
}
);
};
layerId = "65988B1E-DCE2-4AC3-A6FF-994A1050067D";
shapes = (
{
closed = 1;
nodes = (
(373,-14,o),
(420,94,o),
(420,192,cs),
(420,664,ls),
(420,687,o),
(402,705,o),
(379,705,cs),
(356,705,o),
(338,687,o),
(338,664,cs),
(338,192,ls),
(338,120,o),
(315,65,o),
(232,65,cs),
(140,65,o),
(117,133,o),
(117,186,cs),
(117,203,ls),
(117,226,o),
(99,244,o),
(76,244,cs),
(53,244,o),
(35,226,o),
(35,203,cs),
(35,186,ls),
(35,115,o),
(79,-14,o),
(232,-14,cs)
);
}
);
width = 500;
},
{
anchors = (
{
name = bottom;
pos = (347,0);
},
{
name = top;
pos = (347,700);
}
);
layerId = "6242D68C-0A25-4F05-8F2A-2075F7C4A210";
shapes = (
{
closed = 1;
nodes = (
(421,-10,o),
(504,79,o),
(504,232,cs),
(504,632,ls),
(504,675,o),
(469,710,o),
(426,710,cs),
(383,710,o),
(348,675,o),
(348,632,cs),
(348,234,ls),
(348,174,o),
(334,141,o),
(279,141,cs),
(234,141,o),
(201,163,o),
(201,205,cs),
(201,228,ls),
(201,271,o),
(166,306,o),
(123,306,cs),
(80,306,o),
(45,271,o),
(45,228,cs),
(45,201,ls),
(45,79,o),
(143,-10,o),
(282,-10,cs)
);
}
);
width = 584;
},
{
anchors = (
{
name = bottom;
pos = (250,0);
},
{
name = top;
pos = (380,700);
}
);
associatedMasterId = "65988B1E-DCE2-4AC3-A6FF-994A1050067D";
background = {
shapes = (
{
attr = {
strokeWidth = 2;
};
closed = 0;
nodes = (
(394,700,l),
(394,178,l),
(392,143,o),
(403,-4,o),
(232,-4,cs),
(100,-4,o),
(61,105,o),
(61,171,cs),
(61,230,l)
);
}
);
};
layerId = "FA29D0E2-6F2F-4B5A-A0FA-73513B7940E8";
name = "Original Skeleton";
shapes = (
{
attr = {
strokeWidth = 2;
};
closed = 0;
nodes = (
(394,700,l),
(394,178,l),
(391,51,o),
(342,-4,o),
(232,-4,cs),
(127,-4,o),
(61,63,o),
(61,171,cs),
(61,230,l)
);
}
);
width = 500;
},
{
anchors = (
{
name = bottom;
pos = (247,0);
},
{
name = top;
pos = (254,700);
}
);
layerId = "3D52442A-254C-4C79-B742-A98FD72DF947";
shapes = (
{
closed = 1;
nodes = (
(345,-10,o),
(409,63,o),
(409,189,cs),
(409,687,ls),
(409,700,o),
(399,710,o),
(386,710,cs),
(373,710,o),
(363,700,o),
(363,687,cs),
(363,189,ls),
(363,90,o),
(319,36,o),
(234,36,cs),
(149,36,o),
(91,88,o),
(91,182,cs),
(91,219,ls),
(91,232,o),
(81,242,o),
(68,242,cs),
(55,242,o),
(45,232,o),
(45,219,cs),
(45,182,ls),
(45,66,o),
(119,-10,o),
(234,-10,cs)
);
}
);
width = 489;
}
);
unicode = 74;
},
{
glyphname = K;
lastChange = "2021-08-04 13:00:20 +0000";
layers = (
{
anchors = (
{
name = bottom;
pos = (307,0);
},
{
name = top;
pos = (307,700);
}
);
background = {
shapes = (
{
attr = {
strokeWidth = 2;
};
closed = 0;
nodes = (
(121,669,l),
(121,32,l)
);
},
{
attr = {
strokeWidth = 2;
};
closed = 0;
nodes = (
(513,654,l),
(271,409,l),
(121,256,l)
);
},
{
attr = {
strokeWidth = 2;
};
closed = 0;
nodes = (
(530,35,l),
(271,409,l)
);
}
);
};
layerId = "65988B1E-DCE2-4AC3-A6FF-994A1050067D";
shapes = (
{
closed = 1;
nodes = (
(144,-5,o),
(162,13,o),
(162,36,cs),
(162,664,ls),
(162,687,o),
(144,705,o),
(121,705,cs),
(98,705,o),
(80,687,o),
(80,664,cs),
(80,36,ls),
(80,13,o),
(98,-5,o),
(121,-5,cs)
);
},
{
closed = 1;
nodes = (
(531,630,ls),
(539,638,o),
(543,648,o),
(543,659,cs),
(543,681,o),
(525,700,o),
(502,700,cs),
(491,700,o),
(481,695,o),
(474,688,cs),
(125,332,l),
(125,216,l)
);
},
{
closed = 1;
nodes = (
(553,-7,o),
(571,12,o),
(571,34,cs),
(571,43,o),
(568,51,o),
(563,58,cs),
(312,421,l),
(255,361,l),
(497,11,ls),
(504,0,o),
(516,-7,o),
(530,-7,cs)
);
}
);
width = 631;
},
{
anchors = (
{
name = bottom;
pos = (300,0);
},
{
name = top;
pos = (300,700);
}
);
background = {
shapes = (
{
attr = {
strokeWidth = 2;
};
closed = 0;
nodes = (
(148,628,l),
(148,73,l)
);
},
{
attr = {
strokeWidth = 2;
};
closed = 0;
nodes = (
(489,615,l),
(278,401,l),
(148,268,l)
);
},
{
attr = {
strokeWidth = 2;
};
closed = 0;
nodes = (
(503,76,l),
(278,401,l)
);
}
);
};
layerId = "6242D68C-0A25-4F05-8F2A-2075F7C4A210";
shapes = (
{
closed = 1;
nodes = (
(191,-10,o),
(226,25,o),
(226,68,cs),
(226,632,ls),
(226,675,o),
(191,710,o),
(148,710,cs),
(105,710,o),
(70,675,o),
(70,632,cs),
(70,68,ls),
(70,25,o),
(105,-10,o),
(148,-10,cs)
);
},
{
closed = 1;
nodes = (
(536,568,ls),
(549,582,o),
(558,602,o),
(558,623,cs),
(558,666,o),
(523,701,o),
(480,701,cs),
(458,701,o),
(436,691,o),
(420,674,cs),
(83,331,l),
(195,221,l)
);
},
{
closed = 1;
nodes = (
(556,-10,o),
(591,25,o),
(591,68,cs),
(591,84,o),
(585,100,o),
(577,112,cs),
(352,445,l),
(224,357,l),
(449,24,ls),
(463,3,o),
(486,-10,o),
(513,-10,cs)
);
}
);
width = 651;
},
{
anchors = (
{
name = bottom;
pos = (307,0);
},
{
name = top;
pos = (307,700);
}
);
associatedMasterId = "65988B1E-DCE2-4AC3-A6FF-994A1050067D";
layerId = "326C8418-8C6E-400D-A12B-A5D289B1ECBF";
name = "Original Skeleton";
shapes = (
{
attr = {
strokeWidth = 2;
};
closed = 0;
nodes = (
(101,700,l),
(101,0,l)
);
},
{
attr = {
strokeWidth = 2;
};
closed = 0;
nodes = (
(532,684,l),
(266,415,l),
(101,247,l)
);
},
{
attr = {
strokeWidth = 2;
};
closed = 0;
nodes = (
(550,4,l),
(266,415,l)
);
}
);
width = 614;
},
{
anchors = (
{
name = bottom;
pos = (295,0);
},
{
name = top;
pos = (295,700);
}
);
background = {
shapes = (
{
attr = {
strokeWidth = 2;
};
closed = 0;
nodes = (
(103,690,l),
(103,11,l)
);
},
{
attr = {
strokeWidth = 2;
};
closed = 0;
nodes = (
(521,674,l),
(263,413,l),
(103,250,l)
);
},
{
attr = {
strokeWidth = 2;
};
closed = 0;
nodes = (
(538,14,l),
(263,413,l)
);
},
{
attr = {
strokeWidth = 2;
};
closed = 0;
nodes = (
(103,690,l),
(103,11,l)
);
},
{
attr = {
strokeWidth = 2;
};
closed = 0;
nodes = (
(521,674,l),
(263,413,l),
(103,250,l)
);
},
{
attr = {
strokeWidth = 2;
};
closed = 0;
nodes = (
(538,14,l),
(263,413,l)
);
}
);
};
layerId = "3D52442A-254C-4C79-B742-A98FD72DF947";
shapes = (
{
closed = 1;
nodes = (
(116,-10,o),
(126,0,o),
(126,13,cs),
(126,687,ls),
(126,700,o),
(116,710,o),
(103,710,cs),
(90,710,o),
(80,700,o),
(80,687,cs),
(80,13,ls),
(80,0,o),
(90,-10,o),
(103,-10,cs)
);
},
{
closed = 1;
nodes = (
(519,659,ls),
(523,663,o),
(525,669,o),
(525,675,cs),
(525,688,o),
(515,698,o),
(502,698,cs),
(496,698,o),
(491,696,o),
(487,692,cs),
(95,285,l),
(112,237,l)
);
},
{
closed = 1;
nodes = (
(546,-10,o),
(556,0,o),
(556,13,cs),
(556,17,o),
(555,21,o),
(552,26,cs),
(277,433,l),
(246,398,l),
(514,0,l),
(519,-6,o),
(526,-10,o),
(533,-10,cs)
);
}
);
width = 616;
}
);
unicode = 75;
},
{
glyphname = L;
lastChange = "2021-08-04 14:57:45 +0000";
layers = (
{
anchors = (
{
name = bottom;
pos = (277,0);
},
{
name = center;
pos = (267,350);
},
{
name = top;
pos = (124,700);
},
{
name = topright;
pos = (514,700);
}
);
background = {
shapes = (
{
attr = {
strokeWidth = 2;
};
closed = 0;
nodes = (
(122,700,l),
(122,37,l)
);
},
{
attr = {
strokeWidth = 2;
};
closed = 0;
nodes = (
(124,38,l),
(502,38,l)
);
}
);
};
layerId = "65988B1E-DCE2-4AC3-A6FF-994A1050067D";
shapes = (
{
closed = 1;
nodes = (
(162,0,l),
(162,664,ls),
(162,687,o),
(144,705,o),
(121,705,cs),
(98,705,o),
(80,687,o),
(80,664,cs),
(80,41,ls),
(80,18,o),
(98,0,o),
(121,0,cs)
);
},
{
closed = 1;
nodes = (
(446,0,ls),
(467,0,o),
(484,17,o),
(484,38,cs),
(484,59,o),
(467,76,o),
(446,76,cs),
(146,76,l),
(146,0,l)
);
}
);
width = 514;
},
{
anchors = (
{
name = bottom;
pos = (330,0);
},
{
name = center;
pos = (300,350);
},
{
name = top;
pos = (313,700);
},
{
name = topright;
pos = (580,700);
}
);
layerId = "6242D68C-0A25-4F05-8F2A-2075F7C4A210";
shapes = (
{
closed = 1;
nodes = (
(236,0,l),
(236,632,ls),
(236,675,o),
(201,710,o),
(158,710,cs),
(115,710,o),
(80,675,o),
(80,632,cs),
(80,78,ls),
(80,35,o),
(115,0,o),
(158,0,c)
);
},
{
closed = 1;
nodes = (
(472,0,ls),
(513,0,o),
(547,34,o),
(547,75,cs),
(547,116,o),
(513,150,o),
(472,150,cs),
(199,150,l),
(199,0,l)
);
}
);
width = 577;
},
{
anchors = (
{
name = bottom;
pos = (277,0);
},
{
name = center;
pos = (267,350);
},
{
name = top;
pos = (124,700);
},
{
name = topright;
pos = (514,700);
}
);
associatedMasterId = "65988B1E-DCE2-4AC3-A6FF-994A1050067D";
layerId = "74C9DC4D-6C8C-45A5-8086-473651A20056";
name = "Original Skeleton";
shapes = (
{
attr = {
strokeWidth = 2;
};
closed = 0;
nodes = (
(101,698,l),
(101,0,l)
);
},
{
attr = {
strokeWidth = 2;
};
closed = 0;
nodes = (
(101,4,l),
(568,4,l)
);
}
);
width = 534;
},
{
anchors = (
{
name = bottom;
pos = (305,0);
},
{
name = center;
pos = (288,350);
},
{
name = top;
pos = (283,700);
},
{
name = topright;
pos = (585,700);
}
);
layerId = "3D52442A-254C-4C79-B742-A98FD72DF947";
shapes = (
{
closed = 1;
nodes = (
(126,0,l),
(126,687,ls),
(126,700,o),
(116,710,o),
(103,710,cs),
(90,710,o),
(80,700,o),
(80,687,cs),
(80,23,ls),
(80,10,o),
(90,0,o),
(103,0,cs)
);
},
{
closed = 1;
nodes = (
(427,0,ls),
(440,0,o),
(450,10,o),
(450,23,cs),
(450,36,o),
(440,46,o),
(427,46,cs),
(111,46,l),
(111,0,l)
);
}
);
width = 480;
}
);
unicode = 76;
},
{
glyphname = L.ss02;
lastChange = "2021-08-10 20:43:07 +0000";
layers = (
{
anchors = (
{
name = bottom;
pos = (277,0);
},
{
name = center;
pos = (267,350);
},
{
name = top;
pos = (124,700);
},
{
name = topright;
pos = (514,700);
}
);
background = {
shapes = (
{
attr = {
strokeWidth = 2;
};
closed = 0;
nodes = (
(122,700,l),
(122,37,l)
);
},
{
attr = {
strokeWidth = 2;
};
closed = 0;
nodes = (
(124,38,l),
(502,38,l)
);
}
);
};
layerId = "65988B1E-DCE2-4AC3-A6FF-994A1050067D";
shapes = (
{
closed = 1;
nodes = (
(162,0,l),
(162,664,ls),
(162,687,o),
(144,705,o),
(121,705,cs),
(98,705,o),
(80,687,o),
(80,664,cs),
(80,41,ls),
(80,18,o),
(98,0,o),
(121,0,cs)
);
},
{
closed = 1;
nodes = (
(466,0,ls),
(487,0,o),
(504,17,o),
(504,38,cs),
(504,59,o),
(487,76,o),
(466,76,cs),
(146,76,l),
(146,0,l)
);
}
);
width = 534;
},
{
anchors = (
{
name = bottom;
pos = (330,0);
},
{
name = center;
pos = (300,350);
},
{
name = top;
pos = (313,700);
},
{
name = topright;
pos = (580,700);
}
);
layerId = "6242D68C-0A25-4F05-8F2A-2075F7C4A210";
shapes = (
{
closed = 1;
nodes = (
(240,0,l),
(240,628,ls),
(240,672,o),
(204,708,o),
(160,708,cs),
(116,708,o),
(80,672,o),
(80,628,cs),
(80,80,ls),
(80,36,o),
(116,0,o),
(160,0,cs)
);
},
{
closed = 1;
nodes = (
(502,0,ls),
(543,0,o),
(577,34,o),
(577,75,cs),
(577,116,o),
(543,150,o),
(502,150,cs),
(199,150,l),
(199,0,l)
);
}
);
width = 607;
},
{
anchors = (
{
name = bottom;
pos = (277,0);
},
{
name = center;
pos = (267,350);
},
{
name = top;
pos = (124,700);
},
{
name = topright;
pos = (514,700);
}
);
associatedMasterId = "65988B1E-DCE2-4AC3-A6FF-994A1050067D";
layerId = "74C9DC4D-6C8C-45A5-8086-473651A20056";
name = "Original Skeleton";
shapes = (
{
attr = {
strokeWidth = 2;
};
closed = 0;
nodes = (
(101,698,l),
(101,0,l)
);
},
{
attr = {
strokeWidth = 2;
};
closed = 0;
nodes = (
(101,4,l),
(568,4,l)
);
}
);
width = 534;
},
{
anchors = (
{
name = bottom;
pos = (300,0);
},
{
name = center;
pos = (283,350);
},
{
name = top;
pos = (278,700);
},
{
name = topright;
pos = (580,700);
}
);
layerId = "3D52442A-254C-4C79-B742-A98FD72DF947";
shapes = (
{
closed = 1;
nodes = (
(121,0,l),
(121,687,ls),
(121,700,o),
(111,710,o),
(98,710,cs),
(85,710,o),
(75,700,o),
(75,687,cs),
(75,23,ls),
(75,10,o),
(85,0,o),
(98,0,cs)
);
},
{
closed = 1;
nodes = (
(433,0,ls),
(446,0,o),
(456,10,o),
(456,23,cs),
(456,36,o),
(446,46,o),
(433,46,cs),
(106,46,l),
(106,0,l)
);
}
);
width = 486;
}
);
},
{
glyphname = Ldot;
lastChange = "2021-08-09 15:24:35 +0000";
layers = (
{
anchors = (
{
name = bottom;
pos = (277,0);
},
{
name = center;
pos = (267,350);
},
{
name = top;
pos = (124,700);
},
{
name = topright;
pos = (514,700);
}
);
background = {
shapes = (
{
ref = L;
},
{
pos = (264,110);
ref = periodcentered;
}
);
};
layerId = "65988B1E-DCE2-4AC3-A6FF-994A1050067D";
shapes = (
{
closed = 1;
nodes = (
(446,0,ls),
(467,0,o),
(484,17,o),
(484,38,cs),
(484,59,o),
(467,76,o),
(446,76,cs),
(162,76,l),
(162,664,ls),
(162,687,o),
(144,705,o),
(121,705,cs),
(98,705,o),
(80,687,o),
(80,664,cs),
(80,41,ls),
(80,18,o),
(98,0,o),
(121,0,cs)
);
},
{
pos = (280,0);
ref = periodcentered.case;
}
);
width = 514;
},
{
layerId = "6242D68C-0A25-4F05-8F2A-2075F7C4A210";
width = 600;
},
{
layerId = "3D52442A-254C-4C79-B742-A98FD72DF947";
width = 600;
}
);
unicode = 319;
},
{
glyphname = Lslash;
lastChange = "2021-08-04 13:00:20 +0000";
layers = (
{
layerId = "65988B1E-DCE2-4AC3-A6FF-994A1050067D";
shapes = (
{
closed = 1;
nodes = (
(207,76,l),
(207,0,l),
(551,0,ls),
(572,0,o),
(589,17,o),
(589,38,cs),
(589,59,o),
(572,76,o),
(551,76,cs)
);
},
{
closed = 1;
nodes = (
(247,664,ls),
(247,687,o),
(229,705,o),
(206,705,cs),
(183,705,o),
(165,687,o),
(165,664,cs),
(165,41,ls),
(165,18,o),
(183,0,o),
(206,0,cs),
(247,0,l)
);
},
{
attr = {
lineCapEnd = "2";
lineCapStart = "2";
strokeHeight = 78;
strokeWidth = 78;
};
closed = 0;
nodes = (
(48,287,l),
(421,478,l)
);
}
);
width = 619;
},
{
layerId = "6242D68C-0A25-4F05-8F2A-2075F7C4A210";
width = 600;
},
{
layerId = "3D52442A-254C-4C79-B742-A98FD72DF947";
width = 600;
}
);
unicode = 321;
},
{
glyphname = M;
lastChange = "2021-08-05 14:14:04 +0000";
layers = (
{
background = {
shapes = (
{
attr = {
strokeWidth = 2;
};
closed = 0;
nodes = (
(121,30,l),
(121,668,l)
);
},
{
attr = {
strokeWidth = 2;
};
closed = 0;
nodes = (
(131,666,l),
(394,21,l),
(652,666,l)
);
},
{
attr = {
strokeWidth = 2;
};
closed = 0;
nodes = (
(662,30,l),
(662,668,l)
);
},
{
closed = 1;
nodes = (
(413,0,o),
(426,12,o),
(440,46,cs),
(657,579,l),
(627,613,l),
(620,31,ls),
(620,8,o),
(638,-10,o),
(661,-10,cs),
(684,-10,o),
(702,8,o),
(702,31,cs),
(702,669,ls),
(702,692,o),
(684,710,o),
(654,710,cs),
(637,710,o),
(620,699,o),
(614,684,cs),
(376,80,l),
(406,80,l),
(168,684,ls),
(162,699,o),
(145,710,o),
(128,710,cs),
(98,710,o),
(80,692,o),
(80,669,cs),
(80,31,ls),
(80,8,o),
(98,-10,o),
(121,-10,cs),
(144,-10,o),
(162,8,o),
(162,31,cs),
(155,613,l),
(125,579,l),
(342,46,ls),
(356,12,o),
(369,0,o),
(391,0,cs)
);
}
);
};
layerId = "65988B1E-DCE2-4AC3-A6FF-994A1050067D";
shapes = (
{
closed = 1;
nodes = (
(430,-10,o),
(446,5,o),
(460,36,cs),
(707,593,l),
(678,613,l),
(670,31,ls),
(670,8,o),
(688,-10,o),
(711,-10,cs),
(734,-10,o),
(752,8,o),
(752,31,cs),
(752,669,ls),
(752,692,o),
(734,710,o),
(704,710,cs),
(687,710,o),
(671,699,o),
(664,684,cs),
(396,80,l),
(426,80,l),
(168,684,ls),
(162,699,o),
(145,710,o),
(128,710,cs),
(98,710,o),
(80,692,o),
(80,669,cs),
(80,31,ls),
(80,8,o),
(98,-10,o),
(121,-10,cs),
(144,-10,o),
(162,8,o),
(162,31,cs),
(154,613,l),
(125,593,l),
(362,36,ls),
(375,5,o),
(392,-10,o),
(411,-10,cs)
);
}
);
width = 832;
},
{
background = {
shapes = (
{
attr = {
strokeWidth = 2;
};
closed = 0;
nodes = (
(159,71,l),
(159,626,l)
);
},
{
attr = {
strokeWidth = 2;
};
closed = 0;
nodes = (
(168,624,l),
(397,63,l),
(621,624,l)
);
},
{
attr = {
strokeWidth = 2;
};
closed = 0;
nodes = (
(630,71,l),
(630,626,l)
);
},
{
attr = {
strokeWidth = 2;
};
closed = 0;
nodes = (
(159,71,l),
(159,626,l)
);
},
{
attr = {
strokeWidth = 2;
};
closed = 0;
nodes = (
(168,624,l),
(397,63,l),
(621,624,l)
);
},
{
attr = {
strokeWidth = 2;
};
closed = 0;
nodes = (
(630,71,l),
(630,626,l)
);
},
{
closed = 1;
nodes = (
(439,0,o),
(460,38,o),
(477,78,cs),
(581,319,l),
(555,324,l),
(555,65,ls),
(555,24,o),
(589,-10,o),
(630,-10,cs),
(671,-10,o),
(705,24,o),
(705,65,cs),
(705,635,ls),
(705,677,o),
(672,710,o),
(630,710,cs),
(594,710,o),
(567,690,o),
(555,658,cs),
(372,178,l),
(421,178,l),
(233,658,ls),
(221,688,o),
(195,710,o),
(162,710,cs),
(111,710,o),
(84,678,o),
(84,623,cs),
(84,65,ls),
(84,24,o),
(118,-10,o),
(159,-10,cs),
(200,-10,o),
(234,24,o),
(234,65,cs),
(234,329,l),
(208,324,l),
(316,78,ls),
(333,38,o),
(353,0,o),
(396,0,cs)
);
}
);
};
layerId = "6242D68C-0A25-4F05-8F2A-2075F7C4A210";
shapes = (
{
closed = 1;
nodes = (
(449,0,o),
(472,18,o),
(495,68,cs),
(634,378,l),
(615,406,l),
(605,65,ls),
(604,24,o),
(639,-10,o),
(680,-10,cs),
(721,-10,o),
(755,24,o),
(755,65,cs),
(755,635,ls),
(755,677,o),
(722,710,o),
(680,710,cs),
(642,710,o),
(618,688,o),
(605,658,cs),
(391,166,l),
(444,166,l),
(229,658,ls),
(216,688,o),
(193,710,o),
(155,710,cs),
(117,710,o),
(80,682,o),
(80,623,cs),
(80,65,ls),
(80,24,o),
(114,-10,o),
(155,-10,cs),
(196,-10,o),
(231,24,o),
(230,65,cs),
(220,406,l),
(203,378,l),
(334,68,ls),
(355,18,o),
(377,0,o),
(414,0,cs)
);
}
);
width = 835;
},
{
associatedMasterId = "65988B1E-DCE2-4AC3-A6FF-994A1050067D";
layerId = "DD267F0F-BC8F-44EB-B536-100A5EF79BB7";
name = "Original Skeleton";
shapes = (
{
attr = {
strokeWidth = 2;
};
closed = 0;
nodes = (
(101,1,l),
(101,701,l)
);
},
{
attr = {
strokeWidth = 2;
};
closed = 0;
nodes = (
(142,701,l),
(393,1,l),
(640,701,l)
);
},
{
attr = {
strokeWidth = 2;
};
closed = 0;
nodes = (
(688,701,l),
(688,1,l)
);
}
);
width = 782;
},
{
background = {
shapes = (
{
closed = 1;
nodes = (
(359,80,l),
(597,679,ls),
(603,694,o),
(620,705,o),
(637,705,cs),
(667,705,o),
(685,687,o),
(685,664,cs),
(685,37,ls),
(685,14,o),
(667,-4,o),
(644,-4,cs),
(621,-4,o),
(603,14,o),
(603,37,cs),
(610,608,l),
(640,574,l),
(423,36,ls),
(411,5,o),
(393,-10,o),
(374,-10,cs),
(355,-10,o),
(337,5,o),
(325,36,cs),
(108,574,l),
(138,608,l),
(145,37,ls),
(145,14,o),
(127,-4,o),
(104,-4,cs),
(81,-4,o),
(63,14,o),
(63,37,cs),
(63,664,ls),
(63,687,o),
(81,705,o),
(111,705,cs),
(128,705,o),
(145,694,o),
(151,679,cs),
(389,80,l)
);
},
{
attr = {
strokeWidth = 2;
};
closed = 0;
nodes = (
(103,12,l),
(103,691,l)
);
},
{
attr = {
strokeWidth = 2;
};
closed = 0;
nodes = (
(105,680,l),
(376,12,l),
(641,677,l)
);
},
{
attr = {
strokeWidth = 2;
};
closed = 0;
nodes = (
(645,691,l),
(645,12,l)
);
}
);
};
layerId = "3D52442A-254C-4C79-B742-A98FD72DF947";
shapes = (
{
closed = 1;
nodes = (
(382,0,o),
(391,7,o),
(394,15,cs),
(630,595,l),
(622,596,l),
(622,13,ls),
(622,0,o),
(632,-10,o),
(645,-10,cs),
(658,-10,o),
(668,0,o),
(668,13,cs),
(668,687,ls),
(668,700,o),
(658,710,o),
(645,710,c),
(633,710,o),
(625,706,o),
(620,695,cs),
(364,63,l),
(380,63,l),
(126,695,ls),
(122,704,o),
(114,710,o),
(103.576,709.993,cs),
(90,710,o),
(80,700,o),
(80,687,cs),
(80,13,ls),
(80,0,o),
(90,-10,o),
(103,-10,cs),
(116,-10,o),
(126,0,o),
(126,13,cs),
(126,590,l),
(118,589,l),
(350,15,ls),
(353,7,o),
(362,0,o),
(372,0,cs)
);
}
);
width = 748;
}
);
unicode = 77;
},
{
glyphname = M.ss02;
lastChange = "2021-08-10 20:43:09 +0000";
layers = (
{
background = {
shapes = (
{
attr = {
strokeWidth = 2;
};
closed = 0;
nodes = (
(121,30,l),
(121,668,l)
);
},
{
attr = {
strokeWidth = 2;
};
closed = 0;
nodes = (
(131,666,l),
(394,21,l),
(652,666,l)
);
},
{
attr = {
strokeWidth = 2;
};
closed = 0;
nodes = (
(662,30,l),
(662,668,l)
);
},
{
closed = 1;
nodes = (
(413,0,o),
(426,12,o),
(440,46,cs),
(657,579,l),
(627,613,l),
(620,31,ls),
(620,8,o),
(638,-10,o),
(661,-10,cs),
(684,-10,o),
(702,8,o),
(702,31,cs),
(702,669,ls),
(702,692,o),
(684,710,o),
(654,710,cs),
(637,710,o),
(620,699,o),
(614,684,cs),
(376,80,l),
(406,80,l),
(168,684,ls),
(162,699,o),
(145,710,o),
(128,710,cs),
(98,710,o),
(80,692,o),
(80,669,cs),
(80,31,ls),
(80,8,o),
(98,-10,o),
(121,-10,cs),
(144,-10,o),
(162,8,o),
(162,31,cs),
(155,613,l),
(125,579,l),
(342,46,ls),
(356,12,o),
(369,0,o),
(391,0,cs)
);
}
);
};
layerId = "65988B1E-DCE2-4AC3-A6FF-994A1050067D";
shapes = (
{
closed = 1;
nodes = (
(430,-10,o),
(446,5,o),
(460,36,cs),
(707,593,l),
(678,613,l),
(670,31,ls),
(670,8,o),
(688,-10,o),
(711,-10,cs),
(734,-10,o),
(752,8,o),
(752,31,cs),
(752,669,ls),
(752,692,o),
(734,710,o),
(704,710,cs),
(687,710,o),
(671,699,o),
(664,684,cs),
(396,80,l),
(426,80,l),
(168,684,ls),
(162,699,o),
(145,710,o),
(128,710,cs),
(98,710,o),
(80,692,o),
(80,669,cs),
(80,31,ls),
(80,8,o),
(98,-10,o),
(121,-10,cs),
(144,-10,o),
(162,8,o),
(162,31,cs),
(154,613,l),
(125,593,l),
(362,36,ls),
(375,5,o),
(392,-10,o),
(411,-10,cs)
);
}
);
width = 832;
},
{
background = {
shapes = (
{
attr = {
strokeWidth = 2;
};
closed = 0;
nodes = (
(134,71,l),
(134,626,l)
);
},
{
attr = {
strokeWidth = 2;
};
closed = 0;
nodes = (
(143,624,l),
(372,63,l),
(596,624,l)
);
},
{
attr = {
strokeWidth = 2;
};
closed = 0;
nodes = (
(605,71,l),
(605,626,l)
);
},
{
attr = {
strokeWidth = 2;
};
closed = 0;
nodes = (
(134,71,l),
(134,626,l)
);
},
{
attr = {
strokeWidth = 2;
};
closed = 0;
nodes = (
(143,624,l),
(372,63,l),
(596,624,l)
);
},
{
attr = {
strokeWidth = 2;
};
closed = 0;
nodes = (
(605,71,l),
(605,626,l)
);
},
{
closed = 1;
nodes = (
(414,0,o),
(435,38,o),
(452,78,cs),
(556,319,l),
(530,324,l),
(530,65,ls),
(530,24,o),
(564,-10,o),
(605,-10,cs),
(646,-10,o),
(680,24,o),
(680,65,cs),
(680,635,ls),
(680,677,o),
(647,710,o),
(605,710,cs),
(569,710,o),
(542,690,o),
(530,658,cs),
(347,178,l),
(396,178,l),
(208,658,ls),
(196,688,o),
(170,710,o),
(137,710,cs),
(86,710,o),
(59,678,o),
(59,623,cs),
(59,65,ls),
(59,24,o),
(93,-10,o),
(134,-10,cs),
(175,-10,o),
(209,24,o),
(209,65,cs),
(209,329,l),
(183,324,l),
(291,78,ls),
(308,38,o),
(328,0,o),
(371,0,cs)
);
}
);
};
layerId = "6242D68C-0A25-4F05-8F2A-2075F7C4A210";
shapes = (
{
closed = 1;
nodes = (
(445,197,l),
(260,650,ls),
(247,681,o),
(227,710,o),
(176,710,cs),
(124,710,o),
(86,682,o),
(85,623,cs),
(80,65,ls),
(80,24,o),
(114,-10,o),
(159,-10,cs),
(203,-10,o),
(238,24,o),
(237,65,cs),
(227,576,l),
(146,568,l),
(346,53,ls),
(359,20,o),
(390,0,o),
(424,0,cs),
(458,0,o),
(489,20,o),
(502,53,cs),
(702,568,l),
(621,576,l),
(611,65,ls),
(610,24,o),
(645,-10,o),
(690,-10,cs),
(735,-10,o),
(769,24,o),
(769,65,cs),
(763,623,ls),
(762,682,o),
(724,710,o),
(672,710,cs),
(621,710,o),
(601,681,o),
(588,650,cs),
(403,197,l)
);
}
);
width = 849;
},
{
associatedMasterId = "65988B1E-DCE2-4AC3-A6FF-994A1050067D";
layerId = "DD267F0F-BC8F-44EB-B536-100A5EF79BB7";
name = "Original Skeleton";
shapes = (
{
attr = {
strokeWidth = 2;
};
closed = 0;
nodes = (
(101,1,l),
(101,701,l)
);
},
{
attr = {
strokeWidth = 2;
};
closed = 0;
nodes = (
(142,701,l),
(393,1,l),
(640,701,l)
);
},
{
attr = {
strokeWidth = 2;
};
closed = 0;
nodes = (
(688,701,l),
(688,1,l)
);
}
);
width = 782;
},
{
background = {
shapes = (
{
closed = 1;
nodes = (
(359,80,l),
(597,679,ls),
(603,694,o),
(620,705,o),
(637,705,cs),
(667,705,o),
(685,687,o),
(685,664,cs),
(685,37,ls),
(685,14,o),
(667,-4,o),
(644,-4,cs),
(621,-4,o),
(603,14,o),
(603,37,cs),
(610,608,l),
(640,574,l),
(423,36,ls),
(411,5,o),
(393,-10,o),
(374,-10,cs),
(355,-10,o),
(337,5,o),
(325,36,cs),
(108,574,l),
(138,608,l),
(145,37,ls),
(145,14,o),
(127,-4,o),
(104,-4,cs),
(81,-4,o),
(63,14,o),
(63,37,cs),
(63,664,ls),
(63,687,o),
(81,705,o),
(111,705,cs),
(128,705,o),
(145,694,o),
(151,679,cs),
(389,80,l)
);
},
{
attr = {
strokeWidth = 2;
};
closed = 0;
nodes = (
(103,12,l),
(103,691,l)
);
},
{
attr = {
strokeWidth = 2;
};
closed = 0;
nodes = (
(105,680,l),
(376,12,l),
(641,677,l)
);
},
{
attr = {
strokeWidth = 2;
};
closed = 0;
nodes = (
(645,691,l),
(645,12,l)
);
}
);
};
layerId = "3D52442A-254C-4C79-B742-A98FD72DF947";
shapes = (
{
closed = 1;
nodes = (
(382,0,o),
(391,7,o),
(394,15,cs),
(630,595,l),
(622,596,l),
(622,13,ls),
(622,0,o),
(632,-10,o),
(645,-10,cs),
(658,-10,o),
(668,0,o),
(668,13,cs),
(668,687,ls),
(668,700,o),
(658,710,o),
(645,710,c),
(633,710,o),
(625,706,o),
(620,695,cs),
(364,63,l),
(380,63,l),
(126,695,ls),
(122,704,o),
(114,710,o),
(103.576,709.993,cs),
(90,710,o),
(80,700,o),
(80,687,cs),
(80,13,ls),
(80,0,o),
(90,-10,o),
(103,-10,cs),
(116,-10,o),
(126,0,o),
(126,13,cs),
(126,590,l),
(118,589,l),
(350,15,ls),
(353,7,o),
(362,0,o),
(372,0,cs)
);
}
);
width = 748;
}
);
},
{
glyphname = N;
lastChange = "2021-08-08 22:08:36 +0000";
layers = (
{
anchors = (
{
name = bottom;
pos = (329,0);
},
{
name = top;
pos = (329,700);
}
);
background = {
shapes = (
{
attr = {
strokeWidth = 2;
};
closed = 0;
nodes = (
(121,0,l),
(121,700,l)
);
},
{
attr = {
strokeWidth = 2;
};
closed = 0;
nodes = (
(130,678,l),
(551,0,l)
);
},
{
attr = {
strokeWidth = 2;
};
closed = 0;
nodes = (
(540,32,l),
(540,700,l)
);
}
);
};
layerId = "65988B1E-DCE2-4AC3-A6FF-994A1050067D";
shapes = (
{
closed = 1;
nodes = (
(144,-4,o),
(162,14,o),
(162,37,cs),
(158,608,l),
(105,636,l),
(480,31,ls),
(493,10,o),
(504,-5,o),
(536,-5,cs),
(559,-5,o),
(577,13,o),
(577,36,cs),
(577,664,ls),
(577,687,o),
(559,705,o),
(536,705,cs),
(513,705,o),
(495,687,o),
(495,664,cs),
(500,71,l),
(515,122,l),
(177,669,ls),
(164,690,o),
(153,705,o),
(121,705,cs),
(98,705,o),
(80,687,o),
(80,664,cs),
(80,37,ls),
(80,14,o),
(98,-4,o),
(121,-4,cs)
);
}
);
width = 657;
},
{
anchors = (
{
name = bottom;
pos = (393,0);
},
{
name = top;
pos = (393,700);
}
);
background = {
shapes = (
{
attr = {
strokeWidth = 2;
};
closed = 0;
nodes = (
(166,0,l),
(166,700,l),
(209,700,l),
(596,0,l),
(625,0,l),
(625,700,l)
);
},
{
closed = 1;
nodes = (
(222,-10,o),
(261,29,o),
(260,76,cs),
(249,641,l),
(138,625,l),
(473,40,ls),
(490,11,o),
(516,-20,o),
(581,-20,cs),
(655,-20,o),
(698,16,o),
(698,79,cs),
(698,625,ls),
(698,671,o),
(660,710,o),
(613,710,cs),
(566,710,o),
(527,671,o),
(528,625,cs),
(539,21,l),
(654,58,l),
(315,650,ls),
(298,680,o),
(272,710,o),
(199,710,cs),
(133,710,o),
(90,674,o),
(90,611,cs),
(90,76,ls),
(90,29,o),
(128,-10,o),
(175,-10,cs)
);
},
{
closed = 1;
nodes = (
(214,-8,o),
(250,28,o),
(250,72,cs),
(250,281,l),
(524,281,l),
(524,72,ls),
(524,28,o),
(560,-8,o),
(604,-8,cs),
(648,-8,o),
(684,28,o),
(684,72,cs),
(684,628,ls),
(684,672,o),
(648,708,o),
(604,708,cs),
(560,708,o),
(524,672,o),
(524,628,cs),
(524,431,l),
(250,431,l),
(250,628,ls),
(250,672,o),
(214,708,o),
(170,708,cs),
(126,708,o),
(90,672,o),
(90,628,cs),
(90,72,ls),
(90,28,o),
(126,-8,o),
(170,-8,cs)
);
}
);
};
layerId = "6242D68C-0A25-4F05-8F2A-2075F7C4A210";
shapes = (
{
closed = 1;
nodes = (
(201,-10,o),
(237,25,o),
(236,68,cs),
(228,490,l),
(194,459,l),
(538,21,ls),
(552,3,o),
(574,-11,o),
(602,-11,cs),
(645,-11,o),
(680,24,o),
(680,67,cs),
(680,651,ls),
(680,694,o),
(645,729,o),
(602,729,cs),
(559,729,o),
(523,694,o),
(524,651,cs),
(532,179,l),
(553,234,l),
(221,678,ls),
(205,699,o),
(183,710,o),
(158,710,cs),
(115,710,o),
(80,675,o),
(80,632,cs),
(80,68,ls),
(80,25,o),
(115,-10,o),
(158,-10,cs)
);
}
);
width = 760;
},
{
associatedMasterId = "65988B1E-DCE2-4AC3-A6FF-994A1050067D";
background = {
shapes = (
{
attr = {
strokeWidth = 2;
};
closed = 0;
nodes = (
(121,0,l),
(121,700,l),
(164,700,l),
(551,0,l),
(580,0,l),
(580,700,l)
);
},
{
closed = 1;
nodes = (
(142,-10,o),
(160,8,o),
(160,31,cs),
(160,332,l),
(512,332,l),
(512,31,ls),
(512,8,o),
(530,-10,o),
(553,-10,cs),
(576,-10,o),
(594,8,o),
(594,31,cs),
(594,669,ls),
(594,692,o),
(576,710,o),
(553,710,cs),
(530,710,o),
(512,692,o),
(512,669,cs),
(512,408,l),
(160,408,l),
(160,669,ls),
(160,692,o),
(142,710,o),
(119,710,cs),
(96,710,o),
(78,692,o),
(78,669,cs),
(78,31,ls),
(78,8,o),
(96,-10,o),
(119,-10,cs)
);
}
);
};
layerId = "4F32692D-A073-4367-80EE-3CF7FA349304";
name = "Original Skeleton";
shapes = (
{
attr = {
strokeWidth = 2;
};
closed = 0;
nodes = (
(101,0,l),
(101,700,l),
(144,700,l),
(531,0,l),
(560,0,l),
(560,700,l)
);
}
);
width = 657;
},
{
anchors = (
{
name = bottom;
pos = (319,0);
},
{
name = top;
pos = (319,700);
}
);
background = {
shapes = (
{
closed = 1;
nodes = (
(127,-10,o),
(140,3,o),
(140,20,cs),
(139,609,l),
(126,607,l),
(504,6,ls),
(508,-1,o),
(519,-10,o),
(536,-10,cs),
(553,-10,o),
(566,3,o),
(566,20,cs),
(566,680,ls),
(566,697,o),
(553,710,o),
(536,710,cs),
(519,710,o),
(506,697,o),
(506,680,cs),
(507,91,l),
(520,90,l),
(138,694,ls),
(133,702,o),
(125,710,o),
(111,710,cs),
(94,710,o),
(80,697,o),
(80,680,cs),
(80,20,ls),
(80,3,o),
(93,-10,o),
(110,-10,cs)
);
}
);
};
layerId = "3D52442A-254C-4C79-B742-A98FD72DF947";
shapes = (
{
closed = 1;
nodes = (
(116,-10,o),
(126,0,o),
(126,13,cs),
(125,635,l),
(115,630,l),
(515,0,ls),
(519,-6,o),
(526,-10,o),
(534,-10,cs),
(548,-10,o),
(558,0,o),
(558,13,cs),
(558,687,ls),
(558,700,o),
(548,710,o),
(535,710,cs),
(522,710,o),
(512,700,o),
(512,687,cs),
(513,67,l),
(523,70,l),
(123,700,ls),
(119,706,o),
(112,710,o),
(102,710,cs),
(88,710,o),
(80,700,o),
(80,687,cs),
(80,13,ls),
(80,0,o),
(90,-10,o),
(103,-10,cs)
);
}
);
width = 638;
}
);
unicode = 78;
},
{
glyphname = N.ss02;
lastChange = "2021-08-10 20:43:12 +0000";
layers = (
{
layerId = "65988B1E-DCE2-4AC3-A6FF-994A1050067D";
shapes = (
{
closed = 1;
nodes = (
(144,-5,o),
(162,13,o),
(162,36,cs),
(158,608,l),
(111,636,l),
(507,40,ls),
(520,20,o),
(543,-6,o),
(578,-5,cs),
(606,-4,o),
(624,13,o),
(624,36,cs),
(624,664,ls),
(624,687,o),
(606,705,o),
(583,705,cs),
(560,705,o),
(542,687,o),
(542,664,cs),
(542,71,l),
(556,113,l),
(183,669,ls),
(169,690,o),
(149,705,o),
(125,705,cs),
(98,705,o),
(80,687,o),
(80,664,cs),
(80,36,ls),
(80,13,o),
(98,-5,o),
(121,-5,cs)
);
}
);
width = 704;
},
{
background = {
shapes = (
{
closed = 1;
nodes = (
(121,-10,o),
(156,25,o),
(156,68,cs),
(156,632,ls),
(156,675,o),
(121,710,o),
(78,710,cs),
(35,710,o),
(0,675,o),
(0,632,cs),
(0,68,ls),
(0,25,o),
(35,-10,o),
(78,-10,cs)
);
},
{
closed = 1;
nodes = (
(561,-10,o),
(596,25,o),
(596,68,cs),
(596,632,ls),
(596,675,o),
(561,710,o),
(518,710,cs),
(475,710,o),
(440,675,o),
(440,632,cs),
(440,68,ls),
(440,25,o),
(475,-10,o),
(518,-10,cs)
);
},
{
closed = 1;
nodes = (
(525,281,l),
(525,431,l),
(108,431,l),
(108,281,l)
);
}
);
};
layerId = "6242D68C-0A25-4F05-8F2A-2075F7C4A210";
shapes = (
{
closed = 1;
nodes = (
(121,-10,o),
(157,25,o),
(156,68,cs),
(148,490,l),
(110,459,l),
(418,11,ls),
(430,-7,o),
(454,-21,o),
(482,-21,cs),
(525,-21,o),
(560,14,o),
(560,57,cs),
(560,641,ls),
(560,684,o),
(525,719,o),
(482,719,cs),
(439,719,o),
(403,684,o),
(404,641,cs),
(412,169,l),
(441,224,l),
(141,678,ls),
(127,700,o),
(103,710,o),
(78,710,cs),
(35,710,o),
(0,675,o),
(0,632,cs),
(0,68,ls),
(0,25,o),
(35,-10,o),
(78,-10,cs)
);
}
);
width = 560;
},
{
layerId = "3D52442A-254C-4C79-B742-A98FD72DF947";
shapes = (
{
closed = 1;
nodes = (
(116,-10,o),
(126,0,o),
(126,13,cs),
(125,635,l),
(115,630,l),
(515,0,ls),
(519,-6,o),
(526,-10,o),
(534,-10,cs),
(548,-10,o),
(558,0,o),
(558,13,cs),
(558,687,ls),
(558,700,o),
(548,710,o),
(535,710,cs),
(522,710,o),
(512,700,o),
(512,687,cs),
(513,67,l),
(523,70,l),
(123,700,ls),
(119,706,o),
(112,710,o),
(102,710,cs),
(88,710,o),
(80,700,o),
(80,687,cs),
(80,13,ls),
(80,0,o),
(90,-10,o),
(103,-10,cs)
);
}
);
width = 638;
}
);
},
{
glyphname = Eng;
lastChange = "2021-08-04 13:00:20 +0000";
layers = (
{
anchors = (
{
name = bottom;
pos = (907,0);
},
{
name = top;
pos = (1037,700);
}
);
layerId = "65988B1E-DCE2-4AC3-A6FF-994A1050067D";
shapes = (
{
ref = N;
},
{
closed = 1;
nodes = (
(478,35,l),
(486,22,o),
(497,8,o),
(497,-18,cs),
(497,-64,o),
(462,-106,o),
(406,-106,cs),
(346,-106,o),
(315,-58,o),
(315,0,cs),
(315,23,o),
(299,41,o),
(276,41,cs),
(253,41,o),
(235,23,o),
(235,-13,cs),
(235,-86,o),
(289,-185,o),
(412,-185,cs),
(533,-185,o),
(577,-77,o),
(577,21,cs),
(577,35,l)
);
}
);
width = 657;
},
{
layerId = "6242D68C-0A25-4F05-8F2A-2075F7C4A210";
width = 600;
},
{
layerId = "3D52442A-254C-4C79-B742-A98FD72DF947";
width = 600;
}
);
metricLeft = "=N";
metricRight = "=N";
unicode = 330;
},
{
glyphname = O;
lastChange = "2021-08-10 19:31:02 +0000";
layers = (
{
anchors = (
{
name = bottom;
pos = (344,0);
},
{
name = center;
pos = (344,350);
},
{
name = ogonek;
pos = (432,0);
},
{
name = top;
pos = (344,700);
},
{
name = topleft;
pos = (20,700);
},
{
name = topright;
pos = (668,700);
}
);
background = {
shapes = (
{
attr = {
strokeWidth = 2;
};
closed = 1;
nodes = (
(587,162,o),
(485,23,o),
(344,23,cs),
(203,23,o),
(101,161,o),
(101,351,c),
(101,543,o),
(203,682,o),
(344,682,cs),
(485,682,o),
(587,543,o),
(587,351,c)
);
}
);
};
layerId = "65988B1E-DCE2-4AC3-A6FF-994A1050067D";
shapes = (
{
closed = 1;
nodes = (
(520,-15,o),
(628,129,o),
(628,350,cs),
(628,571,o),
(510,715,o),
(344,715,cs),
(178,715,o),
(60,571,o),
(60,350,cs),
(60,129,o),
(168,-15,o),
(344,-15,cs)
);
},
{
closed = 1;
nodes = (
(218,60,o),
(142,178,o),
(142,350,cs),
(142,521,o),
(218,640,o),
(344,640,cs),
(470,640,o),
(546,521,o),
(546,350,cs),
(546,178,o),
(470,60,o),
(344,60,cs)
);
}
);
width = 688;
},
{
anchors = (
{
name = bottom;
pos = (375,0);
},
{
name = center;
pos = (375,350);
},
{
name = ogonek;
pos = (444,0);
},
{
name = top;
pos = (375,700);
},
{
name = topleft;
pos = (4,700);
},
{
name = topright;
pos = (746,700);
}
);
background = {
shapes = (
{
closed = 1;
nodes = (
(199,-14,o),
(91,130,o),
(91,350,cs),
(91,571,o),
(209,715,o),
(375,715,cs),
(541,715,o),
(659,571,o),
(659,350,cs),
(659,130,o),
(551,-14,o),
(375,-14,c)
);
},
{
closed = 1;
nodes = (
(249,640,o),
(173,521,o),
(173,350,cs),
(173,179,o),
(249,61,o),
(375,61,cs),
(501,61,o),
(577,179,o),
(577,350,cs),
(577,521,o),
(501,640,o),
(375,640,cs)
);
},
{
attr = {
strokeWidth = 2;
};
closed = 1;
nodes = (
(618,158,o),
(516,19,o),
(375,19,cs),
(234,19,o),
(132,158,o),
(132,351,c),
(132,543,o),
(234,682,o),
(375,682,cs),
(516,682,o),
(618,543,o),
(618,351,c)
);
},
{
closed = 1;
nodes = (
(203,-8,o),
(239,28,o),
(239,72,cs),
(239,281,l),
(513,281,l),
(513,72,ls),
(513,28,o),
(549,-8,o),
(593,-8,cs),
(637,-8,o),
(673,28,o),
(673,72,cs),
(673,628,ls),
(673,672,o),
(637,708,o),
(593,708,cs),
(549,708,o),
(513,672,o),
(513,628,cs),
(513,431,l),
(239,431,l),
(239,628,ls),
(239,672,o),
(203,708,o),
(159,708,cs),
(115,708,o),
(79,672,o),
(79,628,cs),
(79,72,ls),
(79,28,o),
(115,-8,o),
(159,-8,cs)
);
}
);
};
layerId = "6242D68C-0A25-4F05-8F2A-2075F7C4A210";
shapes = (
{
closed = 1;
nodes = (
(557,-14,o),
(690,136,o),
(690,351,cs),
(690,566,o),
(562,715,o),
(380,715,cs),
(198,715,o),
(60,566,o),
(60,351,cs),
(60,136,o),
(193,-14,o),
(375,-14,cs)
);
},
{
closed = 1;
nodes = (
(279,126,o),
(217,220,o),
(217,351,cs),
(217,482,o),
(279,575,o),
(375,575,cs),
(471,575,o),
(533,482,o),
(533,351,cs),
(533,220,o),
(471,126,o),
(375,126,cs)
);
}
);
width = 750;
},
{
associatedMasterId = "65988B1E-DCE2-4AC3-A6FF-994A1050067D";
background = {
shapes = (
{
attr = {
strokeWidth = 2;
};
closed = 1;
nodes = (
(587,158,o),
(485,19,o),
(344,19,cs),
(203,19,o),
(101,158,o),
(101,351,c),
(101,543,o),
(203,682,o),
(344,682,cs),
(485,682,o),
(587,543,o),
(587,351,c)
);
},
{
closed = 1;
nodes = (
(465,84,o),
(540,185,o),
(540,350,cs),
(540,515,o),
(465,616,o),
(343,616,cs),
(221,616,o),
(146,515,o),
(146,350,cs),
(146,185,o),
(221,84,o),
(343,84,cs)
);
},
{
closed = 1;
nodes = (
(157,-20,o),
(40,123,o),
(40,350,cs),
(40,577,o),
(157,720,o),
(343,720,cs),
(529,720,o),
(646,577,o),
(646,350,cs),
(646,123,o),
(529,-20,o),
(343,-20,cs)
);
}
);
};
layerId = "8B5E1BA3-4DA6-4A44-AC2C-89FF2CF17CA5";
name = "Original Skeleton";
shapes = (
{
attr = {
strokeWidth = 2;
};
closed = 1;
nodes = (
(579,152,o),
(463,-7,o),
(320,-7,cs),
(177,-7,o),
(61,152,o),
(61,347,c),
(61,542,o),
(177,700,o),
(320,700,cs),
(463,700,o),
(579,542,o),
(579,347,c)
);
}
);
width = 688;
},
{
anchors = (
{
name = bottom;
pos = (329,0);
},
{
name = center;
pos = (329,350);
},
{
name = ogonek;
pos = (389,0);
},
{
name = top;
pos = (329,700);
},
{
name = topleft;
pos = (49,700);
},
{
name = topright;
pos = (609,700);
}
);
background = {
shapes = (
{
attr = {
strokeWidth = 2;
};
closed = 1;
nodes = (
(582,152,o),
(478,9,o),
(333,9,cs),
(187,9,o),
(83,152,o),
(83,350,c),
(83,548,o),
(187,691,o),
(333,691,cs),
(478,691,o),
(582,548,o),
(582,350,c)
);
},
{
closed = 1;
nodes = (
(138,-10,o),
(148,0,o),
(148,13,cs),
(148,687,ls),
(148,700,o),
(138,710,o),
(125,710,cs),
(112,710,o),
(102,700,o),
(102,687,cs),
(102,13,ls),
(102,0,o),
(112,-10,o),
(125,-10,cs)
);
},
{
closed = 1;
nodes = (
(563,-10,o),
(573,0,o),
(573,13,cs),
(573,687,ls),
(573,700,o),
(563,710,o),
(550,710,cs),
(537,710,o),
(527,700,o),
(527,687,cs),
(527,13,ls),
(527,0,o),
(537,-10,o),
(550,-10,cs)
);
},
{
closed = 1;
nodes = (
(535,344,l),
(535,389,l),
(138,389,l),
(138,344,l)
);
}
);
};
layerId = "3D52442A-254C-4C79-B742-A98FD72DF947";
shapes = (
{
closed = 1;
nodes = (
(493,-14,o),
(605,141,o),
(605,350,cs),
(605,559,o),
(493,714,o),
(333,714,cs),
(172,714,o),
(60,559,o),
(60,350,cs),
(60,141,o),
(172,-14,o),
(333,-14,cs)
);
},
{
closed = 1;
nodes = (
(199,32,o),
(106,159,o),
(106,350,cs),
(106,541,o),
(199,668,o),
(333,668,cs),
(466,668,o),
(559,541,o),
(559,350,cs),
(559,159,o),
(466,32,o),
(333,32,cs)
);
}
);
width = 665;
}
);
unicode = 79;
},
{
glyphname = O.ss02;
lastChange = "2021-08-10 20:43:14 +0000";
layers = (
{
anchors = (
{
name = bottom;
pos = (347,0);
},
{
name = center;
pos = (347,350);
},
{
name = ogonek;
pos = (625,10);
},
{
name = top;
pos = (347,700);
},
{
name = topleft;
pos = (20,700);
},
{
name = topright;
pos = (674,700);
}
);
background = {
shapes = (
{
closed = 1;
nodes = (
(557,179,o),
(481,58,o),
(349,58,cs),
(218,58,o),
(142,179,o),
(142,350,cs),
(142,521,o),
(218,643,o),
(349,643,cs),
(481,643,o),
(557,521,o),
(557,350,cs)
);
},
{
closed = 1;
nodes = (
(634,571,o),
(531,715,o),
(349,715,cs),
(178,715,o),
(60,571,o),
(60,350,cs),
(60,130,o),
(168,-14,o),
(349,-14,cs),
(531,-14,o),
(634,130,o),
(634,350,cs)
);
},
{
closed = 1;
nodes = (
(532,179,o),
(463,61,o),
(341,61,cs),
(220,61,o),
(146,179,o),
(146,350,cs),
(146,521,o),
(220,640,o),
(341,640,cs),
(463,640,o),
(532,521,o),
(532,350,cs)
);
},
{
closed = 1;
nodes = (
(618,571,o),
(513,715,o),
(341,715,cs),
(170,715,o),
(60,571,o),
(60,350,cs),
(60,130,o),
(168,-14,o),
(339,-14,cs),
(511,-14,o),
(618,130,o),
(618,350,cs)
);
}
);
};
layerId = "65988B1E-DCE2-4AC3-A6FF-994A1050067D";
shapes = (
{
closed = 1;
nodes = (
(532,179,o),
(463,61,o),
(341,61,cs),
(220,61,o),
(146,179,o),
(146,350,cs),
(146,521,o),
(220,640,o),
(341,640,cs),
(463,640,o),
(532,521,o),
(532,350,cs)
);
},
{
closed = 1;
nodes = (
(618,571,o),
(513,715,o),
(341,715,cs),
(170,715,o),
(60,571,o),
(60,350,cs),
(60,130,o),
(168,-14,o),
(339,-14,cs),
(511,-14,o),
(618,130,o),
(618,350,cs)
);
}
);
width = 694;
},
{
layerId = "6242D68C-0A25-4F05-8F2A-2075F7C4A210";
width = 600;
},
{
layerId = "3D52442A-254C-4C79-B742-A98FD72DF947";
width = 600;
}
);
},
{
glyphname = Ohorn;
lastChange = "2021-08-04 13:00:20 +0000";
layers = (
{
anchors = (
{
name = bottom;
pos = (344,0);
},
{
name = top;
pos = (344,700);
}
);
layerId = "65988B1E-DCE2-4AC3-A6FF-994A1050067D";
shapes = (
{
closed = 1;
nodes = (
(168,-14,o),
(60,130,o),
(60,350,cs),
(60,571,o),
(178,715,o),
(344,715,cs),
(510,715,o),
(628,571,o),
(628,350,cs),
(628,130,o),
(520,-14,o),
(344,-14,c)
);
},
{
closed = 1;
nodes = (
(218,640,o),
(142,521,o),
(142,350,cs),
(142,179,o),
(218,61,o),
(344,61,cs),
(470,61,o),
(546,179,o),
(546,350,cs),
(546,521,o),
(470,640,o),
(344,640,cs)
);
},
{
closed = 1;
nodes = (
(495,837,o),
(509,851,o),
(533,851,cs),
(553,851,o),
(567,835,o),
(567,813,cs),
(567,743,o),
(500,665,o),
(435,665,cs),
(347,665,l),
(348,715,l),
(387,715,ls),
(447,715,o),
(495,760,o),
(495,813,c)
);
}
);
width = 688;
},
{
anchors = (
{
name = bottom;
pos = (300,0);
},
{
name = top;
pos = (300,700);
}
);
layerId = "6242D68C-0A25-4F05-8F2A-2075F7C4A210";
width = 600;
},
{
anchors = (
{
name = bottom;
pos = (300,0);
},
{
name = top;
pos = (300,700);
}
);
layerId = "3D52442A-254C-4C79-B742-A98FD72DF947";
width = 600;
}
);
unicode = 416;
},
{
glyphname = Ohornacute;
lastChange = "2021-08-04 13:00:20 +0000";
layers = (
{
layerId = "65988B1E-DCE2-4AC3-A6FF-994A1050067D";
shapes = (
{
ref = Ohorn;
},
{
pos = (251,170);
ref = acutecomb;
},
{
closed = 1;
nodes = (
(168,-14,o),
(60,130,o),
(60,350,cs),
(60,571,o),
(178,715,o),
(344,715,cs),
(510,715,o),
(628,571,o),
(628,350,cs),
(628,130,o),
(520,-14,o),
(344,-14,c)
);
},
{
closed = 1;
nodes = (
(218,640,o),
(142,521,o),
(142,350,cs),
(142,179,o),
(218,61,o),
(344,61,cs),
(470,61,o),
(546,179,o),
(546,350,cs),
(546,521,o),
(470,640,o),
(344,640,cs)
);
}
);
width = 600;
},
{
layerId = "6242D68C-0A25-4F05-8F2A-2075F7C4A210";
width = 600;
},
{
layerId = "3D52442A-254C-4C79-B742-A98FD72DF947";
width = 600;
}
);
unicode = 7898;
},
{
glyphname = Ohorntilde;
lastChange = "2021-08-09 15:21:36 +0000";
layers = (
{
anchors = (
{
name = bottom;
pos = (344,0);
},
{
name = top;
pos = (344,700);
}
);
layerId = "65988B1E-DCE2-4AC3-A6FF-994A1050067D";
shapes = (
{
closed = 1;
nodes = (
(168,-14,o),
(60,130,o),
(60,350,cs),
(60,571,o),
(178,715,o),
(344,715,cs),
(510,715,o),
(628,571,o),
(628,350,cs),
(628,130,o),
(520,-14,o),
(344,-14,c)
);
},
{
closed = 1;
nodes = (
(218,640,o),
(142,521,o),
(142,350,cs),
(142,179,o),
(218,61,o),
(344,61,cs),
(470,61,o),
(546,179,o),
(546,350,cs),
(546,521,o),
(470,640,o),
(344,640,cs)
);
},
{
closed = 1;
nodes = (
(545,837,o),
(559,851,o),
(583,851,cs),
(603,851,o),
(617,835,o),
(617,813,cs),
(617,743,o),
(550,665,o),
(485,665,cs),
(347,665,l),
(348,715,l),
(437,715,ls),
(497,715,o),
(545,760,o),
(545,813,c)
);
},
{
pos = (123,185);
ref = tildecomb.loclVIT;
}
);
width = 688;
},
{
layerId = "6242D68C-0A25-4F05-8F2A-2075F7C4A210";
width = 600;
},
{
layerId = "3D52442A-254C-4C79-B742-A98FD72DF947";
width = 600;
}
);
unicode = 7904;
},
{
glyphname = Oogonek;
lastChange = "2021-08-09 23:56:12 +0000";
layers = (
{
layerId = "65988B1E-DCE2-4AC3-A6FF-994A1050067D";
shapes = (
{
ref = O;
},
{
closed = 1;
nodes = (
(453,-113,o),
(444,-121,o),
(428,-121,cs),
(408,-121,o),
(404,-109,o),
(404,-101,cs),
(404,-60,o),
(486,16,o),
(535,65,cs),
(536,66,l),
(492,96,l),
(448,53,ls),
(443,48,o),
(334,-31,o),
(334,-109,cs),
(334,-160,o),
(379,-184,o),
(426,-185,cs),
(452,-186,o),
(486,-180,o),
(518,-146,cs),
(524,-139,o),
(528,-131,o),
(528,-121,cs),
(528,-101,o),
(514,-87,o),
(494,-87,cs),
(483,-87,o),
(474,-91,o),
(467,-98,cs)
);
}
);
width = 688;
},
{
layerId = "6242D68C-0A25-4F05-8F2A-2075F7C4A210";
width = 600;
},
{
layerId = "3D52442A-254C-4C79-B742-A98FD72DF947";
width = 600;
}
);
unicode = 490;
},
{
glyphname = Oslash;
lastChange = "2021-08-09 04:34:19 +0000";
layers = (
{
anchors = (
{
name = bottom;
pos = (355,0);
},
{
name = top;
pos = (355,700);
}
);
layerId = "65988B1E-DCE2-4AC3-A6FF-994A1050067D";
shapes = (
{
closed = 1;
nodes = (
(526,-14,o),
(634,130,o),
(634,350,cs),
(634,571,o),
(516,715,o),
(350,715,cs),
(184,715,o),
(66,571,o),
(66,350,cs),
(66,130,o),
(174,-14,o),
(350,-14,c)
);
},
{
closed = 1;
nodes = (
(224,61,o),
(148,179,o),
(148,350,cs),
(148,521,o),
(224,640,o),
(350,640,cs),
(476,640,o),
(552,521,o),
(552,350,cs),
(552,179,o),
(476,61,o),
(350,61,cs)
);
},
{
attr = {
lineCapEnd = "2";
lineCapStart = "2";
strokeHeight = 68;
strokeWidth = 68;
};
closed = 0;
nodes = (
(624,730,l),
(75,-16,l)
);
}
);
width = 709;
},
{
layerId = "6242D68C-0A25-4F05-8F2A-2075F7C4A210";
width = 600;
},
{
layerId = "3D52442A-254C-4C79-B742-A98FD72DF947";
width = 600;
}
);
unicode = 216;
},
{
glyphname = OE;
lastChange = "2021-08-04 13:00:20 +0000";
layers = (
{
anchors = (
{
name = bottom;
pos = (472,0);
},
{
name = top;
pos = (472,700);
}
);
annotations = (
{
pos = (1101.167,737.687);
text = "place holder";
type = Text;
}
);
layerId = "65988B1E-DCE2-4AC3-A6FF-994A1050067D";
shapes = (
{
closed = 1;
nodes = (
(507,657,l),
(462,695,o),
(406,715,o),
(344,715,cs),
(178,715,o),
(60,571,o),
(60,350,cs),
(60,130,o),
(168,-14,o),
(344,-14,c),
(408,-14,o),
(463,5,o),
(507,40,c),
(507,166,l),
(473,100,o),
(417,61,o),
(344,61,cs),
(218,61,o),
(142,179,o),
(142,350,cs),
(142,521,o),
(218,640,o),
(344,640,cs),
(417,640,o),
(473,600,o),
(507,534,c)
);
},
{
closed = 1;
nodes = (
(876,0,ls),
(897,0,o),
(914,17,o),
(914,38,cs),
(914,59,o),
(897,76,o),
(876,76,cs),
(532,76,l),
(532,0,l)
);
},
{
closed = 1;
nodes = (
(572,0,l),
(572,700,l),
(531,700,l),
(508,700,o),
(490,682,o),
(490,659,cs),
(490,41,ls),
(490,18,o),
(508,0,o),
(531,0,c)
);
},
{
closed = 1;
nodes = (
(828,326,ls),
(849,326,o),
(866,343,o),
(866,364,cs),
(866,385,o),
(849,402,o),
(828,402,cs),
(532,402,l),
(532,326,l)
);
},
{
closed = 1;
nodes = (
(849,624,ls),
(870,624,o),
(887,641,o),
(887,662,cs),
(887,683,o),
(870,700,o),
(849,700,cs),
(532,700,l),
(532,624,l)
);
}
);
width = 944;
},
{
layerId = "6242D68C-0A25-4F05-8F2A-2075F7C4A210";
width = 600;
},
{
layerId = "3D52442A-254C-4C79-B742-A98FD72DF947";
width = 600;
}
);
unicode = 338;
},
{
glyphname = P;
lastChange = "2021-08-07 20:10:28 +0000";
layers = (
{
anchors = (
{
name = bottom;
pos = (289,0);
},
{
name = top;
pos = (289,700);
}
);
background = {
shapes = (
{
attr = {
strokeWidth = 2;
};
closed = 0;
nodes = (
(122,661,l),
(122,0,l)
);
},
{
attr = {
strokeWidth = 2;
};
closed = 0;
nodes = (
(119,661,l),
(365,661,ls),
(457,661,o),
(528,586,o),
(528,494,cs),
(528,402,o),
(457,327,o),
(365,327,cs),
(119,327,l)
);
}
);
};
layerId = "65988B1E-DCE2-4AC3-A6FF-994A1050067D";
shapes = (
{
closed = 1;
nodes = (
(144,-10,o),
(162,8,o),
(162,31,cs),
(162,700,l),
(121,700,l),
(98,700,o),
(80,682,o),
(80,659,cs),
(80,31,ls),
(80,8,o),
(98,-10,o),
(121,-10,cs)
);
},
{
closed = 1;
nodes = (
(370,288,ls),
(475,288,o),
(559,375,o),
(559,494,cs),
(559,613,o),
(472,700,o),
(353,700,cs),
(117,700,l),
(117,622,l),
(353,622,ls),
(429,622,o),
(478,570,o),
(478,494,cs),
(478,418,o),
(429,366,o),
(353,366,cs),
(117,366,l),
(117,288,l)
);
}
);
width = 594;
},
{
anchors = (
{
name = bottom;
pos = (311,0);
},
{
name = top;
pos = (311,700);
}
);
background = {
shapes = (
{
attr = {
strokeWidth = 2;
};
closed = 0;
nodes = (
(206,618,l),
(387,618,ls),
(461,618,o),
(520,559,o),
(520,485,c),
(520,413,o),
(461,353,o),
(387,353,cs),
(206,353,l)
);
},
{
closed = 1;
nodes = (
(202,-10,o),
(238,26,o),
(238,70,cs),
(238,700,l),
(158,700,ls),
(114,700,o),
(78,664,o),
(78,620,cs),
(78,70,ls),
(78,26,o),
(114,-10,o),
(158,-10,cs)
);
}
);
};
layerId = "6242D68C-0A25-4F05-8F2A-2075F7C4A210";
shapes = (
{
closed = 1;
nodes = (
(201,-10,o),
(236,25,o),
(236,68,cs),
(236,700,l),
(158,700,l),
(115,700,o),
(80,665,o),
(80,622,cs),
(80,68,ls),
(80,25,o),
(115,-10,o),
(158,-10,cs)
);
},
{
closed = 1;
nodes = (
(376,255,ls),
(496,255,o),
(596,343,o),
(596,477,cs),
(596,610,o),
(497,700,o),
(364,700,cs),
(206,700,l),
(206,560,l),
(350,560,ls),
(404,560,o),
(436,528,o),
(436,474,cs),
(436,428,o),
(403,395,o),
(358,395,cs),
(206,395,l),
(206,255,l)
);
}
);
width = 636;
},
{
associatedMasterId = "65988B1E-DCE2-4AC3-A6FF-994A1050067D";
layerId = "FF928B60-4C43-4C0D-9A84-DE6DF17FABA0";
name = "Original Skeleton";
shapes = (
{
attr = {
strokeWidth = 2;
};
closed = 0;
nodes = (
(103,695,l),
(103,0,l)
);
},
{
attr = {
strokeWidth = 2;
};
closed = 0;
nodes = (
(100,695,l),
(370,695,ls),
(471,695,o),
(553,613,o),
(553,512,c),
(553,411,o),
(471,328,o),
(370,328,cs),
(100,328,l)
);
}
);
width = 608;
},
{
anchors = (
{
name = bottom;
pos = (259,0);
},
{
name = top;
pos = (256,700);
}
);
background = {
shapes = (
{
attr = {
strokeWidth = 2;
};
closed = 0;
nodes = (
(101,677,l),
(336,677,ls),
(432,677,o),
(509,599,o),
(509,503,c),
(509,408,o),
(432,329,o),
(336,329,cs),
(101,329,l)
);
}
);
};
layerId = "3D52442A-254C-4C79-B742-A98FD72DF947";
shapes = (
{
closed = 1;
nodes = (
(111,-10,o),
(121,0,o),
(121,13,cs),
(121,700,l),
(98,700,ls),
(85,700,o),
(75,690,o),
(75,677,cs),
(75,13,ls),
(75,0,o),
(85,-10,o),
(98,-10,cs)
);
},
{
closed = 1;
nodes = (
(320,306,ls),
(436,306,o),
(523,396,o),
(523,503,cs),
(523,611,o),
(436,700,o),
(327,700,cs),
(113,700,l),
(113,654,l),
(327,654,ls),
(413,654,o),
(477,590,o),
(477,503,cs),
(477,417,o),
(413,352,o),
(320,352,cs),
(113,352,l),
(113,306,l)
);
}
);
width = 563;
}
);
unicode = 80;
},
{
glyphname = P.ss02;
lastChange = "2021-08-11 06:26:35 +0000";
layers = (
{
layerId = "65988B1E-DCE2-4AC3-A6FF-994A1050067D";
shapes = (
{
closed = 1;
nodes = (
(144,-5,o),
(162,13,o),
(162,36,cs),
(162,700,l),
(121,700,ls),
(98,700,o),
(80,682,o),
(80,659,cs),
(80,36,ls),
(80,13,o),
(98,-5,o),
(121,-5,cs)
);
},
{
closed = 1;
nodes = (
(328,226,ls),
(460,226,o),
(561,332,o),
(561,463,cs),
(561,596,o),
(456,700,o),
(328,700,cs),
(136,700,l),
(136,618,l),
(328,618,ls),
(414,618,o),
(479,548,o),
(479,463,cs),
(479,376,o),
(414,308,o),
(328,308,cs),
(136,308,l),
(136,226,l)
);
}
);
width = 618;
},
{
layerId = "6242D68C-0A25-4F05-8F2A-2075F7C4A210";
shapes = (
{
closed = 1;
nodes = (
(201,-10,o),
(236,25,o),
(236,68,cs),
(236,700,l),
(158,700,l),
(115,700,o),
(80,665,o),
(80,622,cs),
(80,68,ls),
(80,25,o),
(115,-10,o),
(158,-10,cs)
);
},
{
closed = 1;
nodes = (
(351,193,ls),
(494,193,o),
(609,310,o),
(609,442,cs),
(609,584,o),
(493,700,o),
(351,700,cs),
(185,700,l),
(185,560,l),
(331,560,ls),
(406,560,o),
(449,521,o),
(449,454,cs),
(449,379,o),
(406,335,o),
(331,334,cs),
(185,333,l),
(185,193,l)
);
}
);
width = 649;
},
{
layerId = "3D52442A-254C-4C79-B742-A98FD72DF947";
shapes = (
{
closed = 1;
nodes = (
(116,-10,o),
(126,0,o),
(126,13,cs),
(126,700,l),
(103,700,ls),
(90,700,o),
(80,690,o),
(80,677,cs),
(80,13,ls),
(80,0,o),
(90,-10,o),
(103,-10,cs)
);
},
{
closed = 1;
nodes = (
(305,264,ls),
(425,264,o),
(522,364,o),
(522,482,cs),
(522,603,o),
(425,700,o),
(305,700,cs),
(114,700,l),
(114,654,l),
(305,654,ls),
(402,654,o),
(476,580,o),
(476,482,cs),
(476,385,o),
(402,310,o),
(305,310,cs),
(114,310,l),
(114,264,l)
);
}
);
width = 562;
}
);
},
{
glyphname = Thorn;
lastChange = "2021-08-04 13:00:20 +0000";
layers = (
{
layerId = "65988B1E-DCE2-4AC3-A6FF-994A1050067D";
shapes = (
{
closed = 1;
nodes = (
(374,153,ls),
(479,153,o),
(563,240,o),
(563,359,cs),
(563,478,o),
(476,565,o),
(357,565,cs),
(121,565,l),
(121,487,l),
(357,487,ls),
(433,487,o),
(482,435,o),
(482,359,cs),
(482,283,o),
(433,231,o),
(357,231,cs),
(121,231,l),
(121,153,l)
);
},
{
closed = 1;
nodes = (
(162,696,o),
(144,714,o),
(121,714,cs),
(98,714,o),
(80,696,o),
(80,673,cs),
(80,36,ls),
(80,13,o),
(98,-5,o),
(121,-5,cs),
(144,-5,o),
(162,13,o),
(162,36,cs),
(162,673,ls)
);
}
);
width = 600;
},
{
layerId = "6242D68C-0A25-4F05-8F2A-2075F7C4A210";
width = 600;
},
{
layerId = "3D52442A-254C-4C79-B742-A98FD72DF947";
width = 600;
}
);
unicode = 222;
},
{
glyphname = Q;
lastChange = "2021-08-04 13:00:20 +0000";
layers = (
{
layerId = "65988B1E-DCE2-4AC3-A6FF-994A1050067D";
shapes = (
{
closed = 1;
nodes = (
(218,58,o),
(142,179,o),
(142,350,cs),
(142,521,o),
(218,643,o),
(349,643,cs),
(481,643,o),
(557,521,o),
(557,350,cs),
(557,179,o),
(481,58,o),
(349,58,cs)
);
},
{
closed = 1;
nodes = (
(531,-14,o),
(634,130,o),
(634,350,cs),
(634,571,o),
(531,715,o),
(349,715,cs),
(178,715,o),
(60,571,o),
(60,350,cs),
(60,130,o),
(168,-14,o),
(349,-14,cs)
);
},
{
closed = 1;
nodes = (
(607,-50,o),
(649,-41,o),
(649,-6,cs),
(649,15,o),
(632,33,o),
(610,33,cs),
(594,33,o),
(598,26,o),
(584,26,cs),
(560,26,o),
(541,48,o),
(522,80,c),
(471,24,l),
(499,-18,o),
(532,-50,o),
(584,-50,cs)
);
},
{
closed = 1;
nodes = (
(494,110,l),
(472,147,o),
(456,176,o),
(439,196,cs),
(422,217,o),
(404,228,o),
(381,228,cs),
(357,228,o),
(335,215,o),
(335,189,cs),
(335,166,o),
(354,150,o),
(378,150,cs),
(394,150,o),
(403,136,o),
(446,56,c)
);
}
);
width = 686;
},
{
annotations = (
{
pos = (726.709,678.073);
text = "need to fix tail";
type = Text;
}
);
layerId = "6242D68C-0A25-4F05-8F2A-2075F7C4A210";
shapes = (
{
closed = 1;
nodes = (
(285,126,o),
(223,220,o),
(223,351,cs),
(223,482,o),
(285,575,o),
(391,575,cs),
(497,575,o),
(559,482,o),
(559,351,cs),
(559,220,o),
(497,126,o),
(391,126,cs)
);
},
{
closed = 1;
nodes = (
(583,-14,o),
(722,136,o),
(722,351,cs),
(722,566,o),
(588,715,o),
(396,715,cs),
(204,715,o),
(60,566,o),
(60,351,cs),
(60,136,o),
(199,-14,o),
(391,-14,cs)
);
},
{
closed = 1;
nodes = (
(717,-38,o),
(780,-24,o),
(780,47,cs),
(780,88,o),
(760,117,o),
(725,117,cs),
(699,117,o),
(696,101,o),
(656,101,cs),
(627,101,o),
(603,132,o),
(562,202,c),
(481,150,l),
(535,57,o),
(554,-38,o),
(672,-38,cs)
);
},
{
closed = 1;
nodes = (
(622,157,l),
(568,250,o),
(515,339,o),
(414,339,cs),
(374,339,o),
(311,325,o),
(311,255,cs),
(311,213,o),
(336,184,o),
(372,184,cs),
(394,184,o),
(404,195,o),
(431,195,cs),
(473,195,o),
(482,167,o),
(523,97,c)
);
}
);
width = 825;
},
{
associatedMasterId = "65988B1E-DCE2-4AC3-A6FF-994A1050067D";
layerId = "27F38D1B-16BD-4F5D-B92C-4976454E9181";
name = "Original Skeleton";
shapes = (
{
attr = {
strokeWidth = 2;
};
closed = 1;
nodes = (
(579,155,o),
(463,-3,o),
(320,-3,cs),
(177,-3,o),
(61,155,o),
(61,350,cs),
(61,545,o),
(177,703,o),
(320,703,cs),
(463,703,o),
(579,545,o),
(579,350,c)
);
},
{
attr = {
strokeWidth = 2;
};
closed = 0;
nodes = (
(314,126,l),
(314,126,o),
(336,139,o),
(358,139,cs),
(419,139,o),
(445,-47,o),
(550,-47,cs),
(579,-47,o),
(612,-24,o),
(612,-24,c)
);
}
);
width = 686;
},
{
layerId = "3D52442A-254C-4C79-B742-A98FD72DF947";
shapes = (
{
closed = 1;
nodes = (
(199,32,o),
(106,159,o),
(106,350,cs),
(106,541,o),
(199,668,o),
(333,668,cs),
(466,668,o),
(559,541,o),
(559,350,cs),
(559,159,o),
(466,32,o),
(333,32,cs)
);
},
{
closed = 1;
nodes = (
(493,-14,o),
(605,141,o),
(605,350,cs),
(605,559,o),
(493,714,o),
(333,714,cs),
(172,714,o),
(60,559,o),
(60,350,cs),
(60,141,o),
(172,-14,o),
(333,-14,cs)
);
},
{
closed = 1;
nodes = (
(566,-39,o),
(611,-28,o),
(611,-3,cs),
(611,9,o),
(601,20,o),
(588,20,cs),
(579,20,o),
(560,7,o),
(544,7,cs),
(514,7,o),
(492,28,o),
(473,56,c),
(434,29,l),
(460,-9,o),
(492,-39,o),
(544,-39,cs)
);
},
{
closed = 1;
nodes = (
(471,56,l),
(433,111,o),
(406,193,o),
(350,193,cs),
(330,193,o),
(302,188,o),
(302,165,cs),
(302,148,o),
(316,144,o),
(327,144,cs),
(338,144,o),
(340,147,o),
(350,147,cs),
(374,147,o),
(393,84,o),
(429,31,c)
);
}
);
width = 665;
}
);
unicode = 81;
},
{
glyphname = R;
lastChange = "2021-08-09 04:33:55 +0000";
layers = (
{
anchors = (
{
name = bottom;
pos = (316,0);
},
{
name = top;
pos = (305,700);
}
);
background = {
shapes = (
{
attr = {
strokeWidth = 2;
};
closed = 0;
nodes = (
(122,669,l),
(122,0,l)
);
},
{
attr = {
strokeWidth = 2;
};
closed = 0;
nodes = (
(127,370,l),
(368,370,ls),
(471,370,o),
(531,424,o),
(531,517,cs),
(531,602,o),
(463,664,o),
(368,664,cs),
(127,664,l)
);
},
{
attr = {
strokeWidth = 2;
};
closed = 0;
nodes = (
(376,370,l),
(554,4,l)
);
}
);
};
layerId = "65988B1E-DCE2-4AC3-A6FF-994A1050067D";
shapes = (
{
closed = 1;
nodes = (
(144,-10,o),
(162,8,o),
(162,31,cs),
(162,700,l),
(121,700,ls),
(98,700,o),
(80,682,o),
(80,659,cs),
(80,31,ls),
(80,8,o),
(98,-10,o),
(121,-10,cs)
);
},
{
closed = 1;
nodes = (
(374,328,ls),
(484,328,o),
(570,404,o),
(570,513,cs),
(570,623,o),
(483,700,o),
(367,700,cs),
(121,700,l),
(121,622,l),
(373,622,ls),
(442,622,o),
(489,578,o),
(489,513,cs),
(489,450,o),
(446,406,o),
(382,406,cs),
(125,406,l),
(125,328,l)
);
},
{
closed = 1;
nodes = (
(561,-10,o),
(579,9,o),
(579,31,cs),
(579,38,o),
(578,44,o),
(575,49,cs),
(427,354,l),
(341,354,l),
(502,13,ls),
(509,-1,o),
(523,-10,o),
(538,-10,cs)
);
}
);
width = 629;
},
{
anchors = (
{
name = bottom;
pos = (354,0);
},
{
name = top;
pos = (333,700);
}
);
background = {
shapes = (
{
attr = {
strokeWidth = 2;
};
closed = 0;
nodes = (
(176,669,l),
(176,0,l)
);
},
{
attr = {
strokeWidth = 2;
};
closed = 0;
nodes = (
(118,340,l),
(359,340,ls),
(462,340,o),
(522,394,o),
(522,487,cs),
(522,572,o),
(454,634,o),
(359,634,cs),
(118,634,l)
);
},
{
attr = {
strokeWidth = 2;
};
closed = 0;
nodes = (
(383,370,l),
(561,4,l)
);
}
);
};
layerId = "6242D68C-0A25-4F05-8F2A-2075F7C4A210";
shapes = (
{
closed = 1;
nodes = (
(204,-10,o),
(240,26,o),
(240,70,cs),
(240,700,l),
(160,700,ls),
(116,700,o),
(80,664,o),
(80,620,cs),
(80,70,ls),
(80,26,o),
(116,-10,o),
(160,-10,cs)
);
},
{
closed = 1;
nodes = (
(378,255,ls),
(498,255,o),
(598,343,o),
(598,477,cs),
(598,610,o),
(499,700,o),
(366,700,cs),
(208,700,l),
(208,560,l),
(352,560,ls),
(392,560,o),
(438,532,o),
(438,474,cs),
(438,428,o),
(407,395,o),
(360,395,cs),
(208,395,l),
(208,255,l)
);
},
{
closed = 1;
nodes = (
(583,-10,o),
(616,23,o),
(616,65,cs),
(616,77,o),
(614,89,o),
(608,99,c),
(489,343,l),
(356,275,l),
(475,31,ls),
(487,6,o),
(512,-10,o),
(541,-10,cs)
);
}
);
width = 661;
},
{
anchors = (
{
name = bottom;
pos = (306,0);
},
{
name = top;
pos = (286,700);
}
);
associatedMasterId = "65988B1E-DCE2-4AC3-A6FF-994A1050067D";
layerId = "33E71FD4-A49D-4C41-A08E-663ADCB07C2F";
name = "Original Skeleton";
shapes = (
{
attr = {
strokeWidth = 2;
};
closed = 0;
nodes = (
(101,700,l),
(101,0,l)
);
},
{
attr = {
strokeWidth = 2;
};
closed = 0;
nodes = (
(105,372,l),
(405,372,ls),
(494,372,o),
(567,444,o),
(567,533,c),
(567,623,o),
(494,695,o),
(405,695,cs),
(105,695,l)
);
},
{
attr = {
strokeWidth = 2;
};
closed = 0;
nodes = (
(389,372,l),
(571,0,l)
);
}
);
width = 631;
},
{
anchors = (
{
name = bottom;
pos = (298,0);
},
{
name = top;
pos = (264,700);
}
);
background = {
shapes = (
{
attr = {
strokeWidth = 2;
};
closed = 0;
nodes = (
(103,682,l),
(103,0,l)
);
},
{
attr = {
strokeWidth = 2;
};
closed = 0;
nodes = (
(117,352,l),
(331,352,ls),
(445,352,o),
(513,411,o),
(513,509,cs),
(513,610,o),
(437,678,o),
(331,678,cs),
(117,678,l)
);
},
{
attr = {
strokeWidth = 2;
};
closed = 0;
nodes = (
(356,376,l),
(538,1,l)
);
}
);
};
layerId = "3D52442A-254C-4C79-B742-A98FD72DF947";
shapes = (
{
closed = 1;
nodes = (
(116,-10,o),
(126,0,o),
(126,13,cs),
(126,700,l),
(103,700,ls),
(90,700,o),
(80,690,o),
(80,677,cs),
(80,13,ls),
(80,0,o),
(90,-10,o),
(103,-10,cs)
);
},
{
closed = 1;
nodes = (
(331,328,ls),
(457,328,o),
(536,396,o),
(536,508,cs),
(536,622,o),
(449,700,o),
(331,700,cs),
(117,700,l),
(117,654,l),
(331,654,ls),
(428,654,o),
(490,599,o),
(490,508,cs),
(490,420,o),
(436,374,o),
(331,374,cs),
(117,374,l),
(117,328,l)
);
},
{
closed = 1;
nodes = (
(543,-10,o),
(552,0,o),
(552,12,cs),
(552,15,o),
(551,19,o),
(550,22,cs),
(389,358,l),
(342,355,l),
(511,2,ls),
(514,-5,o),
(522,-10,o),
(530,-10,cs)
);
}
);
width = 607;
}
);
unicode = 82;
},
{
glyphname = R.ss02;
lastChange = "2021-08-10 20:43:19 +0000";
layers = (
{
anchors = (
{
name = bottom;
pos = (316,0);
},
{
name = top;
pos = (320,700);
}
);
background = {
shapes = (
{
attr = {
strokeWidth = 2;
};
closed = 0;
nodes = (
(122,669,l),
(122,0,l)
);
},
{
attr = {
strokeWidth = 2;
};
closed = 0;
nodes = (
(127,370,l),
(368,370,ls),
(471,370,o),
(531,424,o),
(531,517,cs),
(531,602,o),
(463,664,o),
(368,664,cs),
(127,664,l)
);
},
{
attr = {
strokeWidth = 2;
};
closed = 0;
nodes = (
(376,370,l),
(554,4,l)
);
}
);
};
layerId = "65988B1E-DCE2-4AC3-A6FF-994A1050067D";
shapes = (
{
closed = 1;
nodes = (
(144,-10,o),
(162,8,o),
(162,31,cs),
(162,700,l),
(121,700,ls),
(98,700,o),
(80,682,o),
(80,659,cs),
(80,31,ls),
(80,8,o),
(98,-10,o),
(121,-10,cs)
);
},
{
closed = 1;
nodes = (
(374,328,ls),
(484,328,o),
(570,404,o),
(570,513,cs),
(570,623,o),
(483,700,o),
(367,700,cs),
(121,700,l),
(121,622,l),
(373,622,ls),
(442,622,o),
(489,578,o),
(489,513,cs),
(489,450,o),
(446,406,o),
(382,406,cs),
(125,406,l),
(125,328,l)
);
},
{
closed = 1;
nodes = (
(561,-10,o),
(579,9,o),
(579,31,cs),
(579,38,o),
(578,44,o),
(575,49,cs),
(427,354,l),
(341,354,l),
(502,13,ls),
(509,-1,o),
(523,-10,o),
(538,-10,cs)
);
}
);
width = 624;
},
{
anchors = (
{
name = bottom;
pos = (354,0);
},
{
name = top;
pos = (333,700);
}
);
background = {
shapes = (
{
attr = {
strokeWidth = 2;
};
closed = 0;
nodes = (
(176,669,l),
(176,0,l)
);
},
{
attr = {
strokeWidth = 2;
};
closed = 0;
nodes = (
(118,340,l),
(359,340,ls),
(462,340,o),
(522,394,o),
(522,487,cs),
(522,572,o),
(454,634,o),
(359,634,cs),
(118,634,l)
);
},
{
attr = {
strokeWidth = 2;
};
closed = 0;
nodes = (
(383,370,l),
(561,4,l)
);
}
);
};
layerId = "6242D68C-0A25-4F05-8F2A-2075F7C4A210";
shapes = (
{
closed = 1;
nodes = (
(204,-10,o),
(240,26,o),
(240,70,cs),
(240,700,l),
(160,700,ls),
(116,700,o),
(80,664,o),
(80,620,cs),
(80,70,ls),
(80,26,o),
(116,-10,o),
(160,-10,cs)
);
},
{
closed = 1;
nodes = (
(378,255,ls),
(498,255,o),
(598,343,o),
(598,477,cs),
(598,610,o),
(499,700,o),
(366,700,cs),
(208,700,l),
(208,550,l),
(362,550,ls),
(402,550,o),
(438,522,o),
(438,474,cs),
(438,438,o),
(417,405,o),
(370,405,cs),
(208,405,l),
(208,255,l)
);
},
{
closed = 1;
nodes = (
(583,-10,o),
(616,23,o),
(616,65,cs),
(616,77,o),
(614,89,o),
(608,99,c),
(489,343,l),
(356,275,l),
(475,31,ls),
(487,6,o),
(512,-10,o),
(541,-10,cs)
);
}
);
width = 661;
},
{
anchors = (
{
name = bottom;
pos = (306,0);
},
{
name = top;
pos = (286,700);
}
);
associatedMasterId = "65988B1E-DCE2-4AC3-A6FF-994A1050067D";
layerId = "33E71FD4-A49D-4C41-A08E-663ADCB07C2F";
name = "Original Skeleton";
shapes = (
{
attr = {
strokeWidth = 2;
};
closed = 0;
nodes = (
(101,700,l),
(101,0,l)
);
},
{
attr = {
strokeWidth = 2;
};
closed = 0;
nodes = (
(105,372,l),
(405,372,ls),
(494,372,o),
(567,444,o),
(567,533,c),
(567,623,o),
(494,695,o),
(405,695,cs),
(105,695,l)
);
},
{
attr = {
strokeWidth = 2;
};
closed = 0;
nodes = (
(389,372,l),
(571,0,l)
);
}
);
width = 631;
},
{
anchors = (
{
name = bottom;
pos = (293,0);
},
{
name = top;
pos = (259,700);
}
);
background = {
shapes = (
{
attr = {
strokeWidth = 2;
};
closed = 0;
nodes = (
(98,682,l),
(98,0,l)
);
},
{
attr = {
strokeWidth = 2;
};
closed = 0;
nodes = (
(112,352,l),
(326,352,ls),
(440,352,o),
(508,411,o),
(508,509,cs),
(508,610,o),
(432,678,o),
(326,678,cs),
(112,678,l)
);
},
{
attr = {
strokeWidth = 2;
};
closed = 0;
nodes = (
(351,376,l),
(533,1,l)
);
}
);
};
layerId = "3D52442A-254C-4C79-B742-A98FD72DF947";
shapes = (
{
closed = 1;
nodes = (
(111,-10,o),
(121,0,o),
(121,13,cs),
(121,700,l),
(98,700,ls),
(85,700,o),
(75,690,o),
(75,677,cs),
(75,13,ls),
(75,0,o),
(85,-10,o),
(98,-10,cs)
);
},
{
closed = 1;
nodes = (
(326,328,ls),
(452,328,o),
(531,396,o),
(531,508,cs),
(531,622,o),
(444,700,o),
(326,700,cs),
(112,700,l),
(112,654,l),
(326,654,ls),
(423,654,o),
(485,599,o),
(485,508,cs),
(485,420,o),
(431,374,o),
(326,374,cs),
(112,374,l),
(112,328,l)
);
},
{
closed = 1;
nodes = (
(538,-10,o),
(547,0,o),
(547,12,cs),
(547,15,o),
(546,19,o),
(545,22,cs),
(384,358,l),
(337,355,l),
(506,2,ls),
(509,-5,o),
(517,-10,o),
(525,-10,cs)
);
}
);
width = 592;
}
);
},
{
glyphname = S;
lastChange = "2021-08-11 11:56:05 +0000";
layers = (
{
anchors = (
{
name = bottom;
pos = (310,0);
},
{
name = top;
pos = (298,700);
}
);
background = {
shapes = (
{
attr = {
strokeWidth = 2;
};
closed = 0;
nodes = (
(83,204,l),
(81,100,o),
(170,27,o),
(305,27,cs),
(434,27,o),
(509,91,o),
(509,192,cs),
(509,284,o),
(453,328,o),
(288,363,cs),
(171,388,o),
(116,442,o),
(116,523,cs),
(116,610,o),
(192,671,o),
(289,671,cs),
(393,671,o),
(466,618,o),
(483,534,c)
);
}
);
};
layerId = "65988B1E-DCE2-4AC3-A6FF-994A1050067D";
shapes = (
{
closed = 1;
nodes = (
(457,-15,o),
(551,65,o),
(551,188,cs),
(551,358,o),
(401,381,o),
(286,410,cs),
(214,429,o),
(156,445,o),
(156,524,cs),
(156,569,o),
(190,635,o),
(296,635,cs),
(401,635,o),
(438,582,o),
(448,526,cs),
(451,507,o),
(468,492,o),
(488,492,cs),
(513,492,o),
(533,515,o),
(528,540,cs),
(514,621,o),
(446,710,o),
(296,710,cs),
(138,710,o),
(74,598,o),
(74,527,cs),
(74,398,o),
(164,355,o),
(258,332,cs),
(361,307,o),
(469,297,o),
(469,186,cs),
(469,112,o),
(407,60,o),
(312,60,cs),
(151,60,o),
(127,152,o),
(127,193,cs),
(127,218,o),
(109,236,o),
(86,236,cs),
(63,236,o),
(45,218,o),
(45,193,cs),
(45,131,o),
(92,-15,o),
(312,-15,cs)
);
}
);
width = 596;
},
{
anchors = (
{
name = bottom;
pos = (312,0);
},
{
name = top;
pos = (312,700);
}
);
background = {
shapes = (
{
attr = {
strokeWidth = 2;
};
closed = 0;
nodes = (
(117,219,l),
(115,126,o),
(195,60,o),
(316,60,cs),
(432,60,o),
(499,118,o),
(499,208,cs),
(499,291,o),
(449,330,o),
(301,362,cs),
(196,384,o),
(147,432,o),
(147,505,cs),
(147,583,o),
(215,638,o),
(302,638,cs),
(395,638,o),
(460,590,o),
(475,515,c)
);
}
);
};
layerId = "6242D68C-0A25-4F05-8F2A-2075F7C4A210";
shapes = (
{
closed = 1;
nodes = (
(458,-15,o),
(568,57,o),
(568,195,cs),
(568,330,o),
(473,378,o),
(383,412,cs),
(305,442,o),
(231,461,o),
(231,518,cs),
(231,555,o),
(266,573,o),
(310,573,cs),
(353,573,o),
(375,555,o),
(389,534,cs),
(402,514,o),
(425,501,o),
(451,501,cs),
(491,501,o),
(524,534,o),
(524,577,cs),
(524,647,o),
(436,713,o),
(308,713,cs),
(169,713,o),
(72,638,o),
(72,513,cs),
(72,406,o),
(138,356,o),
(212,324,cs),
(304,283,o),
(408,267,o),
(408,195,cs),
(408,139,o),
(366,125,o),
(310,125,cs),
(252,125,o),
(200,149,o),
(187,182,cs),
(177,209,o),
(150,229,o),
(118,229,cs),
(78,229,o),
(45,196,o),
(45,150,cs),
(45,63,o),
(160,-15,o),
(310,-15,cs)
);
}
);
width = 613;
},
{
anchors = (
{
name = bottom;
pos = (298,0);
},
{
name = top;
pos = (298,700);
}
);
associatedMasterId = "65988B1E-DCE2-4AC3-A6FF-994A1050067D";
layerId = "3F6CB26F-4A18-4307-8FF9-9909AF03C760";
name = "Original Skeleton";
shapes = (
{
attr = {
strokeWidth = 2;
};
closed = 0;
nodes = (
(509,551,l),
(509,551,o),
(493,702,o),
(296,702,cs),
(129,702,o),
(71,604,o),
(71,533,cs),
(71,270,o),
(545,454,o),
(545,174,cs),
(545,100,o),
(497,-8,o),
(314,-8,cs),
(99,-8,o),
(60,128,o),
(61,179,c),
(61,186,l)
);
}
);
width = 596;
},
{
anchors = (
{
name = bottom;
pos = (307,0);
},
{
name = top;
pos = (307,700);
}
);
background = {
shapes = (
{
attr = {
strokeWidth = 2;
};
closed = 0;
nodes = (
(72,196,l),
(70,87,o),
(170,10,o),
(313,10,cs),
(449,10,o),
(534,77,o),
(534,184,cs),
(534,281,o),
(469,324,o),
(295,361,cs),
(146,392,o),
(92,435,o),
(92,527,cs),
(92,627,o),
(173,688,o),
(296,688,cs),
(405,688,o),
(482,633,o),
(500,544,c)
);
}
);
};
layerId = "3D52442A-254C-4C79-B742-A98FD72DF947";
shapes = (
{
closed = 1;
nodes = (
(467,-13,o),
(557,60,o),
(557,178,cs),
(557,344,o),
(410,359,o),
(302,386,cs),
(197,412,o),
(118,437,o),
(118,538,cs),
(118,618,o),
(194,666,o),
(296,666,cs),
(386,666,o),
(451,625,o),
(473,557,cs),
(476,548,o),
(485,541,o),
(495,541,cs),
(510,541,o),
(521,556,o),
(517,571,cs),
(488,660,o),
(407,711,o),
(296,711,cs),
(167,711,o),
(72,640,o),
(72,542,cs),
(72,413,o),
(165,375,o),
(265,349,cs),
(384,319,o),
(511,310,o),
(511,184,cs),
(511,85,o),
(438,32,o),
(313,32,cs),
(186,32,o),
(100,91,o),
(91,178,cs),
(90,189,o),
(80,198,o),
(68,198,cs),
(54,198,o),
(44,185,o),
(45,173,cs),
(57,62,o),
(169,-13,o),
(313,-13,cs)
);
}
);
width = 602;
}
);
unicode = 83;
},
{
glyphname = S.ss02;
lastChange = "2021-08-11 06:26:44 +0000";
layers = (
{
anchors = (
{
name = bottom;
pos = (292,0);
},
{
name = top;
pos = (292,700);
}
);
background = {
shapes = (
{
closed = 1;
nodes = (
(45,117,o),
(100,-15,o),
(297,-15,cs),
(453,-15,o),
(539,59,o),
(539,191,cs),
(539,298,o),
(490,348,o),
(303,395,cs),
(183,425,o),
(140,450,o),
(140,519,cs),
(140,601,o),
(198,638,o),
(276,638,cs),
(399,638,o),
(440,570,o),
(447,519,cs),
(449,502,o),
(468,483,o),
(490,483,cs),
(513,483,o),
(530,509,o),
(526,531,cs),
(511,617,o),
(448,715,o),
(299,715,cs),
(159,715,o),
(57,652,o),
(57,526,cs),
(57,403,o),
(116,358,o),
(282,318,cs),
(420,285,o),
(456,251,o),
(456,183,cs),
(456,103,o),
(406,62,o),
(297,62,cs),
(170,62,o),
(125,130,o),
(125,203,cs),
(125,223,o),
(108,246,o),
(84,246,cs),
(64,246,o),
(45,223,o),
(45,203,cs)
);
}
);
};
layerId = "65988B1E-DCE2-4AC3-A6FF-994A1050067D";
shapes = (
{
closed = 1;
nodes = (
(45,77,o),
(151,-15,o),
(297,-15,cs),
(437,-15,o),
(539,72,o),
(539,191,cs),
(539,330,o),
(440,360,o),
(303,395,cs),
(183,425,o),
(140,458,o),
(140,519,cs),
(140,588,o),
(197,638,o),
(276,638,cs),
(374,638,o),
(437,594,o),
(447,519,cs),
(450,498,o),
(468,483,o),
(490,483,cs),
(516,483,o),
(532,503,o),
(526,531,cs),
(508,638,o),
(412,715,o),
(299,715,cs),
(159,715,o),
(57,636,o),
(57,526,cs),
(57,412,o),
(116,358,o),
(282,318,cs),
(383,293,o),
(456,282,o),
(456,183,cs),
(456,113,o),
(389,62,o),
(297,62,cs),
(197,62,o),
(125,121,o),
(125,203,cs),
(125,228,o),
(108,246,o),
(84,246,cs),
(61,246,o),
(45,228,o),
(45,203,cs)
);
}
);
width = 584;
},
{
layerId = "6242D68C-0A25-4F05-8F2A-2075F7C4A210";
width = 600;
},
{
layerId = "3D52442A-254C-4C79-B742-A98FD72DF947";
width = 600;
}
);
},
{
glyphname = Germandbls;
lastChange = "2021-08-11 11:55:56 +0000";
layers = (
{
background = {
shapes = (
{
pos = (35,0);
ref = S;
}
);
};
layerId = "65988B1E-DCE2-4AC3-A6FF-994A1050067D";
shapes = (
{
closed = 1;
nodes = (
(461,624,l),
(445,651,l),
(311,413,ls),
(288,372,o),
(293,343,o),
(340,328,cs),
(432,300,o),
(516,289,o),
(516,188,cs),
(516,107,o),
(462,65,o),
(384,65,cs),
(346,65,o),
(305,76,o),
(288,84,cs),
(257,95,o),
(225,80,o),
(225,47,cs),
(225,32,o),
(234,19,o),
(248,12,cs),
(268,3,o),
(332,-15,o),
(388,-15,cs),
(524,-15,o),
(597,80,o),
(597,196,cs),
(597,322,o),
(496,373,o),
(369,398,c),
(378,366,l),
(525,624,ls),
(548,664,o),
(527,700,o),
(491,700,cs),
(295,700,ls),
(172,700,o),
(80,606,o),
(80,485,cs),
(80,35,ls),
(80,13,o),
(99,-5,o),
(121,-5,cs),
(144,-5,o),
(162,13,o),
(162,35,cs),
(162,464,ls),
(162,547,o),
(199,624,o),
(302,624,cs)
);
}
);
width = 632;
},
{
layerId = "6242D68C-0A25-4F05-8F2A-2075F7C4A210";
width = 600;
},
{
layerId = "3D52442A-254C-4C79-B742-A98FD72DF947";
width = 600;
}
);
metricLeft = "=H";
metricRight = "=S-10";
unicode = 7838;
},
{
glyphname = Schwa;
lastChange = "2021-08-04 13:00:20 +0000";
layers = (
{
background = {
shapes = (
{
alignment = -1;
angle = 180;
pos = (704,-104);
ref = e;
scale = (1.3402,1.3402);
},
{
pos = (-4,0);
ref = O;
}
);
};
layerId = "65988B1E-DCE2-4AC3-A6FF-994A1050067D";
shapes = (
{
attr = {
lineCapEnd = "1";
lineCapStart = "1";
strokeHeight = 80;
strokeWidth = 80;
};
closed = 0;
nodes = (
(578,344,l),
(121,344,ls),
(109,344,o),
(100,336,o),
(100,324,cs),
(98,198,o),
(154,25,o),
(350,25,cs),
(502,25,o),
(581,164,o),
(581,361,cs),
(581,400,o),
(565,675,o),
(339,675,cs),
(230,675,o),
(159,603,o),
(130,530,c)
);
}
);
width = 681;
},
{
layerId = "6242D68C-0A25-4F05-8F2A-2075F7C4A210";
width = 600;
},
{
layerId = "3D52442A-254C-4C79-B742-A98FD72DF947";
width = 600;
}
);
metricLeft = "=O";
metricRight = "=O";
unicode = 399;
},
{
glyphname = T;
lastChange = "2021-08-04 13:00:20 +0000";
layers = (
{
anchors = (
{
name = bottom;
pos = (304,0);
},
{
name = center;
pos = (303,350);
},
{
name = top;
pos = (303,700);
}
);
background = {
shapes = (
{
attr = {
strokeWidth = 2;
};
closed = 0;
nodes = (
(306,662,l),
(305,-10,l)
);
},
{
attr = {
strokeWidth = 2;
};
closed = 0;
nodes = (
(52,666,l),
(552,666,l)
);
}
);
};
layerId = "65988B1E-DCE2-4AC3-A6FF-994A1050067D";
shapes = (
{
closed = 1;
nodes = (
(328,-10,o),
(346,8,o),
(346,31,cs),
(346,624,l),
(517,624,ls),
(538,624,o),
(555,641,o),
(555,662,cs),
(555,683,o),
(538,700,o),
(517,700,cs),
(88,700,ls),
(67,700,o),
(50,683,o),
(50,662,cs),
(50,641,o),
(67,624,o),
(88,624,cs),
(264,624,l),
(264,31,ls),
(264,8,o),
(282,-10,o),
(305,-10,cs)
);
}
);
width = 605;
},
{
anchors = (
{
name = bottom;
pos = (321,0);
},
{
name = center;
pos = (321,350);
},
{
name = top;
pos = (321,700);
}
);
background = {
shapes = (
{
attr = {
strokeWidth = 2;
};
closed = 0;
nodes = (
(321,673,l),
(320,1,l)
);
},
{
attr = {
strokeWidth = 2;
};
closed = 0;
nodes = (
(67,677,l),
(567,677,l)
);
}
);
};
layerId = "6242D68C-0A25-4F05-8F2A-2075F7C4A210";
shapes = (
{
closed = 1;
nodes = (
(362,-10,o),
(397,25,o),
(397,68,cs),
(397,550,l),
(516,550,ls),
(557,550,o),
(591,584,o),
(591,625,cs),
(591,666,o),
(557,700,o),
(516,700,cs),
(125,700,ls),
(84,700,o),
(50,666,o),
(50,625,cs),
(50,584,o),
(84,550,o),
(125,550,cs),
(241,550,l),
(241,68,ls),
(241,25,o),
(276,-10,o),
(319,-10,cs)
);
}
);
width = 641;
},
{
anchors = (
{
name = bottom;
pos = (287,5);
},
{
name = center;
pos = (281,350);
},
{
name = top;
pos = (281,700);
}
);
associatedMasterId = "65988B1E-DCE2-4AC3-A6FF-994A1050067D";
layerId = "6E86210C-A69E-4F36-A5A0-9655F057588C";
name = "Original Skeleton";
shapes = (
{
attr = {
strokeWidth = 2;
};
closed = 0;
nodes = (
(317,700,l),
(317,0,l)
);
},
{
attr = {
strokeWidth = 2;
};
closed = 0;
nodes = (
(60,696,l),
(566,696,l)
);
}
);
width = 561;
},
{
anchors = (
{
name = bottom;
pos = (300,0);
},
{
name = center;
pos = (300,350);
},
{
name = top;
pos = (300,700);
}
);
background = {
shapes = (
{
attr = {
strokeWidth = 2;
};
closed = 0;
nodes = (
(300,673,l),
(299,1,l)
);
},
{
attr = {
strokeWidth = 2;
};
closed = 0;
nodes = (
(46,677,l),
(546,677,l)
);
}
);
};
layerId = "3D52442A-254C-4C79-B742-A98FD72DF947";
shapes = (
{
closed = 1;
nodes = (
(311,-10,o),
(321,0,o),
(321,13,cs),
(321,655,l),
(527,655,ls),
(540,655,o),
(550,665,o),
(550,677,cs),
(550,690,o),
(540,700,o),
(527,700,cs),
(73,700,ls),
(60,700,o),
(50,690,o),
(50,677,cs),
(50,665,o),
(60,655,o),
(73,655,cs),
(275,655,l),
(275,13,ls),
(275,0,o),
(285,-10,o),
(298,-10,cs)
);
}
);
width = 600;
}
);
unicode = 84;
},
{
glyphname = Tbar;
lastChange = "2021-08-10 00:07:04 +0000";
layers = (
{
layerId = "65988B1E-DCE2-4AC3-A6FF-994A1050067D";
shapes = (
{
pos = (-20,0);
ref = T;
},
{
attr = {
lineCapEnd = "2";
lineCapStart = "2";
strokeHeight = 78;
strokeWidth = 78;
};
closed = 0;
nodes = (
(113,370,l),
(448,370,l)
);
}
);
width = 561;
},
{
layerId = "6242D68C-0A25-4F05-8F2A-2075F7C4A210";
width = 600;
},
{
layerId = "3D52442A-254C-4C79-B742-A98FD72DF947";
width = 600;
}
);
unicode = 358;
},
{
glyphname = U;
lastChange = "2021-08-04 13:00:20 +0000";
layers = (
{
anchors = (
{
name = bottom;
pos = (325,0);
},
{
name = ogonek;
pos = (411,0);
},
{
name = top;
pos = (325,700);
},
{
name = topright;
pos = (630,700);
}
);
background = {
shapes = (
{
closed = 1;
nodes = (
(227,63,o),
(157,136,o),
(157,236,cs),
(157,664,ls),
(157,687,o),
(139,705,o),
(116,705,cs),
(93,705,o),
(75,687,o),
(75,664,cs),
(75,236,ls),
(75,93,o),
(182,-14,o),
(325,-14,cs),
(468,-14,o),
(575,93,o),
(575,236,cs),
(575,664,ls),
(575,687,o),
(557,705,o),
(534,705,cs),
(511,705,o),
(493,687,o),
(493,664,cs),
(493,236,ls),
(493,136,o),
(423,63,o),
(325,63,cs)
);
},
{
attr = {
strokeWidth = 2;
};
closed = 0;
nodes = (
(114,669,l),
(114,237,ls),
(114,120,o),
(208,25,o),
(325,25,cs),
(441,25,o),
(536,120,o),
(536,237,cs),
(536,669,l)
);
}
);
};
layerId = "65988B1E-DCE2-4AC3-A6FF-994A1050067D";
shapes = (
{
closed = 1;
nodes = (
(471,-14,o),
(575,93,o),
(575,236,cs),
(575,664,ls),
(575,687,o),
(557,705,o),
(534,705,cs),
(511,705,o),
(493,687,o),
(493,664,cs),
(493,236,ls),
(493,137,o),
(423,63,o),
(325,63,cs),
(227,63,o),
(157,137,o),
(157,236,cs),
(157,664,ls),
(157,687,o),
(139,705,o),
(116,705,cs),
(93,705,o),
(75,687,o),
(75,664,cs),
(75,236,ls),
(75,93,o),
(179,-14,o),
(325,-14,cs)
);
}
);
width = 650;
},
{
anchors = (
{
name = bottom;
pos = (300,0);
},
{
name = ogonek;
pos = (368,0);
},
{
name = top;
pos = (300,700);
},
{
name = topright;
pos = (580,700);
}
);
layerId = "6242D68C-0A25-4F05-8F2A-2075F7C4A210";
shapes = (
{
closed = 1;
nodes = (
(461,-15,o),
(586,111,o),
(586,269,cs),
(586,632,ls),
(586,675,o),
(551,710,o),
(508,710,cs),
(465,710,o),
(430,675,o),
(430,632,cs),
(430,263,ls),
(430,189,o),
(377,135,o),
(303,135,cs),
(229,135,o),
(176,189,o),
(176,263,cs),
(176,632,ls),
(176,675,o),
(141,710,o),
(98,710,cs),
(55,710,o),
(20,675,o),
(20,632,cs),
(20,269,ls),
(20,111,o),
(145,-15,o),
(303,-15,cs)
);
}
);
width = 600;
},
{
anchors = (
{
name = bottom;
pos = (325,0);
},
{
name = ogonek;
pos = (421,48);
},
{
name = top;
pos = (325,700);
},
{
name = topright;
pos = (630,700);
}
);
associatedMasterId = "65988B1E-DCE2-4AC3-A6FF-994A1050067D";
background = {
shapes = (
{
closed = 1;
nodes = (
(227,63,o),
(157,136,o),
(157,236,cs),
(157,664,ls),
(157,687,o),
(139,705,o),
(116,705,cs),
(93,705,o),
(75,687,o),
(75,664,cs),
(75,236,ls),
(75,93,o),
(182,-14,o),
(325,-14,cs),
(468,-14,o),
(575,93,o),
(575,236,cs),
(575,664,ls),
(575,687,o),
(557,705,o),
(534,705,cs),
(511,705,o),
(493,687,o),
(493,664,cs),
(493,236,ls),
(493,136,o),
(423,63,o),
(325,63,cs)
);
}
);
};
layerId = "8A38E9A9-A31C-446A-AE0A-0F3779135D39";
name = "Original Skeleton";
shapes = (
{
attr = {
strokeWidth = 2;
};
closed = 0;
nodes = (
(101,700,l),
(101,225,ls),
(101,96,o),
(205,-8,o),
(333,-8,cs),
(461,-8,o),
(565,96,o),
(565,225,cs),
(565,700,l)
);
}
);
width = 650;
},
{
anchors = (
{
name = bottom;
pos = (305,0);
},
{
name = ogonek;
pos = (374,0);
},
{
name = top;
pos = (305,700);
},
{
name = topright;
pos = (585,700);
}
);
layerId = "3D52442A-254C-4C79-B742-A98FD72DF947";
shapes = (
{
closed = 1;
nodes = (
(443,-16,o),
(556,89,o),
(556,233,cs),
(556,687,ls),
(556,700,o),
(546,710,o),
(533,710,cs),
(520,710,o),
(510,700,o),
(510,687,cs),
(510,233,ls),
(510,118,o),
(422,29,o),
(308,29,cs),
(194,29,o),
(106,118,o),
(106,233,cs),
(106,687,ls),
(106,700,o),
(96,710,o),
(83,710,cs),
(70,710,o),
(60,700,o),
(60,687,cs),
(60,233,ls),
(60,89,o),
(172,-16,o),
(308,-16,cs)
);
}
);
width = 616;
}
);
unicode = 85;
},
{
glyphname = Uhorn;
lastChange = "2021-08-04 13:00:20 +0000";
layers = (
{
anchors = (
{
name = bottom;
pos = (330,0);
},
{
name = top;
pos = (330,700);
}
);
background = {
shapes = (
{
closed = 1;
nodes = (
(586,653,l),
(651,653,o),
(718,731,o),
(718,801,cs),
(718,823,o),
(704,839,o),
(684,839,cs),
(660,839,o),
(646,825,o),
(646,801,c),
(646,748,o),
(598,703,o),
(538,703,cs),
(499,703,l),
(498,653,l)
);
}
);
};
layerId = "65988B1E-DCE2-4AC3-A6FF-994A1050067D";
shapes = (
{
closed = 1;
nodes = (
(471,-14,o),
(575,93,o),
(575,236,cs),
(575,662,ls),
(575,685,o),
(557,703,o),
(534,703,cs),
(511,703,o),
(493,685,o),
(493,662,cs),
(493,236,ls),
(493,137,o),
(423,63,o),
(325,63,cs),
(227,63,o),
(157,137,o),
(157,236,cs),
(157,664,ls),
(157,687,o),
(139,705,o),
(116,705,cs),
(93,705,o),
(75,687,o),
(75,664,cs),
(75,236,ls),
(75,93,o),
(179,-14,o),
(325,-14,cs)
);
},
{
closed = 1;
nodes = (
(575,653,ls),
(651,653,o),
(718,731,o),
(718,801,cs),
(718,823,o),
(704,839,o),
(684,839,cs),
(660,839,o),
(646,825,o),
(646,801,c),
(646,748,o),
(598,703,o),
(538,703,cs),
(536,703,l),
(536,653,l)
);
}
);
width = 600;
},
{
layerId = "6242D68C-0A25-4F05-8F2A-2075F7C4A210";
width = 600;
},
{
layerId = "3D52442A-254C-4C79-B742-A98FD72DF947";
width = 600;
}
);
unicode = 431;
},
{
glyphname = Uogonek;
lastChange = "2021-08-09 23:57:16 +0000";
layers = (
{
layerId = "65988B1E-DCE2-4AC3-A6FF-994A1050067D";
shapes = (
{
ref = U;
},
{
closed = 1;
nodes = (
(450,-113,o),
(441,-121,o),
(425,-121,cs),
(405,-121,o),
(401,-109,o),
(401,-99,cs),
(401,-60,o),
(463,16,o),
(512,65,cs),
(513,66,l),
(469,96,l),
(425,53,ls),
(420,48,o),
(331,-31,o),
(331,-109,cs),
(331,-160,o),
(376,-184,o),
(423,-185,cs),
(449,-186,o),
(483,-180,o),
(515,-146,cs),
(521,-139,o),
(525,-131,o),
(525,-121,cs),
(525,-101,o),
(511,-87,o),
(491,-87,cs),
(480,-87,o),
(471,-91,o),
(464,-98,cs)
);
}
);
width = 650;
},
{
layerId = "6242D68C-0A25-4F05-8F2A-2075F7C4A210";
width = 600;
},
{
layerId = "3D52442A-254C-4C79-B742-A98FD72DF947";
width = 600;
}
);
unicode = 370;
},
{
glyphname = V;
lastChange = "2021-08-04 13:00:20 +0000";
layers = (
{
background = {
shapes = (
{
attr = {
strokeWidth = 2;
};
closed = 0;
nodes = (
(72,669,l),
(297,15,l),
(525,669,l)
);
}
);
};
layerId = "65988B1E-DCE2-4AC3-A6FF-994A1050067D";
shapes = (
{
closed = 1;
nodes = (
(316,-15,o),
(335,0,o),
(346,31,cs),
(562,663,ls),
(563,667,o),
(564,671,o),
(564,676,cs),
(564,698,o),
(545,715,o),
(523,715,cs),
(506,715,o),
(491,704,o),
(486,689,cs),
(282,85,l),
(312,85,l),
(108,689,ls),
(103,704,o),
(88,715,o),
(71,715,cs),
(49,715,o),
(30,698,o),
(30,676,cs),
(30,671,o),
(31,667,o),
(32,663,cs),
(248,31,ls),
(259,0,o),
(278,-15,o),
(297,-15,cs)
);
}
);
width = 594;
},
{
background = {
shapes = (
{
attr = {
lineCapEnd = "1";
lineCapStart = "1";
strokeWidth = 155;
};
closed = 0;
nodes = (
(87,709,l),
(322,26,l),
(560,709,l)
);
}
);
};
layerId = "6242D68C-0A25-4F05-8F2A-2075F7C4A210";
shapes = (
{
closed = 1;
nodes = (
(365,-10,o),
(388,28,o),
(403,68,cs),
(611,607,ls),
(614,615,o),
(616,626,o),
(616,635,cs),
(616,677,o),
(582,710,o),
(537,710,cs),
(504,710,o),
(476,688,o),
(466,658,cs),
(296,172,l),
(349,172,l),
(180,658,ls),
(170,688,o),
(142,710,o),
(109,710,cs),
(64,710,o),
(30,677,o),
(30,635,cs),
(30,626,o),
(32,615,o),
(35,607,cs),
(242,68,ls),
(257,28,o),
(279,-10,o),
(322,-10,cs)
);
}
);
width = 646;
},
{
associatedMasterId = "65988B1E-DCE2-4AC3-A6FF-994A1050067D";
layerId = "0A9E1E22-35A9-43A2-A132-2A1C7405E87E";
name = "Original Skeleton";
shapes = (
{
attr = {
strokeWidth = 2;
};
closed = 0;
nodes = (
(41,700,l),
(292,0,l),
(559,700,l)
);
}
);
width = 594;
},
{
background = {
shapes = (
{
attr = {
strokeWidth = 2;
};
closed = 0;
nodes = (
(62,669,l),
(287,15,l),
(515,669,l)
);
}
);
};
layerId = "3D52442A-254C-4C79-B742-A98FD72DF947";
shapes = (
{
closed = 1;
nodes = (
(293,-10,o),
(302,-3,o),
(305,5,cs),
(535,679,ls),
(537,685,o),
(537,691,o),
(534,697,cs),
(531,704,o),
(523,710,o),
(513,710,cs),
(503,710,o),
(494,704,o),
(491,695,cs),
(278,60,l),
(288,60,l),
(75,695,ls),
(72,704,o),
(63,710,o),
(53,710,cs),
(42,710,o),
(35,704,o),
(31,696,cs),
(29,691,o),
(29,685,o),
(31,679,cs),
(261,5,ls),
(264,-3,o),
(273,-10,o),
(283,-10,cs)
);
}
);
width = 566;
}
);
unicode = 86;
},
{
glyphname = W;
lastChange = "2021-08-08 22:04:32 +0000";
layers = (
{
anchors = (
{
name = bottom;
pos = (421,0);
},
{
name = top;
pos = (421,700);
}
);
background = {
shapes = (
{
attr = {
strokeWidth = 2;
};
closed = 0;
nodes = (
(64,670,l),
(254,32,l),
(418,670,l)
);
},
{
attr = {
strokeWidth = 2;
};
closed = 0;
nodes = (
(418,669,l),
(601,32,l),
(765,669,l)
);
}
);
};
layerId = "65988B1E-DCE2-4AC3-A6FF-994A1050067D";
shapes = (
{
closed = 1;
nodes = (
(246,-15,o),
(267,0,o),
(276,31,cs),
(430,573,l),
(410,573,l),
(565,31,ls),
(574,0,o),
(595,-15,o),
(614,-15,cs),
(633,-15,o),
(656,0,o),
(663,31,cs),
(809,663,ls),
(810,667,o),
(811,671,o),
(811,676,cs),
(811,698,o),
(792,715,o),
(770,715,cs),
(753,715,o),
(736,704,o),
(733,689,cs),
(603,99,l),
(625,100,l),
(462,679,ls),
(456,700,o),
(439,715,o),
(420,715,cs),
(402,715,o),
(385,700,o),
(379,679,cs),
(216,100,l),
(238,99,l),
(108,689,ls),
(105,704,o),
(88,715,o),
(71,715,cs),
(49,715,o),
(30,698,o),
(30,676,cs),
(30,671,o),
(31,667,o),
(32,663,cs),
(178,31,ls),
(185,0,o),
(208,-15,o),
(227,-15,cs)
);
}
);
width = 841;
},
{
anchors = (
{
name = bottom;
pos = (438,-2);
},
{
name = top;
pos = (430,700);
}
);
background = {
shapes = (
{
attr = {
strokeWidth = 2;
};
closed = 0;
nodes = (
(109,642,l),
(282,60,l),
(431,641,l)
);
},
{
attr = {
strokeWidth = 2;
};
closed = 0;
nodes = (
(431,640,l),
(598,60,l),
(748,640,l)
);
},
{
closed = 1;
nodes = (
(277,334,l),
(181,656,ls),
(172,687,o),
(143,710,o),
(109,710,cs),
(68,710,o),
(34,676,o),
(34,635,cs),
(34,628,o),
(35,620,o),
(37,614,cs),
(287,-228,l),
(504,615,ls),
(505,621,o),
(506,628,o),
(506,634,cs),
(506,675,o),
(472,709,o),
(431,709,cs),
(396,709,o),
(367,685,o),
(358,653,cs)
);
},
{
closed = 1;
nodes = (
(594,338,l),
(503,654,ls),
(494,685,o),
(465,708,o),
(431,708,cs),
(390,708,o),
(356,674,o),
(356,633,cs),
(356,626,o),
(357,619,o),
(359,612,cs),
(602,-232,l),
(821,614,ls),
(822,620,o),
(823,627,o),
(823,633,cs),
(823,674,o),
(789,708,o),
(748,708,cs),
(713,708,o),
(684,684,o),
(675,652,cs)
);
}
);
};
layerId = "6242D68C-0A25-4F05-8F2A-2075F7C4A210";
shapes = (
{
closed = 1;
nodes = (
(313,-10,o),
(340,28,o),
(351,68,cs),
(442,393,l),
(413,393,l),
(514,68,ls),
(526,28,o),
(552,-10,o),
(595,-10,cs),
(638,-10,o),
(664,28,o),
(675,68,cs),
(819,607,ls),
(821,615,o),
(824,626,o),
(824,635,cs),
(824,677,o),
(790,710,o),
(745,710,cs),
(712,710,o),
(681,688,o),
(674,658,cs),
(570,219,l),
(601,218,l),
(498,656,ls),
(491,687,o),
(460,710,o),
(430,710,cs),
(399,710,o),
(368,687,o),
(361,656,cs),
(256,218,l),
(293,219,l),
(185,658,ls),
(178,688,o),
(147,710,o),
(114,710,cs),
(69,710,o),
(35,677,o),
(35,635,cs),
(35,626,o),
(38,615,o),
(40,607,cs),
(190,68,ls),
(201,28,o),
(227,-10,o),
(270,-10,cs)
);
}
);
width = 859;
},
{
anchors = (
{
name = bottom;
pos = (426,0);
},
{
name = top;
pos = (426,700);
}
);
associatedMasterId = "65988B1E-DCE2-4AC3-A6FF-994A1050067D";
layerId = "4846143E-31A2-49AC-9448-F95E03AC30F8";
name = "Original Skeleton";
shapes = (
{
attr = {
strokeWidth = 2;
};
closed = 0;
nodes = (
(31,702,l),
(240,0,l),
(420,701,l)
);
},
{
attr = {
strokeWidth = 2;
};
closed = 0;
nodes = (
(420,700,l),
(621,0,l),
(802,700,l)
);
}
);
width = 851;
},
{
anchors = (
{
name = bottom;
pos = (440,0);
},
{
name = top;
pos = (434,700);
}
);
background = {
shapes = (
{
attr = {
strokeWidth = 2;
};
closed = 0;
nodes = (
(45,702,l),
(254,0,l),
(434,701,l)
);
},
{
attr = {
strokeWidth = 2;
};
closed = 0;
nodes = (
(434,700,l),
(635,0,l),
(816,700,l)
);
},
{
closed = 1;
nodes = (
(252,86,l),
(73,688,ls),
(70,698,o),
(62,705,o),
(51,705,cs),
(36,705,o),
(25,691,o),
(29,676,cs),
(256,-86,l),
(451,676,ls),
(455,690,o),
(444,704,o),
(429,704,cs),
(418,704,o),
(409,696,o),
(406,686,cs)
);
},
{
closed = 1;
nodes = (
(634,87,l),
(462,686,ls),
(459,696,o),
(450,703,o),
(440,703,cs),
(425,703,o),
(414,689,o),
(417,674,c),
(636,-87,l),
(833,675,ls),
(837,689,o),
(826,703,o),
(811,703,cs),
(800,703,o),
(791,695,o),
(788,685,cs)
);
}
);
};
layerId = "3D52442A-254C-4C79-B742-A98FD72DF947";
shapes = (
{
closed = 1;
nodes = (
(263,-10,o),
(273,-3,o),
(275,5,cs),
(438,617,l),
(428,617,l),
(591,5,ls),
(593,-3,o),
(603,-10,o),
(613,-10,cs),
(623,-10,o),
(633,-3,o),
(635,5,cs),
(835,679,ls),
(837,685,o),
(837,691,o),
(835,696,cs),
(831,704,o),
(824,710,o),
(813,710,cs),
(803,710,o),
(794,704,o),
(791,695,cs),
(607,59,l),
(618,58,l),
(455,695,ls),
(453,704,o),
(444,710,o),
(433,710,cs),
(422,710,o),
(413,704,o),
(411,695,cs),
(248,58,l),
(259,59,l),
(75,695,ls),
(72,704,o),
(63,710,o),
(53,710,cs),
(42,710,o),
(35,704,o),
(31,696,cs),
(29,691,o),
(29,685,o),
(31,679,cs),
(231,5,ls),
(233,-3,o),
(243,-10,o),
(253,-10,cs)
);
}
);
width = 866;
}
);
unicode = 87;
},
{
glyphname = W.ss02;
lastChange = "2021-08-11 06:27:07 +0000";
layers = (
{
layerId = "65988B1E-DCE2-4AC3-A6FF-994A1050067D";
shapes = (
{
closed = 1;
nodes = (
(266,-15,o),
(283,-5,o),
(289,15,cs),
(460,578,l),
(432,578,l),
(603,15,ls),
(609,-5,o),
(626,-15,o),
(642,-15,cs),
(658,-15,o),
(673,-5,o),
(678,15,cs),
(852,659,ls),
(853,662,o),
(853,665,o),
(853,668,cs),
(853,690,o),
(836,708,o),
(814,708,cs),
(794,708,o),
(778,696,o),
(774,679,cs),
(628,128,l),
(649,129,l),
(485,674,ls),
(478,697,o),
(467,709,o),
(446,709,cs),
(425,709,o),
(414,697,o),
(407,674,cs),
(243,129,l),
(264,128,l),
(109,679,ls),
(104,696,o),
(89,708,o),
(69,708,cs),
(47,708,o),
(30,690,o),
(30,668,cs),
(30,665,o),
(30,662,o),
(31,659,cs),
(214,15,ls),
(220,-5,o),
(234,-15,o),
(250,-15,cs)
);
}
);
width = 883;
},
{
layerId = "6242D68C-0A25-4F05-8F2A-2075F7C4A210";
shapes = (
{
closed = 1;
nodes = (
(325,-10,o),
(353,28,o),
(363,68,cs),
(447,393,l),
(413,393,l),
(496,68,ls),
(506,28,o),
(534,-10,o),
(577,-10,cs),
(620,-10,o),
(645,28,o),
(657,68,cs),
(824,607,ls),
(827,615,o),
(829,626,o),
(829,635,cs),
(829,677,o),
(795,710,o),
(750,710,cs),
(717,710,o),
(687,688,o),
(679,658,cs),
(563,219,l),
(594,218,l),
(503,656,ls),
(497,687,o),
(465,710,o),
(430,710,cs),
(394,710,o),
(362,687,o),
(356,656,cs),
(265,218,l),
(296,219,l),
(180,658,ls),
(172,688,o),
(142,710,o),
(109,710,cs),
(64,710,o),
(30,677,o),
(30,635,cs),
(30,626,o),
(32,615,o),
(35,607,cs),
(202,68,ls),
(214,28,o),
(239,-10,o),
(282,-10,cs)
);
}
);
width = 859;
},
{
layerId = "3D52442A-254C-4C79-B742-A98FD72DF947";
shapes = (
{
closed = 1;
nodes = (
(263,-10,o),
(273,-3,o),
(275,5,cs),
(438,617,l),
(428,617,l),
(591,5,ls),
(593,-3,o),
(603,-10,o),
(613,-10,cs),
(623,-10,o),
(633,-3,o),
(635,5,cs),
(835,679,ls),
(837,685,o),
(837,691,o),
(835,696,cs),
(831,704,o),
(824,710,o),
(813,710,cs),
(803,710,o),
(794,704,o),
(791,695,cs),
(607,59,l),
(618,58,l),
(455,695,ls),
(453,704,o),
(444,710,o),
(433,710,cs),
(422,710,o),
(413,704,o),
(411,695,cs),
(248,58,l),
(259,59,l),
(75,695,ls),
(72,704,o),
(63,710,o),
(53,710,cs),
(42,710,o),
(35,704,o),
(31,696,cs),
(29,691,o),
(29,685,o),
(31,679,cs),
(231,5,ls),
(233,-3,o),
(243,-10,o),
(253,-10,cs)
);
}
);
width = 867;
}
);
},
{
glyphname = X;
lastChange = "2021-08-04 13:00:20 +0000";
layers = (
{
anchors = (
{
name = bottom;
pos = (314,0);
},
{
name = top;
pos = (314,700);
}
);
background = {
shapes = (
{
attr = {
strokeWidth = 2;
};
closed = 0;
nodes = (
(66,700,l),
(559,0,l)
);
},
{
attr = {
strokeWidth = 2;
};
closed = 0;
nodes = (
(558,702,l),
(326,369,l)
);
},
{
attr = {
strokeWidth = 2;
};
closed = 0;
nodes = (
(314,369,l),
(58,0,l)
);
}
);
};
layerId = "65988B1E-DCE2-4AC3-A6FF-994A1050067D";
shapes = (
{
closed = 1;
nodes = (
(563,-5,o),
(580,12,o),
(580,34,cs),
(580,42,o),
(577,50,o),
(573,56,cs),
(125,688,ls),
(118,698,o),
(106,705,o),
(93,705,cs),
(71,705,o),
(54,688,o),
(54,666,cs),
(54,658,o),
(57,650,o),
(61,644,cs),
(509,12,ls),
(516,2,o),
(528,-5,o),
(541,-5,cs)
);
},
{
closed = 1;
nodes = (
(565,645,ls),
(569,651,o),
(572,659,o),
(572,667,cs),
(572,689,o),
(555,706,o),
(533,706,cs),
(520,706,o),
(508,699,o),
(501,689,cs),
(291,389,l),
(339,322,l)
);
},
{
closed = 1;
nodes = (
(92,-5,o),
(104,2,o),
(111,12,cs),
(329,322,l),
(281,389,l),
(47,56,ls),
(43,50,o),
(40,42,o),
(40,34,cs),
(40,12,o),
(57,-5,o),
(79,-5,cs)
);
}
);
width = 620;
},
{
anchors = (
{
name = bottom;
pos = (335,0);
},
{
name = top;
pos = (335,700);
}
);
background = {
shapes = (
{
attr = {
strokeWidth = 2;
};
closed = 0;
nodes = (
(126,640,l),
(534,60,l)
);
},
{
attr = {
strokeWidth = 2;
};
closed = 0;
nodes = (
(533,642,l),
(341,366,l)
);
},
{
attr = {
strokeWidth = 2;
};
closed = 0;
nodes = (
(331,366,l),
(119,60,l)
);
}
);
};
layerId = "6242D68C-0A25-4F05-8F2A-2075F7C4A210";
shapes = (
{
closed = 1;
nodes = (
(575,-10,o),
(610,25,o),
(610,68,cs),
(610,85,o),
(604,102,o),
(595,115,cs),
(204,678,ls),
(190,698,o),
(166,711,o),
(140,711,cs),
(97,711,o),
(62,676,o),
(62,633,cs),
(62,616,o),
(67,601,o),
(76,588,cs),
(469,21,ls),
(482,2,o),
(506,-10,o),
(532,-10,cs)
);
},
{
closed = 1;
nodes = (
(605,585,ls),
(615,598,o),
(620,615,o),
(620,632,cs),
(620,675,o),
(585,710,o),
(542,710,cs),
(516,710,o),
(493,698,o),
(479,679,cs),
(252,372,l),
(362,263,l)
);
},
{
closed = 1;
nodes = (
(144,-10,o),
(168,2,o),
(182,23,cs),
(365,286,l),
(252,392,l),
(54,113,ls),
(45,100,o),
(40,85,o),
(40,68,cs),
(40,25,o),
(75,-10,o),
(118,-10,cs)
);
}
);
width = 660;
},
{
associatedMasterId = "65988B1E-DCE2-4AC3-A6FF-994A1050067D";
layerId = "A3D96D5B-CEC4-41D1-AFD9-7B73061EC540";
name = "Original Skeleton";
shapes = (
{
attr = {
strokeWidth = 2;
};
closed = 0;
nodes = (
(49,700,l),
(542,0,l)
);
},
{
attr = {
strokeWidth = 2;
};
closed = 0;
nodes = (
(529,702,l),
(41,0,l)
);
}
);
width = 593;
},
{
anchors = (
{
name = bottom;
pos = (310,0);
},
{
name = top;
pos = (310,700);
}
);
layerId = "3D52442A-254C-4C79-B742-A98FD72DF947";
shapes = (
{
closed = 1;
nodes = (
(553,-6,o),
(563,4,o),
(563,17,cs),
(563,22,o),
(561,27,o),
(559,30,cs),
(90,697,l),
(85,702,o),
(79,706,o),
(71,706,cs),
(58,706,o),
(48,696,o),
(48,683,cs),
(48,678,o),
(50,673,o),
(52,670,cs),
(521,3,l),
(526,-2,o),
(532,-6,o),
(540,-6,cs)
);
},
{
closed = 1;
nodes = (
(558,672,l),
(561,675,o),
(562,680,o),
(562,685,cs),
(562,698,o),
(552,708,o),
(539,708,cs),
(531,708,o),
(524,704,o),
(520,698,cs),
(291,368,l),
(329,342,l)
);
},
{
closed = 1;
nodes = (
(71,-6,o),
(78,-2,o),
(82,4,cs),
(314,339,l),
(281,372,l),
(44,30,l),
(41,27,o),
(40,22,o),
(40,17,cs),
(40,4,o),
(50,-6,o),
(63,-6,cs)
);
}
);
width = 603;
}
);
unicode = 88;
},
{
glyphname = Y;
lastChange = "2021-08-04 13:00:20 +0000";
layers = (
{
anchors = (
{
name = bottom;
pos = (291,0);
},
{
name = top;
pos = (298,700);
},
{
name = topleft;
pos = (20,700);
}
);
background = {
shapes = (
{
attr = {
strokeWidth = 2;
};
closed = 0;
nodes = (
(530,669,l),
(294,351,l),
(72,669,l)
);
},
{
attr = {
strokeWidth = 2;
};
closed = 0;
nodes = (
(294,360,l),
(294,32,l)
);
}
);
};
layerId = "65988B1E-DCE2-4AC3-A6FF-994A1050067D";
shapes = (
{
closed = 1;
nodes = (
(314,-10,o),
(332,8,o),
(332,31,cs),
(332,341,l),
(558,646,ls),
(563,652,o),
(566,660,o),
(566,669,cs),
(566,691,o),
(549,708,o),
(527,708,cs),
(514,708,o),
(503,702,o),
(496,692,cs),
(265,382,l),
(318,381,l),
(101,691,ls),
(94,701,o),
(82,708,o),
(69,708,cs),
(47,708,o),
(30,691,o),
(30,669,cs),
(30,661,o),
(33,653,o),
(37,647,cs),
(250,341,l),
(250,31,ls),
(250,8,o),
(268,-10,o),
(291,-10,cs)
);
}
);
width = 596;
},
{
anchors = (
{
name = bottom;
pos = (300,0);
},
{
name = top;
pos = (300,700);
},
{
name = topleft;
pos = (20,700);
}
);
background = {
shapes = (
{
attr = {
strokeWidth = 2;
};
closed = 0;
nodes = (
(518,640,l),
(303,351,l),
(101,640,l)
);
},
{
attr = {
strokeWidth = 2;
};
closed = 0;
nodes = (
(303,359,l),
(303,60,l)
);
}
);
};
layerId = "6242D68C-0A25-4F05-8F2A-2075F7C4A210";
shapes = (
{
closed = 1;
nodes = (
(346,-10,o),
(381,25,o),
(381,68,cs),
(381,317,l),
(581,585,ls),
(590,598,o),
(596,615,o),
(596,632,cs),
(596,675,o),
(561,710,o),
(518,710,cs),
(492,710,o),
(469,698,o),
(455,679,cs),
(265,422,l),
(344,421,l),
(165,677,ls),
(151,697,o),
(127,710,o),
(101,710,cs),
(58,710,o),
(23,675,o),
(23,632,cs),
(23,615,o),
(28,600,o),
(37,587,cs),
(225,319,l),
(225,68,ls),
(225,25,o),
(260,-10,o),
(303,-10,cs)
);
}
);
width = 600;
},
{
anchors = (
{
name = bottom;
pos = (298,0);
},
{
name = top;
pos = (298,700);
},
{
name = topleft;
pos = (20,700);
}
);
associatedMasterId = "65988B1E-DCE2-4AC3-A6FF-994A1050067D";
layerId = "94BDF86D-5DC2-40F3-8F2B-F18C239E19A8";
name = "Original Skeleton";
shapes = (
{
attr = {
strokeWidth = 2;
};
closed = 0;
nodes = (
(565,700,l),
(305,351,l),
(61,700,l)
);
},
{
attr = {
strokeWidth = 2;
};
closed = 0;
nodes = (
(305,361,l),
(305,0,l)
);
}
);
width = 596;
},
{
anchors = (
{
name = bottom;
pos = (305,0);
},
{
name = top;
pos = (312,701);
},
{
name = topleft;
pos = (20,700);
}
);
background = {
shapes = (
{
attr = {
strokeWidth = 2;
};
closed = 0;
nodes = (
(565,700,l),
(305,351,l),
(61,700,l)
);
},
{
attr = {
strokeWidth = 2;
};
closed = 0;
nodes = (
(305,361,l),
(305,0,l)
);
}
);
};
layerId = "3D52442A-254C-4C79-B742-A98FD72DF947";
shapes = (
{
closed = 1;
nodes = (
(318,-10,o),
(328,0,o),
(328,13,cs),
(328,344,l),
(571,669,ls),
(574,673,o),
(576,678,o),
(576,683,cs),
(576,696,o),
(565,706,o),
(553,706,cs),
(545,706,o),
(539,703,o),
(534,697,cs),
(294,374,l),
(318,373,l),
(92,696,ls),
(88,702,o),
(81,706,o),
(73,706,cs),
(60,706,o),
(50,696,o),
(50,683,cs),
(50,678,o),
(51,673,o),
(54,670,c),
(282,344,l),
(282,13,ls),
(282,0,o),
(292,-10,o),
(305,-10,cs)
);
}
);
width = 600;
}
);
unicode = 89;
},
{
glyphname = Z;
lastChange = "2021-08-04 13:00:20 +0000";
layers = (
{
anchors = (
{
name = bottom;
pos = (293,0);
},
{
name = center;
pos = (293,350);
},
{
name = top;
pos = (293,700);
}
);
background = {
shapes = (
{
attr = {
strokeWidth = 2;
};
closed = 0;
nodes = (
(98,669,l),
(495,669,l),
(82,32,l),
(495,32,l)
);
}
);
};
layerId = "65988B1E-DCE2-4AC3-A6FF-994A1050067D";
shapes = (
{
closed = 1;
nodes = (
(502,0,ls),
(524,0,o),
(541,17,o),
(541,39,cs),
(541,61,o),
(524,78,o),
(502,78,cs),
(106,78,l),
(126,40,l),
(506,614,ls),
(518,633,o),
(525,649,o),
(525,662,cs),
(525,686,o),
(510,700,o),
(463,700,cs),
(95,700,ls),
(73,700,o),
(56,683,o),
(56,661,cs),
(56,639,o),
(73,622,o),
(95,622,cs),
(465,622,l),
(442,659,l),
(64,86,l),
(52,67,o),
(45,51,o),
(45,38,cs),
(45,14,o),
(60,0,o),
(107,0,cs)
);
}
);
width = 586;
},
{
anchors = (
{
name = bottom;
pos = (319,0);
},
{
name = center;
pos = (309,360);
},
{
name = top;
pos = (319,700);
}
);
background = {
shapes = (
{
attr = {
strokeWidth = 2;
};
closed = 0;
nodes = (
(134,640,l),
(495,640,l),
(120,61,l),
(495,61,l)
);
}
);
};
layerId = "6242D68C-0A25-4F05-8F2A-2075F7C4A210";
shapes = (
{
closed = 1;
nodes = (
(499,0,ls),
(540,0,o),
(574,34,o),
(574,75,cs),
(574,116,o),
(540,150,o),
(499,150,cs),
(200,150,l),
(235,93,l),
(529,561,ls),
(559,609,o),
(565,622,o),
(565,641,cs),
(565,681,o),
(537,700,o),
(475,700,cs),
(151,700,ls),
(110,700,o),
(76,666,o),
(76,625,cs),
(76,584,o),
(110,550,o),
(151,550,cs),
(414,550,l),
(382,607,l),
(81,139,ls),
(50,91,o),
(45,78,o),
(45,59,cs),
(45,19,o),
(73,0,o),
(135,0,cs)
);
}
);
width = 619;
},
{
anchors = (
{
name = bottom;
pos = (293,0);
},
{
name = center;
pos = (293,350);
},
{
name = top;
pos = (293,700);
}
);
associatedMasterId = "65988B1E-DCE2-4AC3-A6FF-994A1050067D";
layerId = "B420247E-EAC0-4CAA-8F6C-05C6685B64C4";
name = "Original Skeleton";
shapes = (
{
attr = {
strokeWidth = 2;
};
closed = 0;
nodes = (
(79,700,l),
(515,700,l),
(62,0,l),
(515,0,l)
);
}
);
width = 586;
},
{
anchors = (
{
name = bottom;
pos = (302,0);
},
{
name = center;
pos = (302,350);
},
{
name = top;
pos = (302,700);
}
);
background = {
shapes = (
{
attr = {
strokeWidth = 2;
};
closed = 0;
nodes = (
(83,699,l),
(506,699,l),
(66,19,l),
(506,19,l)
);
}
);
};
layerId = "3D52442A-254C-4C79-B742-A98FD72DF947";
shapes = (
{
closed = 1;
nodes = (
(488,0,ls),
(501,0,o),
(511,10,o),
(511,23,cs),
(511,36,o),
(501,46,o),
(488,46,cs),
(88,46,l),
(97,29,l),
(509,662,ls),
(512,667,o),
(513,673,o),
(513,677,cs),
(513,690,o),
(502,700,o),
(487,700,cs),
(90,700,ls),
(77,700,o),
(67,690,o),
(67,677,cs),
(67,664,o),
(77,654,o),
(90,654,cs),
(470,654,l),
(459,671,l),
(49,38,ls),
(46,33,o),
(45,27,o),
(45,23,cs),
(45,10,o),
(56,0,o),
(71,0,cs)
);
}
);
width = 558;
}
);
unicode = 90;
},
{
glyphname = a;
lastChange = "2021-08-11 12:03:46 +0000";
layers = (
{
anchors = (
{
name = bottom;
pos = (263,0);
},
{
name = ogonek;
pos = (414,0);
},
{
name = top;
pos = (268,515);
}
);
background = {
shapes = (
{
closed = 1;
nodes = (
(490,59,o),
(477,78,o),
(460,78,cs),
(454,78,o),
(453,79,o),
(453,84,cs),
(454,349,ls),
(454,452,o),
(412,530,o),
(257,530,cs),
(154,530,o),
(84,477,o),
(84,421,cs),
(84,400,o),
(100,383,o),
(121,383,cs),
(136,383,o),
(151,389,o),
(158,405,cs),
(168,427,o),
(182,453,o),
(257,453,cs),
(355,453,o),
(374,409,o),
(374,369,cs),
(375,160,ls),
(375,131,o),
(319,62,o),
(228,62,cs),
(173,62,o),
(126,84,o),
(126,144,cs),
(126,188,o),
(168,218,o),
(239,224,cs),
(296,229,o),
(345,244,o),
(379,266,c),
(378,369,l),
(374,369,l),
(374,329,o),
(335,306,o),
(239,302,cs),
(121,297,o),
(46,230,o),
(46,143,cs),
(46,50,o),
(110,-15,o),
(231,-15,cs),
(290,-15,o),
(329,2,o),
(378,51,cs),
(379,52,o),
(380,53,o),
(381,53,cs),
(383,53,o),
(384,52,o),
(384,50,cs),
(384,20,o),
(411,-4,o),
(443,-5,cs),
(471,-5,o),
(490,14,o),
(490,39,cs)
);
}
);
};
layerId = "65988B1E-DCE2-4AC3-A6FF-994A1050067D";
shapes = (
{
closed = 1;
nodes = (
(273,-16,o),
(340,0,o),
(378,63,c),
(381,63,l),
(381,49,ls),
(381,19,o),
(408,-8,o),
(440,-8,cs),
(478,-8,o),
(496,9,o),
(496,32,cs),
(496,53,o),
(480,72,o),
(461,72,cs),
(454,72,o),
(454,83,o),
(454,102,cs),
(454,335,ls),
(454,435,o),
(417,530,o),
(266,530,cs),
(156,530,o),
(100,462,o),
(83,424,cs),
(72,400,o),
(82,368,o),
(117,368,cs),
(136,368,o),
(146,377,o),
(156,395,cs),
(169,418,o),
(201,453,o),
(267,453,cs),
(347,453,o),
(372,411,o),
(372,369,cs),
(372,322,o),
(331,305,o),
(236,304,cs),
(103,303,o),
(40,220,o),
(40,138,cs),
(40,58,o),
(100,-13,o),
(212,-15,cs)
);
},
{
closed = 1;
nodes = (
(144,61,o),
(120,109,o),
(120,143,cs),
(120,184,o),
(155,229,o),
(237,229,cs),
(300,229,o),
(350,248,o),
(371,265,c),
(374,270,o),
(374,266,o),
(374,265,cs),
(374,197,ls),
(374,127,o),
(305,63,o),
(225,62,cs)
);
}
);
width = 526;
},
{
anchors = (
{
name = bottom;
pos = (301,0);
},
{
name = ogonek;
pos = (498,0);
},
{
name = top;
pos = (293,513);
}
);
layerId = "6242D68C-0A25-4F05-8F2A-2075F7C4A210";
shapes = (
{
closed = 1;
nodes = (
(315,-15,o),
(379,8,o),
(408,69,c),
(411,69,l),
(411,67,l),
(416,16,o),
(442,-7,o),
(488,-8,cs),
(542,-9,o),
(573,23,o),
(573,63,cs),
(573,99,o),
(548,120,o),
(525,128,cs),
(512,133,o),
(509,137,o),
(509,154,cs),
(509,333,ls),
(509,456,o),
(428,529,o),
(304,529,cs),
(210,529,o),
(81,488,o),
(81,405,cs),
(81,364,o),
(113,341,o),
(150,341,cs),
(178,341,o),
(203,349,o),
(217,366,cs),
(228,380,o),
(250,402,o),
(292,402,cs),
(319,402,o),
(361,394,o),
(361,366,cs),
(361,333,o),
(327,321,o),
(246,316,cs),
(93,306,o),
(40,233,o),
(40,148,cs),
(40,36,o),
(140,-15,o),
(247,-15,cs)
);
},
{
closed = 1;
nodes = (
(224,113,o),
(187,134,o),
(187,167,cs),
(187,187,o),
(203,195,o),
(262,207,cs),
(320,219,o),
(338,223,o),
(355,234,cs),
(360,237,o),
(362,237,o),
(362,233,cs),
(362,194,ls),
(362,147,o),
(314,113,o),
(264,113,cs)
);
}
);
width = 611;
},
{
anchors = (
{
name = bottom;
pos = (273,0);
},
{
name = ogonek;
pos = (491,10);
},
{
name = top;
pos = (273,515);
}
);
associatedMasterId = "65988B1E-DCE2-4AC3-A6FF-994A1050067D";
background = {
shapes = (
{
closed = 1;
nodes = (
(500,59,o),
(487,78,o),
(470,78,cs),
(464,78,o),
(463,79,o),
(463,84,cs),
(464,349,ls),
(464,452,o),
(422,530,o),
(267,530,cs),
(164,530,o),
(94,477,o),
(94,421,cs),
(94,400,o),
(110,383,o),
(131,383,cs),
(146,383,o),
(161,389,o),
(168,405,cs),
(178,427,o),
(192,453,o),
(267,453,cs),
(365,453,o),
(384,409,o),
(384,369,cs),
(385,160,ls),
(385,131,o),
(329,62,o),
(238,62,cs),
(183,62,o),
(136,84,o),
(136,144,cs),
(136,188,o),
(178,218,o),
(249,224,cs),
(306,229,o),
(355,244,o),
(389,266,c),
(388,369,l),
(384,369,l),
(384,329,o),
(345,306,o),
(249,302,cs),
(131,297,o),
(56,230,o),
(56,143,cs),
(56,50,o),
(120,-15,o),
(241,-15,cs),
(300,-15,o),
(339,2,o),
(388,51,cs),
(389,52,o),
(390,53,o),
(391,53,cs),
(393,53,o),
(394,52,o),
(394,50,cs),
(394,20,o),
(421,-4,o),
(453,-5,cs),
(481,-5,o),
(500,14,o),
(500,39,cs)
);
}
);
};
layerId = "53B606E2-0238-4D12-B9C4-993F35BD6F5D";
name = "Original Skeleton";
shapes = (
{
attr = {
strokeWidth = 2;
};
closed = 0;
nodes = (
(91,399,l),
(91,417,o),
(113,513,o),
(262,513,cs),
(399,513,o),
(434,435,o),
(434,358,c),
(434,357,o),
(436,148,o),
(436,67,cs),
(436,7,o),
(490,7,o),
(490,7,c)
);
},
{
attr = {
strokeWidth = 2;
};
closed = 0;
nodes = (
(433,113,l),
(433,112,o),
(351,0,o),
(218,0,cs),
(107,0,o),
(61,59,o),
(61,119,cs),
(61,173,o),
(109,265,o),
(242,265,cs),
(422,265,o),
(434,365,o),
(434,365,c)
);
}
);
width = 546;
},
{
anchors = (
{
name = bottom;
pos = (232,0);
},
{
name = ogonek;
pos = (412,0);
},
{
name = top;
pos = (246,515);
}
);
background = {
shapes = (
{
closed = 1;
nodes = (
(255,-16,o),
(322,0,o),
(360,68,c),
(362,72,o),
(363,71,o),
(363,68,c),
(363,49,ls),
(363,19,o),
(387,-8,o),
(419,-8,cs),
(426,-8,ls),
(459,-8,o),
(478,9,o),
(478,32,cs),
(478,53,o),
(462,72,o),
(443,72,cs),
(436,72,o),
(436,83,o),
(436,102,cs),
(436,335,ls),
(436,435,o),
(399,530,o),
(248,530,cs),
(138,530,o),
(82,462,o),
(65,424,cs),
(54,400,o),
(64,368,o),
(99,368,cs),
(118,368,o),
(128,377,o),
(138,395,cs),
(151,418,o),
(183,453,o),
(249,453,cs),
(329,453,o),
(354,411,o),
(354,369,cs),
(354,322,o),
(313,305,o),
(218,304,cs),
(85,303,o),
(22,220,o),
(22,138,cs),
(22,58,o),
(82,-13,o),
(194,-15,cs)
);
},
{
closed = 1;
nodes = (
(102,184,o),
(137,229,o),
(219,229,cs),
(282,229,o),
(334,256,o),
(353,276,c),
(356,281,o),
(356,277,o),
(356,276,cs),
(356,254,l),
(356,170,ls),
(356,98,o),
(287,63,o),
(207,62,cs),
(126,61,o),
(102,109,o),
(102,143,cs)
);
},
{
closed = 1;
nodes = (
(122,30,o),
(85,76,o),
(85,136,cs),
(85,193,o),
(124,251,o),
(223,249,cs),
(278,248,o),
(325,264,o),
(362,290,cs),
(368,294,o),
(374,301,o),
(374,292,cs),
(374,177,ls),
(374,102,o),
(303,30,o),
(206,30,cs)
);
}
);
};
layerId = "3D52442A-254C-4C79-B742-A98FD72DF947";
shapes = (
{
closed = 1;
nodes = (
(279,-15,o),
(335,13,o),
(373,73,c),
(376,73,l),
(376,42,ls),
(376,16,o),
(385,-8,o),
(423,-8,cs),
(449,-8,o),
(461,1,o),
(461,16,cs),
(461,30,o),
(451,38,o),
(437,38,cs),
(422,38,o),
(419,45,o),
(419,65,cs),
(419,350,ls),
(419,449,o),
(377,530,o),
(249,530,cs),
(133,530,o),
(76,454,o),
(76,415,cs),
(76,405,o),
(82,397,o),
(95,397,cs),
(109,397,o),
(116,404,o),
(123,420,cs),
(135,446,o),
(169,485,o),
(243,485,cs),
(338,485,o),
(369,436,o),
(369,386,cs),
(369,326,o),
(319,293,o),
(218,292,cs),
(92,291,o),
(40,215,o),
(40,132,cs),
(40,48,o),
(94,-13,o),
(198,-15,cs)
);
},
{
closed = 1;
nodes = (
(122,30,o),
(85,76,o),
(85,136,cs),
(85,193,o),
(123,251,o),
(222,249,cs),
(277,248,o),
(325,263,o),
(361,289,cs),
(373,297,o),
(374,298,o),
(374,294,cs),
(374,177,ls),
(374,102,o),
(303,30,o),
(206,30,cs)
);
}
);
width = 491;
},
{
anchors = (
{
name = bottom;
pos = (231,0);
},
{
name = ogonek;
pos = (487,0);
},
{
name = top;
pos = (310,515);
}
);
associatedMasterId = "6242D68C-0A25-4F05-8F2A-2075F7C4A210";
layerId = "56CFEAC8-FE9D-48AA-9077-34FAA0BCD962";
name = "Extrabold Alt 1";
shapes = (
{
closed = 1;
nodes = (
(288,-17,o),
(336,14,o),
(366,59,c),
(369,59,l),
(376,45,ls),
(393,11,o),
(439,-8,o),
(487,-8,cs),
(500,-8,ls),
(551,-8,o),
(580,25,o),
(580,66,cs),
(580,107,o),
(552,132,o),
(528,132,cs),
(515,132,o),
(512,140,o),
(512,157,cs),
(512,300,ls),
(512,411,o),
(466,530,o),
(289,530,cs),
(186,530,o),
(82,480,o),
(82,404,cs),
(82,362,o),
(114,341,o),
(150,341,cs),
(183,341,o),
(197,359,o),
(209,365,cs),
(229,375,o),
(266,383,o),
(295,383,cs),
(333,383,o),
(356,369,o),
(356,345,cs),
(356,327,o),
(343,305,o),
(259,304,cs),
(114,302,o),
(38,233,o),
(38,135,cs),
(38,38,o),
(115,-12,o),
(216,-15,cs)
);
},
{
closed = 1;
nodes = (
(184,190,o),
(215,208,o),
(260,208,cs),
(290,208,o),
(325,218,o),
(358,235,c),
(362,237,o),
(362,236,o),
(362,231,cs),
(362,225,l),
(362,215,ls),
(362,154,o),
(326,118,o),
(254,117,cs),
(209,116,o),
(184,132,o),
(184,159,cs)
);
}
);
visible = 1;
width = 611;
},
{
anchors = (
{
name = bottom;
pos = (315,0);
},
{
name = ogonek;
pos = (512,0);
},
{
name = top;
pos = (307,513);
}
);
associatedMasterId = "6242D68C-0A25-4F05-8F2A-2075F7C4A210";
layerId = "F66BA857-4334-4112-8D5F-6191DD60B8F4";
name = "Extrabold Alt 2";
shapes = (
{
closed = 1;
nodes = (
(302,-16,o),
(369,0,o),
(407,63,c),
(410,63,l),
(410,50,l),
(410,5,o),
(459,-8,o),
(506,-8,cs),
(562,-8,o),
(597,25,o),
(597,66,cs),
(597,107,o),
(569,131,o),
(545,131,cs),
(532,131,o),
(529,140,o),
(529,157,cs),
(529,333,ls),
(529,456,o),
(443,529,o),
(306,529,cs),
(217,529,o),
(81,488,o),
(81,405,cs),
(81,364,o),
(113,341,o),
(150,341,cs),
(178,341,o),
(203,349,o),
(217,366,cs),
(228,380,o),
(250,402,o),
(304,402,cs),
(339,402,o),
(381,394,o),
(381,366,cs),
(381,333,o),
(347,321,o),
(266,316,cs),
(93,306,o),
(40,233,o),
(40,148,cs),
(40,38,o),
(137,-15,o),
(241,-15,cs)
);
},
{
closed = 1;
nodes = (
(224,113,o),
(187,134,o),
(187,162,cs),
(187,188,o),
(202,195,o),
(282,207,cs),
(340,216,o),
(361,221,o),
(376,234,c),
(378,235,o),
(379,235,o),
(379,233,cs),
(379,194,ls),
(379,147,o),
(334,113,o),
(272,113,cs)
);
}
);
visible = 1;
width = 611;
}
);
unicode = 97;
},
{
glyphname = a.ss01;
lastChange = "2021-08-09 07:43:44 +0000";
layers = (
{
anchors = (
{
name = bottom;
pos = (268,-16);
},
{
name = ogonek;
pos = (478,10);
},
{
name = top;
pos = (283,515);
}
);
background = {
shapes = (
{
closed = 1;
nodes = (
(535,59,o),
(522,78,o),
(505,78,cs),
(499,78,o),
(498,79,o),
(498,84,cs),
(499,349,ls),
(499,452,o),
(457,530,o),
(302,530,cs),
(199,530,o),
(129,477,o),
(129,421,cs),
(129,400,o),
(145,383,o),
(166,383,cs),
(181,383,o),
(196,389,o),
(203,405,cs),
(213,427,o),
(227,453,o),
(302,453,cs),
(400,453,o),
(419,409,o),
(419,369,cs),
(420,160,ls),
(420,131,o),
(364,62,o),
(273,62,cs),
(218,62,o),
(171,84,o),
(171,144,cs),
(171,188,o),
(213,218,o),
(284,224,cs),
(341,229,o),
(390,244,o),
(424,266,c),
(423,369,l),
(419,369,l),
(419,329,o),
(380,306,o),
(284,302,cs),
(166,297,o),
(91,230,o),
(91,143,cs),
(91,50,o),
(155,-15,o),
(276,-15,cs),
(335,-15,o),
(374,2,o),
(423,51,cs),
(424,52,o),
(425,53,o),
(426,53,cs),
(428,53,o),
(429,52,o),
(429,50,cs),
(429,20,o),
(456,-4,o),
(488,-5,cs),
(516,-5,o),
(535,14,o),
(535,39,cs)
);
},
{
closed = 1;
nodes = (
(1001,92,l),
(1001,33,ls),
(1001,10,o),
(1019,-8,o),
(1041,-8,cs),
(1063,-8,o),
(1081,10,o),
(1081,33,cs),
(1081,480,ls),
(1081,502,o),
(1063,520,o),
(1041,520,cs),
(1019,520,o),
(1001,502,o),
(1001,480,cs),
(1001,427,l),
(1010,427,l),
(1009,92,l)
);
},
{
closed = 1;
nodes = (
(701,382,o),
(755,454,o),
(856,453,c),
(943,452,o),
(1001,381,o),
(1001,251,cs),
(1001,91,o),
(917,62,o),
(854,62,cs),
(758,62,o),
(701,134,o),
(701,257,cs)
);
},
{
closed = 1;
nodes = (
(974,495,o),
(923,530,o),
(848,530,cs),
(705,530,o),
(621,406,o),
(621,257,cs),
(621,113,o),
(700,-15,o),
(839,-15,cs),
(913,-15,o),
(976,11,o),
(1018,66,c),
(1017,441,l)
);
}
);
};
layerId = "65988B1E-DCE2-4AC3-A6FF-994A1050067D";
shapes = (
{
closed = 1;
nodes = (
(500,480,ls),
(500,502,o),
(482,520,o),
(460,520,cs),
(438,520,o),
(420,502,o),
(420,480,cs),
(420,417,l),
(433,435,l),
(398,487,o),
(345,530,o),
(267,530,cs),
(122,530,o),
(40,397,o),
(40,247,cs),
(40,101,o),
(114,-15,o),
(258,-15,cs),
(334,-15,o),
(399,13,o),
(442,91,c),
(427,103,l),
(427,49,ls),
(427,19,o),
(451,-8,o),
(483,-8,cs),
(490,-8,ls),
(523,-8,o),
(542,9,o),
(542,32,cs),
(542,53,o),
(526,72,o),
(507,72,cs),
(500,72,o),
(500,83,o),
(500,102,cs)
);
},
{
closed = 1;
nodes = (
(177,62,o),
(120,124,o),
(120,247,cs),
(120,372,o),
(174,454,o),
(272,453,cs),
(361,452,o),
(420,377,o),
(420,251,cs),
(420,91,o),
(336,62,o),
(273,62,cs)
);
}
);
width = 572;
},
{
anchors = (
{
name = bottom;
pos = (268,-16);
},
{
name = ogonek;
pos = (478,10);
},
{
name = top;
pos = (283,515);
}
);
layerId = "6242D68C-0A25-4F05-8F2A-2075F7C4A210";
width = 600;
},
{
anchors = (
{
name = bottom;
pos = (244,0);
},
{
name = ogonek;
pos = (698,10);
},
{
name = top;
pos = (244,515);
}
);
layerId = "3D52442A-254C-4C79-B742-A98FD72DF947";
shapes = (
{
closed = 1;
nodes = (
(324,-15,o),
(381,18,o),
(418,73,c),
(418,67,l),
(420,67,l),
(420,42,ls),
(420,16,o),
(429,-8,o),
(467,-8,cs),
(493,-8,o),
(505,1,o),
(505,16,cs),
(505,30,o),
(495,38,o),
(481,38,cs),
(466,38,o),
(463,45,o),
(463,65,cs),
(463,493,ls),
(463,508,o),
(456,520,o),
(441,520,cs),
(426,520,o),
(418,508,o),
(418,493,cs),
(418,435,l),
(392,489,o),
(333,530,o),
(256,530,cs),
(127,530,o),
(40,408,o),
(40,258,cs),
(40,107,o),
(110,-15,o),
(247,-15,cs)
);
},
{
closed = 1;
nodes = (
(146,29,o),
(85,113,o),
(85,258,cs),
(85,401,o),
(164,487,o),
(259,487,cs),
(349,487,o),
(418,394,o),
(418,258,cs),
(418,113,o),
(354,31,o),
(250,30,cs)
);
}
);
width = 535;
}
);
metricLeft = "=o";
metricRight = "=a";
},
{
color = 5;
glyphname = a.ss02;
lastChange = "2021-08-09 04:55:24 +0000";
layers = (
{
anchors = (
{
name = bottom;
pos = (295,0);
},
{
name = ogonek;
pos = (530,10);
},
{
name = top;
pos = (295,515);
}
);
layerId = "65988B1E-DCE2-4AC3-A6FF-994A1050067D";
shapes = (
{
closed = 1;
nodes = (
(307,-16,o),
(370,12,o),
(419,52,c),
(419,132,l),
(379,98,o),
(316,63,o),
(238,62,cs),
(149,61,o),
(125,108,o),
(125,143,cs),
(125,184,o),
(160,229,o),
(256,229,cs),
(322,229,o),
(372,242,o),
(409,260,c),
(409,81,ls),
(409,24,o),
(446,-5,o),
(496,-8,cs),
(525,-9,o),
(544,9,o),
(544,32,cs),
(544,53,o),
(528,71,o),
(507,72,cs),
(495,73,o),
(489,83,o),
(489,102,cs),
(489,335,ls),
(489,425,o),
(443,530,o),
(286,530,cs),
(126,530,o),
(78,409,o),
(75,382,cs),
(72,353,o),
(91,337,o),
(113,337,cs),
(135,337,o),
(150,353,o),
(155,376,cs),
(158,389,o),
(183,453,o),
(287,453,cs),
(376,453,o),
(408,409,o),
(408,369,cs),
(408,322,o),
(362,305,o),
(256,304,cs),
(108,303,o),
(45,220,o),
(45,138,cs),
(45,58,o),
(105,-14,o),
(232,-15,cs)
);
}
);
width = 589;
},
{
layerId = "6242D68C-0A25-4F05-8F2A-2075F7C4A210";
width = 600;
},
{
layerId = "3D52442A-254C-4C79-B742-A98FD72DF947";
width = 600;
},
{
anchors = (
{
name = bottom;
pos = (300,0);
},
{
name = ogonek;
pos = (535,10);
},
{
name = top;
pos = (300,515);
}
);
associatedMasterId = "65988B1E-DCE2-4AC3-A6FF-994A1050067D";
layerId = "2892269F-6090-48A0-98C2-9DCC44BB470F";
name = "Inktrap 1";
shapes = (
{
closed = 1;
nodes = (
(298,-16,o),
(380,0,o),
(418,78,c),
(420,82,o),
(421,81,o),
(421,78,c),
(420,48,o),
(425,-8,o),
(501,-8,cs),
(530,-8,o),
(549,9,o),
(549,32,cs),
(549,53,o),
(533,71,o),
(512,72,cs),
(500,73,o),
(494,83,o),
(494,102,cs),
(494,335,ls),
(494,431,o),
(443,530,o),
(291,530,cs),
(166,530,o),
(110,457,o),
(93,419,cs),
(82,395,o),
(92,363,o),
(127,363,cs),
(146,363,o),
(156,372,o),
(166,390,cs),
(179,413,o),
(211,453,o),
(292,453,cs),
(377,453,o),
(412,411,o),
(412,369,cs),
(412,322,o),
(367,305,o),
(261,304,cs),
(113,303,o),
(50,220,o),
(50,138,cs),
(50,58,o),
(110,-13,o),
(237,-15,cs)
);
},
{
closed = 1;
nodes = (
(130,184,o),
(165,229,o),
(262,229,cs),
(318,229,o),
(379,245,o),
(411,290,c),
(414,295,o),
(414,291,o),
(414,290,cs),
(414,254,l),
(414,160,ls),
(414,98,o),
(330,63,o),
(250,62,cs),
(154,61,o),
(130,109,o),
(130,143,cs)
);
}
);
width = 589;
},
{
anchors = (
{
name = bottom;
pos = (300,0);
},
{
name = ogonek;
pos = (535,10);
},
{
name = top;
pos = (300,515);
}
);
associatedMasterId = "65988B1E-DCE2-4AC3-A6FF-994A1050067D";
layerId = "0C05A765-5A05-42BC-9845-51836952A987";
name = "Inktrap 2";
shapes = (
{
closed = 1;
nodes = (
(308,-16,o),
(383,10,o),
(426,69,c),
(429,69,l),
(427,62,o),
(425,55,o),
(425,47,cs),
(425,14,o),
(459,-8,o),
(498,-8,cs),
(530,-8,o),
(549,9,o),
(549,32,cs),
(549,53,o),
(533,71,o),
(512,72,cs),
(500,73,o),
(494,83,o),
(494,102,cs),
(494,335,ls),
(494,425,o),
(448,530,o),
(291,530,cs),
(131,530,o),
(83,409,o),
(80,382,cs),
(77,353,o),
(96,337,o),
(118,337,cs),
(140,337,o),
(155,353,o),
(160,376,cs),
(163,389,o),
(188,453,o),
(292,453,cs),
(381,453,o),
(413,409,o),
(413,369,cs),
(413,322,o),
(367,305,o),
(261,304,cs),
(113,303,o),
(50,220,o),
(50,138,cs),
(50,58,o),
(110,-14,o),
(237,-15,cs)
);
},
{
closed = 1;
nodes = (
(130,184,o),
(165,229,o),
(261,229,cs),
(327,229,o),
(385,239,o),
(417,278,c),
(420,278,l),
(418,270,o),
(414,262,o),
(414,239,cs),
(414,153,ls),
(414,108,o),
(328,63,o),
(243,62,cs),
(154,61,o),
(130,108,o),
(130,143,cs)
);
}
);
width = 589;
}
);
},
{
glyphname = aogonek;
lastChange = "2021-08-11 11:57:06 +0000";
layers = (
{
anchors = (
{
name = _ogonek;
pos = (389,8);
}
);
background = {
shapes = (
{
attr = {
lineCapEnd = "1";
lineCapStart = "1";
strokeHeight = 73;
strokeWidth = 73;
};
closed = 0;
nodes = (
(417,106,l),
(417,34,ls),
(417,-28,o),
(308,-32,o),
(308,-102,cs),
(308,-140,o),
(342,-147,o),
(372,-147,cs),
(395,-147,o),
(417,-143,o),
(439,-119,cs)
);
}
);
};
layerId = "65988B1E-DCE2-4AC3-A6FF-994A1050067D";
shapes = (
{
closed = 1;
nodes = (
(120,184,o),
(155,229,o),
(237,229,cs),
(300,229,o),
(352,256,o),
(371,276,c),
(374,281,o),
(374,277,o),
(374,276,cs),
(374,254,l),
(374,190,ls),
(374,118,o),
(305,63,o),
(225,62,cs),
(144,61,o),
(120,109,o),
(120,143,cs)
);
},
{
closed = 1;
nodes = (
(381,28,ls),
(381,6,o),
(395,-10,o),
(417,-10,cs),
(439,-10,o),
(454,6,o),
(454,28,cs),
(454,335,ls),
(454,435,o),
(417,530,o),
(266,530,cs),
(156,530,o),
(100,462,o),
(83,424,cs),
(72,400,o),
(82,368,o),
(117,368,cs),
(136,368,o),
(146,377,o),
(156,395,cs),
(169,418,o),
(201,453,o),
(267,453,cs),
(347,453,o),
(372,411,o),
(372,369,cs),
(372,322,o),
(331,305,o),
(236,304,cs),
(103,303,o),
(40,220,o),
(40,138,cs),
(40,58,o),
(100,-13,o),
(212,-15,cs),
(273,-16,o),
(340,0,o),
(378,68,c),
(380,72,o),
(381,71,o),
(381,68,c),
(381,52,l)
);
},
{
closed = 0;
nodes = (
(385,64,l)
);
},
{
pos = (232,0);
ref = ogonekcomb;
}
);
width = 506;
},
{
layerId = "6242D68C-0A25-4F05-8F2A-2075F7C4A210";
width = 600;
},
{
layerId = "3D52442A-254C-4C79-B742-A98FD72DF947";
width = 600;
}
);
metricLeft = "=a";
metricRight = "=a";
unicode = 261;
},
{
glyphname = aogonek.ss01;
lastChange = "2021-08-11 11:57:06 +0000";
layers = (
{
anchors = (
{
name = bottom;
pos = (237,-16);
},
{
name = ogonek;
pos = (447,10);
},
{
name = top;
pos = (252,515);
}
);
layerId = "65988B1E-DCE2-4AC3-A6FF-994A1050067D";
shapes = (
{
closed = 1;
nodes = (
(420,91,l),
(420,32,ls),
(420,9,o),
(438,-9,o),
(460,-9,cs),
(482,-9,o),
(500,9,o),
(500,32,cs),
(500,479,ls),
(500,501,o),
(482,519,o),
(460,519,cs),
(438,519,o),
(420,501,o),
(420,479,cs),
(420,426,l),
(429,426,l),
(428,91,l)
);
},
{
closed = 1;
nodes = (
(120,381,o),
(174,453,o),
(275,452,c),
(362,451,o),
(420,380,o),
(420,250,cs),
(420,90,o),
(336,61,o),
(273,61,cs),
(177,61,o),
(120,133,o),
(120,256,cs)
);
},
{
closed = 1;
nodes = (
(393,494,o),
(342,529,o),
(267,529,cs),
(124,529,o),
(40,405,o),
(40,256,cs),
(40,112,o),
(119,-16,o),
(258,-16,cs),
(332,-16,o),
(395,10,o),
(437,65,c),
(436,440,l)
);
},
{
closed = 1;
nodes = (
(437,-111,o),
(428,-119,o),
(412,-119,cs),
(392,-119,o),
(388,-107,o),
(388,-99,cs),
(388,-58,o),
(500,-32,o),
(500,28,cs),
(500,106,l),
(420,106,l),
(420,23,ls),
(420,-7,o),
(318,-30,o),
(318,-107,cs),
(318,-158,o),
(363,-182,o),
(410,-183,cs),
(436,-184,o),
(470,-178,o),
(502,-144,cs),
(508,-137,o),
(512,-129,o),
(512,-119,cs),
(512,-99,o),
(498,-85,o),
(478,-85,cs),
(467,-85,o),
(458,-89,o),
(451,-96,cs)
);
}
);
width = 542;
},
{
layerId = "6242D68C-0A25-4F05-8F2A-2075F7C4A210";
width = 600;
},
{
layerId = "3D52442A-254C-4C79-B742-A98FD72DF947";
width = 600;
}
);
metricLeft = "=a.ss01";
metricRight = "=aogonek";
},
{
glyphname = ae;
lastChange = "2021-08-04 13:00:20 +0000";
layers = (
{
anchors = (
{
name = bottom;
pos = (415,0);
},
{
name = top;
pos = (435,515);
}
);
layerId = "65988B1E-DCE2-4AC3-A6FF-994A1050067D";
shapes = (
{
closed = 1;
nodes = (
(286,-15,o),
(355,17,o),
(399,81,c),
(414,81,l),
(458,17,o),
(529,-15,o),
(600,-15,cs),
(685,-15,o),
(750,32,o),
(782,80,cs),
(811,123,o),
(787,155,o),
(761,155,cs),
(737,155,o),
(726,134,o),
(719,123,cs),
(701,94,o),
(659,62,o),
(598,62,cs),
(520,62,o),
(449,115,o),
(449,261,cs),
(449,280,l),
(455,390,o),
(508,453,o),
(596,453,cs),
(688,453,o),
(715,394,o),
(720,313,c),
(435,313,l),
(434,242,l),
(738,237,ls),
(776,236,o),
(796,258,o),
(795,296,cs),
(793,449,o),
(721,530,o),
(599,530,cs),
(523,530,o),
(463,502,o),
(424,451,c),
(398,498,o),
(349,530,o),
(261,530,cs),
(151,530,o),
(95,462,o),
(78,424,cs),
(67,400,o),
(77,368,o),
(112,368,cs),
(131,368,o),
(141,377,o),
(151,395,cs),
(164,418,o),
(196,453,o),
(262,453,cs),
(342,453,o),
(367,411,o),
(367,369,cs),
(367,322,o),
(326,305,o),
(231,304,cs),
(98,303,o),
(35,220,o),
(35,138,cs),
(35,58,o),
(95,-15,o),
(215,-15,cs)
);
},
{
closed = 1;
nodes = (
(139,61,o),
(115,109,o),
(115,143,cs),
(115,184,o),
(150,229,o),
(232,229,cs),
(295,229,o),
(347,256,o),
(366,276,c),
(369,281,o),
(369,277,o),
(369,276,cs),
(369,170,ls),
(369,98,o),
(300,63,o),
(220,62,cs)
);
}
);
width = 830;
},
{
anchors = (
{
name = bottom;
pos = (300,0);
},
{
name = top;
pos = (300,515);
}
);
layerId = "6242D68C-0A25-4F05-8F2A-2075F7C4A210";
width = 600;
},
{
anchors = (
{
name = bottom;
pos = (300,0);
},
{
name = top;
pos = (300,515);
}
);
layerId = "3D52442A-254C-4C79-B742-A98FD72DF947";
width = 600;
}
);
unicode = 230;
},
{
color = 0;
glyphname = ae.ss01;
lastChange = "2021-08-09 03:53:14 +0000";
layers = (
{
anchors = (
{
name = bottom;
pos = (456,0);
},
{
name = top;
pos = (456,515);
}
);
annotations = (
{
pos = (304,611);
text = "Still a mess--need to refine/totally redraw";
type = Text;
width = 190;
}
);
layerId = "65988B1E-DCE2-4AC3-A6FF-994A1050067D";
shapes = (
{
closed = 1;
nodes = (
(414,92,l),
(414,33,ls),
(414,10,o),
(432,-8,o),
(454,-8,cs),
(476,-8,o),
(494,10,o),
(494,33,cs),
(494,480,ls),
(494,502,o),
(476,520,o),
(454,520,cs),
(432,520,o),
(414,502,o),
(414,480,cs),
(414,427,l),
(420,411,l),
(422,92,l)
);
},
{
closed = 1;
nodes = (
(124,382,o),
(173,454,o),
(269,453,c),
(356,452,o),
(404,381,o),
(404,251,cs),
(404,91,o),
(330,62,o),
(267,62,cs),
(176,62,o),
(124,134,o),
(124,257,cs)
);
},
{
closed = 1;
nodes = (
(400,485,o),
(332,530,o),
(257,530,cs),
(119,530,o),
(40,406,o),
(40,257,cs),
(40,113,o),
(114,-15,o),
(248,-15,cs),
(322,-15,o),
(385,11,o),
(427,96,c),
(426,418,l)
);
},
{
closed = 1;
nodes = (
(744,-15,o),
(804,32,o),
(836,80,cs),
(865,123,o),
(841,155,o),
(815,155,cs),
(791,155,o),
(780,134,o),
(773,123,cs),
(755,94,o),
(718,62,o),
(662,62,cs),
(590,62,o),
(523,115,o),
(523,260,cs),
(523,386,o),
(578,453,o),
(660,453,cs),
(750,453,o),
(796,373,o),
(797,282,c),
(826,307,l),
(507,307,l),
(507,234,l),
(814,234,ls),
(852,234,o),
(871,255,o),
(871,293,cs),
(871,422,o),
(788,530,o),
(663,530,cs),
(537,530,o),
(443,420,o),
(443,255,cs),
(443,76,o),
(549,-15,o),
(664,-15,cs)
);
}
);
width = 911;
},
{
layerId = "6242D68C-0A25-4F05-8F2A-2075F7C4A210";
width = 600;
},
{
layerId = "3D52442A-254C-4C79-B742-A98FD72DF947";
width = 600;
}
);
metricLeft = "=o";
metricRight = "=o";
},
{
glyphname = b;
lastChange = "2021-08-09 04:50:54 +0000";
layers = (
{
layerId = "65988B1E-DCE2-4AC3-A6FF-994A1050067D";
shapes = (
{
closed = 1;
nodes = (
(451,-14,o),
(530,114,o),
(530,258,cs),
(530,406,o),
(454,530,o),
(312,530,cs),
(241,530,o),
(178,496,o),
(133,443,c),
(150,427,l),
(150,690,ls),
(150,712,o),
(132,730,o),
(110,730,cs),
(88,730,o),
(70,712,o),
(70,690,cs),
(70,31,ls),
(70,8,o),
(88,-10,o),
(110,-10,cs),
(132,-10,o),
(150,8,o),
(150,31,cs),
(150,92,l),
(134,74,l),
(177,20,o),
(241,-15,o),
(313,-15,cs)
);
},
{
closed = 1;
nodes = (
(201,63,o),
(150,130,o),
(150,258,cs),
(150,386,o),
(201,453,o),
(297,453,cs),
(394,453,o),
(450,378,o),
(450,258,cs),
(450,133,o),
(396,61,o),
(295,62,cs)
);
}
);
width = 570;
},
{
background = {
shapes = (
{
closed = 1;
nodes = (
(485,133,o),
(431,61,o),
(330,62,cs),
(236,63,o),
(185,130,o),
(185,258,cs),
(185,386,o),
(236,453,o),
(332,453,cs),
(428,453,o),
(485,381,o),
(485,258,cs)
);
},
{
closed = 1;
nodes = (
(565,402,o),
(486,530,o),
(347,530,cs),
(276,530,o),
(213,496,o),
(168,443,c),
(185,427,l),
(185,690,ls),
(185,712,o),
(167,730,o),
(145,730,cs),
(123,730,o),
(105,712,o),
(105,690,cs),
(105,31,ls),
(105,8,o),
(123,-10,o),
(145,-10,cs),
(167,-10,o),
(185,8,o),
(185,31,cs),
(185,92,l),
(169,74,l),
(212,20,o),
(276,-15,o),
(348,-15,cs),
(486,-14,o),
(565,114,o),
(565,258,cs)
);
},
{
ref = h;
},
{
pos = (31,0);
ref = o;
}
);
};
layerId = "6242D68C-0A25-4F05-8F2A-2075F7C4A210";
shapes = (
{
closed = 1;
nodes = (
(520,-14,o),
(590,135,o),
(590,258,cs),
(590,381,o),
(520,530,o),
(356,530,cs),
(297,530,o),
(245,509,o),
(202,446,c),
(220,434,l),
(220,655,ls),
(220,696,o),
(186,730,o),
(145,730,cs),
(104,730,o),
(70,696,o),
(70,655,cs),
(70,66,ls),
(70,24,o),
(104,-10,o),
(145,-10,cs),
(186,-10,o),
(220,24,o),
(220,66,cs),
(220,94,l),
(203,86,l),
(223,31,o),
(277,-16,o),
(362,-15,cs)
);
},
{
closed = 1;
nodes = (
(263,123,o),
(220,172,o),
(220,258,cs),
(220,344,o),
(263,393,o),
(332,393,cs),
(399,393,o),
(434,339,o),
(434,258,cs),
(434,175,o),
(402,121,o),
(330,122,cs)
);
}
);
width = 630;
},
{
associatedMasterId = "65988B1E-DCE2-4AC3-A6FF-994A1050067D";
layerId = "F80A7ED1-B4C8-40E5-8CD0-AB4849CBDA98";
name = "Original Skeleton";
shapes = (
{
attr = {
strokeWidth = 2;
};
closed = 1;
nodes = (
(501,115,o),
(435,0,o),
(302,0,cs),
(187,0,o),
(101,81,o),
(101,257,c),
(101,442,o),
(187,515,o),
(302,515,cs),
(432,515,o),
(501,400,o),
(501,257,c)
);
},
{
attr = {
strokeWidth = 2;
};
closed = 0;
nodes = (
(101,700,l),
(101,0,l)
);
}
);
width = 565;
},
{
background = {
shapes = (
{
closed = 1;
nodes = (
(437,133,o),
(383,61,o),
(282,62,cs),
(188,63,o),
(137,130,o),
(137,258,cs),
(137,386,o),
(188,453,o),
(284,453,cs),
(380,453,o),
(437,381,o),
(437,258,cs)
);
},
{
closed = 1;
nodes = (
(517,402,o),
(438,530,o),
(299,530,cs),
(228,530,o),
(165,496,o),
(120,443,c),
(137,427,l),
(137,690,ls),
(137,712,o),
(119,730,o),
(97,730,cs),
(75,730,o),
(57,712,o),
(57,690,cs),
(57,31,ls),
(57,8,o),
(75,-10,o),
(97,-10,cs),
(119,-10,o),
(137,8,o),
(137,31,cs),
(137,92,l),
(121,74,l),
(164,20,o),
(228,-15,o),
(300,-15,cs),
(438,-14,o),
(517,114,o),
(517,258,cs)
);
}
);
};
layerId = "3D52442A-254C-4C79-B742-A98FD72DF947";
shapes = (
{
closed = 1;
nodes = (
(433,-15,o),
(506,112,o),
(506,258,cs),
(506,408,o),
(436,530,o),
(299,530,cs),
(196,530,o),
(134,475,o),
(110,409,c),
(120,409,l),
(120,703,ls),
(120,718,o),
(112,730,o),
(97,730,cs),
(82,730,o),
(75,718,o),
(75,703,cs),
(75,17,ls),
(75,1,o),
(82,-10,o),
(97,-10,cs),
(112,-10,o),
(120,1,o),
(120,17,cs),
(120,89,l),
(110,89,l),
(147,24,o),
(207,-15,o),
(291,-15,cs)
);
},
{
closed = 1;
nodes = (
(184,29,o),
(120,113,o),
(120,258,cs),
(120,405,o),
(186,487,o),
(289,487,cs),
(399,487,o),
(460,401,o),
(460,258,cs),
(460,118,o),
(399,27,o),
(288,28,cs)
);
}
);
width = 546;
},
{
associatedMasterId = "65988B1E-DCE2-4AC3-A6FF-994A1050067D";
layerId = "23B77B70-ABBC-4F89-97F7-C225DED3814B";
name = "Inktrap 1";
shapes = (
{
closed = 1;
nodes = (
(450,133,o),
(396,61,o),
(295,62,cs),
(201,63,o),
(150,130,o),
(150,258,cs),
(150,386,o),
(201,453,o),
(297,453,cs),
(393,453,o),
(450,381,o),
(450,258,cs)
);
},
{
closed = 1;
nodes = (
(530,402,o),
(451,530,o),
(312,530,cs),
(236,530,o),
(167,484,o),
(153,434,c),
(152,430,o),
(150,431,o),
(150,434,c),
(150,469,l),
(150,685,ls),
(150,707,o),
(132,725,o),
(110,725,cs),
(88,725,o),
(70,707,o),
(70,685,cs),
(70,31,ls),
(70,8,o),
(88,-10,o),
(110,-10,cs),
(132,-10,o),
(150,8,o),
(150,31,cs),
(150,49,l),
(150,85,l),
(150,91,o),
(152,89,o),
(153,85,c),
(171,21,o),
(240,-15,o),
(313,-15,cs),
(451,-15,o),
(530,114,o),
(530,258,cs)
);
}
);
width = 570;
},
{
associatedMasterId = "65988B1E-DCE2-4AC3-A6FF-994A1050067D";
layerId = "ABC21B62-C509-464A-984E-564DA0710332";
name = "Inktrap 2";
shapes = (
{
closed = 1;
nodes = (
(450,133,o),
(396,61,o),
(295,62,cs),
(201,63,o),
(150,130,o),
(150,258,cs),
(150,386,o),
(201,453,o),
(297,453,cs),
(393,453,o),
(450,381,o),
(450,258,cs)
);
},
{
closed = 1;
nodes = (
(530,402,o),
(451,530,o),
(312,530,cs),
(253,530,o),
(190,507,o),
(147,434,c),
(144,434,l),
(146,444,o),
(150,453,o),
(150,488,cs),
(150,685,ls),
(150,707,o),
(132,725,o),
(110,725,cs),
(88,725,o),
(70,707,o),
(70,685,cs),
(70,31,ls),
(70,8,o),
(88,-10,o),
(110,-10,cs),
(132,-10,o),
(150,8,o),
(150,31,cs),
(150,39,ls),
(150,58,o),
(146,66,o),
(144,75,c),
(147,75,l),
(188,9,o),
(253,-15,o),
(313,-15,cs),
(451,-14,o),
(530,114,o),
(530,258,cs)
);
}
);
width = 570;
}
);
metricLeft = "=n";
metricRight = "=o";
unicode = 98;
},
{
glyphname = c;
lastChange = "2021-08-08 16:07:14 +0000";
layers = (
{
anchors = (
{
name = bottom;
pos = (265,0);
},
{
name = top;
pos = (266,515);
}
);
layerId = "65988B1E-DCE2-4AC3-A6FF-994A1050067D";
shapes = (
{
closed = 1;
nodes = (
(372,-15,o),
(449,55,o),
(467,146,cs),
(474,180,o),
(456,201,o),
(432,201,cs),
(411,201,o),
(397,185,o),
(394,165,cs),
(384,107,o),
(337,62,o),
(270,62,cs),
(177,62,o),
(120,141,o),
(120,259,cs),
(120,369,o),
(170,453,o),
(270,453,cs),
(333,453,o),
(364,419,o),
(376,397,cs),
(388,375,o),
(397,355,o),
(419,355,cs),
(445,355,o),
(458,375,o),
(454,402,cs),
(444,470,o),
(370,530,o),
(270,530,cs),
(133,530,o),
(40,412,o),
(40,259,cs),
(40,103,o),
(126,-15,o),
(270,-15,cs)
);
}
);
width = 504;
},
{
anchors = (
{
name = bottom;
pos = (284,0);
},
{
name = top;
pos = (283,515);
}
);
background = {
shapes = (
{
closed = 1;
nodes = (
(402,-15,o),
(523,61,o),
(522,170,cs),
(521,212,o),
(487,240,o),
(449,240,cs),
(407,240,o),
(381,207,o),
(376,175,cs),
(370,139,o),
(332,122,o),
(293,122,cs),
(223,122,o),
(194,175,o),
(194,259,cs),
(194,349,o),
(229,392,o),
(296,392,cs),
(351,392,o),
(358,364,o),
(368,345,cs),
(387,310,o),
(415,296,o),
(447,296,cs),
(492,296,o),
(514,330,o),
(514,369,cs),
(513,449,o),
(407,530,o),
(303,530,cs),
(134,530,o),
(38,394,o),
(38,259,cs),
(38,120,o),
(127,-15,o),
(303,-15,cs)
);
},
{
closed = 1;
nodes = (
(399,167,o),
(361,122,o),
(296,122,cs),
(231,122,o),
(193,167,o),
(193,259,cs),
(193,347,o),
(231,393,o),
(296,393,cs),
(361,393,o),
(399,347,o),
(399,259,cs)
);
},
{
closed = 1;
nodes = (
(414,-13,o),
(506,65,o),
(506,135,cs),
(506,176,o),
(475,210,o),
(433,210,cs),
(405,210,o),
(390,189,o),
(376,167,cs),
(354,132,o),
(338,123,o),
(301,123,cs),
(246,123,o),
(196,180,o),
(196,261,cs),
(196,340,o),
(245,395,o),
(299,395,cs),
(332,395,o),
(346,375,o),
(354,369,cs),
(367,359,o),
(383,353,o),
(400,353,cs),
(442,353,o),
(474,388,o),
(474,429,cs),
(474,489,o),
(404,531,o),
(310,531,cs),
(154,531,o),
(40,412,o),
(40,255,cs),
(40,101,o),
(148,-13,o),
(294,-13,cs)
);
}
);
};
layerId = "6242D68C-0A25-4F05-8F2A-2075F7C4A210";
shapes = (
{
closed = 1;
nodes = (
(412,-15,o),
(503,64,o),
(503,134,cs),
(503,175,o),
(472,209,o),
(430,209,cs),
(402,209,o),
(387,188,o),
(373,166,cs),
(351,131,o),
(335,122,o),
(298,122,cs),
(233,122,o),
(195,167,o),
(195,259,cs),
(195,347,o),
(233,394,o),
(296,394,cs),
(329,394,o),
(343,374,o),
(351,368,cs),
(364,358,o),
(380,352,o),
(397,352,cs),
(439,352,o),
(471,387,o),
(471,428,cs),
(471,488,o),
(392,530,o),
(298,530,cs),
(143,530,o),
(40,410,o),
(40,259,cs),
(40,104,o),
(143,-15,o),
(298,-15,cs)
);
}
);
width = 538;
},
{
anchors = (
{
name = bottom;
pos = (265,0);
},
{
name = top;
pos = (266,515);
}
);
associatedMasterId = "65988B1E-DCE2-4AC3-A6FF-994A1050067D";
layerId = "042D3493-21FF-4C21-B1B2-313DBC6D2E2E";
name = "Original Skeleton";
shapes = (
{
attr = {
strokeWidth = 2;
};
closed = 0;
nodes = (
(453,157,l),
(443,65,o),
(356,0,o),
(271,0,cs),
(155,0,o),
(61,118,o),
(61,263,cs),
(61,409,o),
(155,524,o),
(271,524,cs),
(350,524,o),
(433,468,o),
(433,416,c)
);
}
);
visible = 1;
width = 504;
},
{
anchors = (
{
name = bottom;
pos = (252,0);
},
{
name = top;
pos = (253,515);
}
);
background = {
shapes = (
{
ref = e;
},
{
ref = o;
}
);
};
layerId = "3D52442A-254C-4C79-B742-A98FD72DF947";
shapes = (
{
closed = 1;
nodes = (
(354,-15,o),
(425,49,o),
(442,136,cs),
(448,165,o),
(437,177,o),
(422,177,cs),
(410,177,o),
(402,168,o),
(399,151,cs),
(387,80,o),
(334,28,o),
(257,28,cs),
(154,28,o),
(86,112,o),
(86,259,cs),
(86,392,o),
(148,487,o),
(255,487,cs),
(338,487,o),
(376,435,o),
(386,404,cs),
(390,393,o),
(394,379,o),
(411,379,cs),
(424,379,o),
(434,387,o),
(432,403,cs),
(424,467,o),
(353,530,o),
(255,530,cs),
(120,530,o),
(40,415,o),
(40,259,cs),
(40,91,o),
(121,-15,o),
(257,-15,cs)
);
}
);
width = 479;
}
);
metricRight = "=o-5";
unicode = 99;
},
{
glyphname = ccedilla;
lastChange = "2021-08-08 16:07:14 +0000";
layers = (
{
background = {
shapes = (
{
attr = {
lineCapEnd = "2";
lineCapStart = "2";
strokeHeight = 55;
strokeWidth = 55;
};
closed = 0;
nodes = (
(241,23,l),
(212,-97,l),
(239,-81,o),
(259,-74,o),
(278,-74,cs),
(309,-74,o),
(331,-89,o),
(331,-110,cs),
(331,-145,o),
(294,-170,o),
(242,-170,cs),
(225,-170,o),
(187,-165,o),
(153,-146,c)
);
},
{
attr = {
lineCapEnd = "2";
lineCapStart = "2";
};
closed = 0;
nodes = (
(241,23,l),
(212,-97,l),
(231,-82,o),
(254,-74,o),
(279,-74,cs),
(313,-74,o),
(331,-88,o),
(331,-113,cs),
(331,-147,o),
(297,-170,o),
(247,-170,cs),
(219,-170,o),
(191,-163,o),
(153,-146,c)
);
}
);
};
layerId = "65988B1E-DCE2-4AC3-A6FF-994A1050067D";
shapes = (
{
ref = c;
},
{
pos = (109,0);
ref = cedillacomb;
}
);
width = 504;
},
{
layerId = "6242D68C-0A25-4F05-8F2A-2075F7C4A210";
shapes = (
{
ref = c;
},
{
pos = (118,0);
ref = cedillacomb;
}
);
width = 538;
},
{
layerId = "3D52442A-254C-4C79-B742-A98FD72DF947";
shapes = (
{
ref = c;
},
{
pos = (115,0);
ref = cedillacomb;
}
);
width = 479;
}
);
unicode = 231;
},
{
glyphname = d;
lastChange = "2021-08-09 15:21:28 +0000";
layers = (
{
anchors = (
{
name = bottom;
pos = (285,0);
},
{
name = center;
pos = (285,258);
},
{
name = top;
pos = (285,720);
},
{
name = topright;
pos = (550,720);
}
);
layerId = "65988B1E-DCE2-4AC3-A6FF-994A1050067D";
shapes = (
{
closed = 1;
nodes = (
(325,-15,o),
(393,20,o),
(436,84,c),
(420,102,l),
(420,31,ls),
(420,8,o),
(438,-10,o),
(460,-10,cs),
(482,-10,o),
(500,8,o),
(500,31,cs),
(500,690,ls),
(500,712,o),
(482,730,o),
(460,730,cs),
(438,730,o),
(420,712,o),
(420,690,cs),
(420,427,l),
(437,443,l),
(417,491,o),
(344,530,o),
(263,530,cs),
(124,530,o),
(40,402,o),
(40,258,cs),
(40,114,o),
(115,-14,o),
(253,-15,cs)
);
},
{
closed = 1;
nodes = (
(176,61,o),
(120,138,o),
(120,258,cs),
(120,381,o),
(177,453,o),
(273,453,cs),
(362,453,o),
(420,376,o),
(420,258,cs),
(420,130,o),
(369,63,o),
(275,62,cs)
);
}
);
width = 570;
},
{
anchors = (
{
name = bottom;
pos = (315,0);
},
{
name = center;
pos = (315,258);
},
{
name = top;
pos = (315,720);
},
{
name = topright;
pos = (610,720);
}
);
layerId = "6242D68C-0A25-4F05-8F2A-2075F7C4A210";
shapes = (
{
closed = 1;
nodes = (
(350,-16,o),
(407,31,o),
(427,86,c),
(410,94,l),
(410,66,ls),
(410,24,o),
(444,-10,o),
(485,-10,cs),
(526,-10,o),
(560,24,o),
(560,66,cs),
(560,655,ls),
(560,696,o),
(526,730,o),
(485,730,cs),
(444,730,o),
(410,696,o),
(410,655,cs),
(410,434,l),
(431,446,l),
(388,509,o),
(336,530,o),
(277,530,cs),
(113,530,o),
(40,381,o),
(40,258,cs),
(40,135,o),
(107,-14,o),
(265,-15,cs)
);
},
{
closed = 1;
nodes = (
(228,121,o),
(197,175,o),
(197,258,cs),
(197,339,o),
(231,393,o),
(298,393,cs),
(367,393,o),
(410,344,o),
(410,258,cs),
(410,172,o),
(367,123,o),
(300,122,cs)
);
}
);
width = 630;
},
{
anchors = (
{
name = bottom;
pos = (285,0);
},
{
name = center;
pos = (285,258);
},
{
name = top;
pos = (285,720);
},
{
name = topright;
pos = (530,720);
}
);
associatedMasterId = "65988B1E-DCE2-4AC3-A6FF-994A1050067D";
layerId = "8241BEDB-FFCE-404B-AED6-1B2CD6AD7BA0";
name = "Original Skeleton";
shapes = (
{
attr = {
strokeWidth = 2;
};
closed = 1;
nodes = (
(61,115,o),
(127,0,o),
(260,0,cs),
(375,0,o),
(461,81,o),
(461,257,cs),
(461,442,o),
(375,515,o),
(260,515,cs),
(130,515,o),
(61,400,o),
(61,257,c)
);
},
{
attr = {
strokeWidth = 2;
};
closed = 0;
nodes = (
(461,700,l),
(461,0,l)
);
}
);
width = 570;
},
{
anchors = (
{
name = bottom;
pos = (273,0);
},
{
name = center;
pos = (273,258);
},
{
name = top;
pos = (273,720);
},
{
name = topright;
pos = (525,720);
}
);
layerId = "3D52442A-254C-4C79-B742-A98FD72DF947";
shapes = (
{
closed = 1;
nodes = (
(338,-15,o),
(398,24,o),
(435,89,c),
(425,89,l),
(425,17,ls),
(425,1,o),
(433,-10,o),
(448,-10,cs),
(463,-10,o),
(470,1,o),
(470,17,cs),
(470,703,ls),
(470,718,o),
(463,730,o),
(448,730,cs),
(433,730,o),
(425,718,o),
(425,703,cs),
(425,409,l),
(435,409,l),
(416,475,o),
(354,530,o),
(251,530,cs),
(114,530,o),
(40,408,o),
(40,258,cs),
(40,107,o),
(107,-15,o),
(254,-15,cs)
);
},
{
closed = 1;
nodes = (
(143,29,o),
(85,113,o),
(85,258,cs),
(85,401,o),
(151,487,o),
(261,487,cs),
(361,487,o),
(425,400,o),
(425,258,cs),
(425,113,o),
(361,31,o),
(257,30,cs)
);
}
);
width = 545;
}
);
metricLeft = "=o";
metricRight = "=|h";
unicode = 100;
},
